<svg width="16" height="16" viewBox="0 0 16 16" fill="none" xmlns="http://www.w3.org/2000/svg">
<path d="M6.27527 10.3738L8 9.46704L9.72473 10.3738L9.39526 8.45337L10.7905 7.09326L8.8623 6.81311L8 5.0658L7.1377 6.81311L5.20947 7.09326L6.60474 8.45337L6.27527 10.3738ZM7.76025 7.66992L8 7.1842L8.23975 7.66992L8.77588 7.74792L8.38794 8.12598L8.47949 8.66003L8 8.40796L7.52051 8.66003L7.61206 8.12598L7.22412 7.74792L7.76025 7.66992Z" fill="white"/>
<path d="M14.0938 0.9375V0H13.1562V0.9375H11.2812V0H10.3438V0.9375H8.46875V0H7.53125V0.9375H5.65625V0H4.71875V0.9375H2.84375V0H1.90625V0.9375H0V16H16C16 15.886 16 1.43726 16 0.9375H14.0938ZM0.9375 1.875H1.90625V2.8125H2.84375V1.875H4.71875V2.8125H5.65625V1.875H7.53125V2.8125H8.46875V1.875H10.3438V2.8125H11.2812V1.875H13.1562V2.8125H14.0938V1.875H15.0625V3.78125H0.9375V1.875ZM15.0625 15.0625H0.9375V4.71875H15.0625V15.0625Z" fill="white"/>
<path d="M4.71875 6.59375H1.90625V9.40625H4.71875V6.59375ZM3.78125 8.46875H2.84375V7.53125H3.78125V8.46875Z" fill="white"/>
<path d="M4.71875 14.0938V11.2812H1.90625V14.0938H4.71875ZM2.84375 12.2188H3.78125V13.1562H2.84375V12.2188Z" fill="white"/>
<path d="M6.59375 14.0938H9.40625V11.2812H6.59375V14.0938ZM7.53125 12.2188H8.46875V13.1562H7.53125V12.2188Z" fill="white"/>
<path d="M14.0938 11.2812H11.2812V14.0938H14.0938V11.2812ZM13.1562 13.1562H12.2188V12.2188H13.1562V13.1562Z" fill="white"/>
<path d="M14.0938 6.59375H11.2812V9.40625H14.0938V6.59375ZM13.1562 8.46875H12.2188V7.53125H13.1562V8.46875Z" fill="white"/>
</svg>
