<svg width="16" height="15" viewBox="0 0 16 15" fill="none" xmlns="http://www.w3.org/2000/svg">
<path d="M14 0H2C1.46957 0 0.960859 0.210714 0.585786 0.585786C0.210714 0.960859 0 1.46957 0 2L0 14.6667H16V2C16 1.46957 15.7893 0.960859 15.4142 0.585786C15.0391 0.210714 14.5304 0 14 0ZM2 1.33333H14C14.1768 1.33333 14.3464 1.40357 14.4714 1.5286C14.5964 1.65362 14.6667 1.82319 14.6667 2V2.44467L9.41467 7.69733C9.03895 8.07154 8.53028 8.28165 8 8.28165C7.46972 8.28165 6.96105 8.07154 6.58533 7.69733L1.33333 2.44467V2C1.33333 1.82319 1.40357 1.65362 1.5286 1.5286C1.65362 1.40357 1.82319 1.33333 2 1.33333ZM1.33333 13.3333V4.33333L5.64267 8.64C6.26842 9.26417 7.11617 9.61469 8 9.61469C8.88383 9.61469 9.73158 9.26417 10.3573 8.64L14.6667 4.33333V13.3333H1.33333Z" fill="white"/>
</svg>
