<svg width="16" height="16" viewBox="0 0 16 16" fill="none" xmlns="http://www.w3.org/2000/svg">
<g clip-path="url(#clip0_127_692)">
<path d="M14 0.666992H2C1.46957 0.666992 0.960859 0.877706 0.585786 1.25278C0.210714 1.62785 0 2.13656 0 2.66699L0 15.3337H16V2.66699C16 2.13656 15.7893 1.62785 15.4142 1.25278C15.0391 0.877706 14.5304 0.666992 14 0.666992ZM2 2.00033H14C14.1768 2.00033 14.3464 2.07056 14.4714 2.19559C14.5964 2.32061 14.6667 2.49018 14.6667 2.66699V3.11166L9.41467 8.36433C9.03895 8.73853 8.53028 8.94864 8 8.94864C7.46972 8.94864 6.96105 8.73853 6.58533 8.36433L1.33333 3.11166V2.66699C1.33333 2.49018 1.40357 2.32061 1.5286 2.19559C1.65362 2.07056 1.82319 2.00033 2 2.00033ZM1.33333 14.0003V5.00033L5.64267 9.30699C6.26842 9.93116 7.11617 10.2817 8 10.2817C8.88383 10.2817 9.73158 9.93116 10.3573 9.30699L14.6667 5.00033V14.0003H1.33333Z" fill="#0F172A"/>
</g>
<defs>
<clipPath id="clip0_127_692">
<rect width="16" height="16" fill="white"/>
</clipPath>
</defs>
</svg>
