<svg width="20" height="20" viewBox="0 0 20 20" fill="none" xmlns="http://www.w3.org/2000/svg">
<g clip-path="url(#clip0_127_708)">
<path d="M20 10.0605C20 15.0514 16.3383 19.1889 11.5583 19.9397V12.9705H13.8825L14.325 10.0872H11.5583V8.21638C11.5583 7.42721 11.945 6.65888 13.1833 6.65888H14.4408V4.20388C14.4408 4.20388 13.2992 4.00888 12.2083 4.00888C9.93 4.00888 8.44167 5.38971 8.44167 7.88888V10.0864H5.90917V12.9697H8.44167V19.9389C3.6625 19.1872 0 15.0505 0 10.0605C0 4.53805 4.4775 0.0605469 10 0.0605469C15.5225 0.0605469 20 4.53721 20 10.0605Z" fill="#0F172A"/>
</g>
<defs>
<clipPath id="clip0_127_708">
<rect width="20" height="20" fill="white"/>
</clipPath>
</defs>
</svg>
