<svg width="95" height="20" viewBox="0 0 95 20" fill="none" xmlns="http://www.w3.org/2000/svg">
<g clip-path="url(#clip0_127_465)">
<path d="M7.54652 0.00195312H8.09141C9.98311 0.043077 11.844 0.803868 13.1805 2.15067C12.687 2.65444 12.1832 3.13765 11.7 3.64141C10.9495 2.96287 10.0448 2.43854 9.05782 2.25348C7.59793 1.94505 6.02494 2.22264 4.80151 3.0554C3.46498 3.92928 2.56026 5.40974 2.36492 6.993C2.14902 8.55571 2.5911 10.2007 3.60892 11.4138C4.58561 12.5961 6.07635 13.3364 7.61849 13.3878C9.05782 13.47 10.5588 13.0279 11.6075 12.0204C12.43 11.311 12.8104 10.2315 12.9337 9.18285C11.2271 9.18285 9.52047 9.19313 7.81383 9.18285V7.06497H15.0002C15.3703 9.33706 14.8357 11.897 13.1085 13.5214C11.9571 14.6729 10.3635 15.3514 8.73911 15.4851C7.16613 15.6393 5.54174 15.3411 4.14353 14.5804C2.46773 13.6859 1.1312 12.1746 0.473223 10.396C-0.143634 8.76133 -0.153915 6.91076 0.421819 5.2658C0.946147 3.76478 1.95368 2.43854 3.24908 1.51325C4.49308 0.598249 6.00438 0.0944818 7.54652 0.00195312Z" fill="#3780FF"/>
<path d="M48.7734 0.537109H50.9736V15.2183C50.2436 15.2183 49.5034 15.2286 48.7734 15.208C48.7837 10.3246 48.7734 5.43085 48.7734 0.537109Z" fill="#38B137"/>
<path d="M19.8951 5.62636C21.2522 5.36933 22.7224 5.6572 23.843 6.46939C24.8608 7.18906 25.5702 8.31997 25.7861 9.55368C26.0637 10.9827 25.7141 12.5454 24.7889 13.6763C23.7916 14.9409 22.1569 15.6194 20.5634 15.5166C19.1035 15.4344 17.6847 14.7044 16.8211 13.5118C15.8444 12.1959 15.608 10.3864 16.1426 8.8443C16.6772 7.18906 18.1885 5.9245 19.8951 5.62636ZM20.2036 7.57974C19.6484 7.72367 19.1343 8.04238 18.7642 8.49474C17.767 9.68733 17.8287 11.6304 18.9287 12.7408C19.5559 13.3782 20.5017 13.6763 21.3756 13.5016C22.1878 13.3576 22.8972 12.8127 23.2878 12.0931C23.9664 10.8696 23.771 9.18357 22.7327 8.22744C22.0644 7.61058 21.0877 7.35356 20.2036 7.57974Z" fill="#FA3913"/>
<path d="M30.7903 5.62516C32.3428 5.32701 34.0391 5.75881 35.2009 6.84859C37.0926 8.54495 37.2982 11.7218 35.6841 13.6751C34.7074 14.9089 33.1241 15.5874 31.5614 15.5154C30.0707 15.4743 28.6005 14.7341 27.7163 13.5107C26.7191 12.1638 26.5032 10.3133 27.0686 8.74029C27.6341 7.13646 29.1145 5.91303 30.7903 5.62516ZM31.0988 7.57854C30.5436 7.72247 30.0295 8.04118 29.6594 8.48327C28.6725 9.6553 28.7136 11.5676 29.7725 12.6882C30.3997 13.3564 31.3763 13.6854 32.2811 13.5004C33.083 13.3462 33.8027 12.8115 34.1933 12.0919C34.8616 10.8582 34.6663 9.17209 33.6176 8.21596C32.9493 7.5991 31.9726 7.35236 31.0988 7.57854Z" fill="#FCBD06"/>
<path d="M40.0347 6.22177C41.217 5.48155 42.79 5.27593 44.0649 5.91335C44.4658 6.08812 44.7948 6.38627 45.1135 6.68442C45.1238 6.40683 45.1135 6.11897 45.1238 5.8311C45.8126 5.84138 46.5015 5.8311 47.2006 5.84138V14.9092C47.1903 16.2766 46.8407 17.7262 45.8538 18.7234C44.7743 19.8235 43.119 20.1628 41.6283 19.9366C40.0347 19.7001 38.6468 18.5384 38.0299 17.0682C38.6468 16.77 39.2945 16.5336 39.9319 16.256C40.2918 17.099 41.0217 17.8187 41.9367 17.9832C42.8517 18.1477 43.9107 17.9215 44.5069 17.1607C45.1444 16.3794 45.1444 15.3101 45.1135 14.354C44.6406 14.8167 44.0957 15.2279 43.4377 15.3821C42.0087 15.7831 40.4357 15.2896 39.3356 14.3232C38.2253 13.3568 37.5673 11.866 37.629 10.3856C37.6598 8.70977 38.6057 7.09566 40.0347 6.22177ZM42.1629 7.53774C41.5358 7.64055 40.9497 7.9901 40.5488 8.47331C39.5824 9.62477 39.5824 11.4651 40.5591 12.596C41.1142 13.2642 42.0087 13.6343 42.8723 13.5418C43.6845 13.4596 44.435 12.9455 44.8359 12.2361C45.5145 11.0333 45.4014 9.39859 44.4864 8.34993C43.9209 7.70223 43.0162 7.38352 42.1629 7.53774Z" fill="#3780FF"/>
<path d="M53.6135 6.74666C54.8472 5.59519 56.7492 5.20452 58.3325 5.81109C59.8335 6.37655 60.7896 7.8056 61.2728 9.27578C59.0418 10.2011 56.8212 11.1161 54.5902 12.0414C54.8986 12.6274 55.3715 13.162 56.009 13.3779C56.9034 13.6966 57.9726 13.5835 58.7231 12.9872C59.0213 12.761 59.2577 12.4629 59.4839 12.175C60.0494 12.5554 60.6148 12.9255 61.1803 13.3059C60.3784 14.5088 59.0316 15.3518 57.5819 15.4855C55.9781 15.6808 54.2715 15.064 53.2331 13.8097C51.5265 11.8357 51.691 8.52527 53.6135 6.74666ZM54.7136 8.64864C54.364 9.15241 54.2201 9.76926 54.2303 10.3758C55.7211 9.75898 57.2118 9.14213 58.7026 8.51499C58.4558 7.93925 57.8595 7.5897 57.253 7.49717C56.2763 7.3224 55.2584 7.84672 54.7136 8.64864Z" fill="#FA3913"/>
</g>
<defs>
<clipPath id="clip0_127_465">
<rect width="95" height="20" fill="white"/>
</clipPath>
</defs>
</svg>
