<svg width="20" height="20" viewBox="0 0 20 20" fill="none" xmlns="http://www.w3.org/2000/svg">
<g clip-path="url(#clip0_127_702)">
<path d="M10 1.80167C12.67 1.80167 12.9867 1.81167 14.0408 1.86C15.1308 1.91 16.2533 2.15833 17.0475 2.9525C17.8492 3.75417 18.09 4.86583 18.14 5.95917C18.1883 7.01333 18.1983 7.33 18.1983 10C18.1983 12.67 18.1883 12.9867 18.14 14.0408C18.0908 15.125 17.8367 16.2583 17.0475 17.0475C16.2458 17.8492 15.135 18.09 14.0408 18.14C12.9867 18.1883 12.67 18.1983 10 18.1983C7.33 18.1983 7.01333 18.1883 5.95917 18.14C4.88333 18.0908 3.735 17.8308 2.9525 17.0475C2.155 16.25 1.91 15.1275 1.86 14.0408C1.81167 12.9867 1.80167 12.67 1.80167 10C1.80167 7.33 1.81167 7.01333 1.86 5.95917C1.90917 4.87917 2.16583 3.73917 2.9525 2.9525C3.7525 2.1525 4.86833 1.91 5.95917 1.86C7.01333 1.81167 7.33 1.80167 10 1.80167ZM10 0C7.28417 0 6.94333 0.0116667 5.87667 0.06C4.33083 0.130833 2.79583 0.560833 1.67833 1.67833C0.556667 2.8 0.130833 4.33167 0.06 5.87667C0.0116667 6.94333 0 7.28417 0 10C0 12.7158 0.0116667 13.0567 0.06 14.1233C0.130833 15.6675 0.5625 17.2067 1.67833 18.3217C2.79917 19.4425 4.33333 19.8692 5.87667 19.94C6.94333 19.9883 7.28417 20 10 20C12.7158 20 13.0567 19.9883 14.1233 19.94C15.6683 19.8692 17.205 19.4383 18.3217 18.3217C19.4442 17.1992 19.8692 15.6683 19.94 14.1233C19.9883 13.0567 20 12.7158 20 10C20 7.28417 19.9883 6.94333 19.94 5.87667C19.8692 4.33083 19.4383 2.795 18.3217 1.67833C17.2025 0.559167 15.6642 0.13 14.1233 0.06C13.0567 0.0116667 12.7158 0 10 0Z" fill="#0F172A"/>
<path d="M9.99828 4.86523C7.16245 4.86523 4.86328 7.1644 4.86328 10.0002C4.86328 12.8361 7.16245 15.1352 9.99828 15.1352C12.8341 15.1352 15.1333 12.8361 15.1333 10.0002C15.1333 7.1644 12.8341 4.86523 9.99828 4.86523ZM9.99828 13.3336C8.15745 13.3336 6.66495 11.8411 6.66495 10.0002C6.66495 8.1594 8.15745 6.6669 9.99828 6.6669C11.8391 6.6669 13.3316 8.1594 13.3316 10.0002C13.3316 11.8411 11.8391 13.3336 9.99828 13.3336Z" fill="#0F172A"/>
<path d="M15.3367 5.86094C15.9995 5.86094 16.5367 5.32368 16.5367 4.66094C16.5367 3.9982 15.9995 3.46094 15.3367 3.46094C14.674 3.46094 14.1367 3.9982 14.1367 4.66094C14.1367 5.32368 14.674 5.86094 15.3367 5.86094Z" fill="#0F172A"/>
</g>
<defs>
<clipPath id="clip0_127_702">
<rect width="20" height="20" fill="white"/>
</clipPath>
</defs>
</svg>
