<svg width="18" height="20" viewBox="0 0 18 20" fill="none" xmlns="http://www.w3.org/2000/svg">
<path d="M16.25 0C15.625 0 11.25 1.25 11.25 6.875V11.25C11.25 12.6289 12.3711 13.75 13.75 13.75H15V18.75C15 19.4414 15.5586 20 16.25 20C16.9414 20 17.5 19.4414 17.5 18.75V13.75V9.375V1.25C17.5 0.558594 16.9414 0 16.25 0ZM2.5 0.625C2.5 0.304688 2.26172 0.0390625 1.94141 0.00390625C1.62109 -0.03125 1.33594 0.179688 1.26562 0.488281L0.0820312 5.8125C0.0273437 6.05859 0 6.30859 0 6.55859C0 8.35156 1.37109 9.82422 3.125 9.98438V18.75C3.125 19.4414 3.68359 20 4.375 20C5.06641 20 5.625 19.4414 5.625 18.75V9.98438C7.37891 9.82422 8.75 8.35156 8.75 6.55859C8.75 6.30859 8.72266 6.05859 8.66797 5.8125L7.48438 0.488281C7.41406 0.175781 7.12109 -0.03125 6.80469 0.00390625C6.48828 0.0390625 6.25 0.304688 6.25 0.625V5.86719C6.25 6.07812 6.07812 6.25 5.86719 6.25C5.66797 6.25 5.50391 6.09766 5.48438 5.89844L4.99609 0.570312C4.96875 0.246094 4.69922 0 4.375 0C4.05078 0 3.78125 0.246094 3.75391 0.570312L3.26953 5.89844C3.25 6.09766 3.08594 6.25 2.88672 6.25C2.67578 6.25 2.50391 6.07812 2.50391 5.86719V0.625H2.5ZM4.38672 6.5625H4.375H4.36328L4.375 6.53516L4.38672 6.5625Z" fill="#BD9F7C"/>
</svg>
