<svg width="98" height="98" viewBox="0 0 98 98" fill="none" xmlns="http://www.w3.org/2000/svg">
<g clip-path="url(#clip0_127_631)">
<path d="M49.23 97.46C75.8667 97.46 97.46 75.8667 97.46 49.23C97.46 22.5933 75.8667 1 49.23 1C22.5933 1 1 22.5933 1 49.23C1 75.8667 22.5933 97.46 49.23 97.46Z" fill="#132A3E" stroke="white" stroke-miterlimit="10"/>
<path d="M73.4203 42.5093C72.2052 42.581 71.0031 42.2274 70.0203 41.5093C69.605 41.1839 69.272 40.7656 69.0479 40.288C68.8239 39.8103 68.7151 39.2866 68.7303 38.7593C68.7168 38.2522 68.8167 37.7485 69.0225 37.2849C69.2284 36.8213 69.5351 36.4094 69.9203 36.0793C70.9815 35.3192 72.28 34.9644 73.5803 35.0793H77.4903V34.3793C77.5203 33.9447 77.4613 33.5086 77.3169 33.0977C77.1725 32.6867 76.9456 32.3096 76.6503 31.9894C75.9508 31.4034 75.0505 31.1128 74.1403 31.1793C73.3788 31.1755 72.623 31.3111 71.9103 31.5793C71.2523 31.8216 70.6453 32.1845 70.1203 32.6493L69.8803 32.8694L68.9703 31.5493L69.1503 31.3893C69.8242 30.7996 70.605 30.3448 71.4503 30.0493C72.347 29.7357 73.2904 29.5767 74.2403 29.5793C75.5818 29.4966 76.9025 29.9416 77.9203 30.8193C78.3741 31.299 78.7239 31.8673 78.9476 32.4885C79.1713 33.1098 79.2641 33.7705 79.2203 34.4293V42.4293H77.5303V40.8793C77.1646 41.2881 76.7274 41.627 76.2403 41.8793C75.3646 42.3128 74.3973 42.5289 73.4203 42.5093ZM73.6003 36.5093C72.7477 36.4369 71.8948 36.6441 71.1703 37.0994C70.9381 37.2918 70.7539 37.5356 70.6324 37.8116C70.5109 38.0876 70.4554 38.3881 70.4703 38.6893C70.4585 39.0082 70.5231 39.3252 70.6588 39.614C70.7945 39.9028 70.9973 40.155 71.2503 40.3494C71.936 40.8111 72.7554 41.0326 73.5803 40.9794C74.438 41.0062 75.2841 40.7763 76.0103 40.3193C76.677 39.864 77.1924 39.2198 77.4903 38.4694V36.4694L73.6003 36.5093ZM15.3103 42.5093C14.0985 42.5794 12.9 42.2259 11.9203 41.5093C11.505 41.1839 11.172 40.7656 10.9479 40.288C10.7239 39.8103 10.6151 39.2866 10.6303 38.7593C10.617 38.2532 10.7159 37.7505 10.9199 37.2871C11.124 36.8237 11.428 36.4113 11.8103 36.0793C12.8762 35.3209 14.1771 34.9665 15.4803 35.0793H19.3803V34.3793C19.4117 33.9454 19.3543 33.5098 19.2115 33.0989C19.0688 32.6879 18.8438 32.3104 18.5503 31.9894C17.8508 31.4034 16.9505 31.1128 16.0403 31.1793C15.2786 31.1736 14.5225 31.3093 13.8103 31.5793C13.1523 31.8216 12.5453 32.1845 12.0203 32.6493L11.7803 32.8694L10.8603 31.5493L11.0503 31.3893C11.7223 30.7969 12.5036 30.3418 13.3503 30.0493C14.2437 29.7366 15.1837 29.5777 16.1303 29.5793C17.475 29.4951 18.7994 29.9401 19.8203 30.8193C20.2741 31.299 20.6239 31.8673 20.8476 32.4885C21.0713 33.1098 21.1641 33.7705 21.1203 34.4293V42.4293H19.4303V40.8793C19.0646 41.2881 18.6274 41.627 18.1403 41.8793C17.2615 42.314 16.2906 42.5302 15.3103 42.5093ZM15.5003 36.5093C14.6476 36.4354 13.7942 36.6427 13.0703 37.0994C12.8381 37.2918 12.6539 37.5356 12.5324 37.8116C12.4109 38.0876 12.3554 38.3881 12.3703 38.6893C12.3585 39.0082 12.4231 39.3252 12.5588 39.614C12.6945 39.9028 12.8973 40.155 13.1503 40.3494C13.836 40.8111 14.6554 41.0326 15.4803 40.9794C16.338 41.0062 17.1841 40.7763 17.9103 40.3193C18.5754 39.8648 19.0878 39.22 19.3803 38.4694V36.4694L15.5003 36.5093ZM83.5003 42.4093V29.6194H85.2403V42.4093H83.5003ZM66.0203 42.4093L60.9303 36.0093L58.0403 38.6893V42.4694H56.3003V24.5293H58.0403V36.4594L65.4603 29.6793H67.7903L62.1903 34.9393L68.1903 42.4694L66.0203 42.4093ZM44.3103 42.4093V35.0793C44.3874 34.0165 44.0546 32.9645 43.3803 32.1393C43.0448 31.7948 42.6387 31.527 42.1899 31.3544C41.7411 31.1817 41.2602 31.1084 40.7803 31.1393C40.2144 31.1111 39.6489 31.2036 39.1214 31.4105C38.5938 31.6174 38.1163 31.934 37.7203 32.3394C36.9334 33.2413 36.5282 34.414 36.5903 35.6094V42.3993H34.8303V35.0693C34.9074 34.0065 34.5746 32.9544 33.9003 32.1293C33.5648 31.7847 33.1587 31.517 32.7099 31.3444C32.2611 31.1717 31.7802 31.0983 31.3003 31.1293C30.7344 31.1011 30.1689 31.1936 29.6414 31.4005C29.1138 31.6074 28.6363 31.924 28.2403 32.3293C27.4534 33.2313 27.0482 34.404 27.1103 35.5994V42.3893H25.3803V29.5994H27.0703V31.4894C27.4501 30.9937 27.9221 30.576 28.4603 30.2593C29.374 29.7424 30.4109 29.4832 31.4603 29.5093C32.5175 29.4723 33.5619 29.7509 34.4603 30.3093C35.1273 30.7385 35.6581 31.3491 35.9903 32.0693C36.4161 31.362 37.0105 30.7711 37.7203 30.3494C38.6801 29.7756 39.7824 29.4844 40.9003 29.5093C41.5925 29.4752 42.2842 29.5837 42.9327 29.828C43.5812 30.0723 44.1726 30.4471 44.6703 30.9293C45.6395 32.0287 46.1355 33.4662 46.0503 34.9293V42.3494L44.3103 42.4093ZM84.3703 27.2194C84.0422 27.2237 83.7258 27.0979 83.4903 26.8694C83.372 26.7577 83.2781 26.6227 83.2144 26.473C83.1507 26.3233 83.1187 26.1621 83.1203 25.9994C83.1243 25.7556 83.199 25.5182 83.3352 25.316C83.4714 25.1139 83.6634 24.9555 83.8878 24.8602C84.1122 24.765 84.3594 24.7369 84.5995 24.7793C84.8396 24.8217 85.0622 24.9329 85.2403 25.0994C85.3609 25.2114 85.4562 25.3478 85.52 25.4995C85.5838 25.6512 85.6146 25.8148 85.6103 25.9794C85.6121 26.1412 85.5811 26.3017 85.5192 26.4512C85.4573 26.6007 85.3659 26.7361 85.2503 26.8494C85.1361 26.9733 84.9967 27.0713 84.8415 27.1368C84.6862 27.2024 84.5188 27.234 84.3503 27.2294L84.3703 27.2194Z" fill="#BD9F7C"/>
<path d="M52.1796 37.7407C51.7604 37.4669 51.2857 37.2892 50.7896 37.2207C50.6107 37.2555 50.4448 37.3385 50.3096 37.4607L50.0996 37.6107L50.2196 37.8307C50.3096 38.0107 50.4096 38.1907 50.5296 38.2307C51.3737 38.4802 52.1526 38.9122 52.8111 39.4963C53.4695 40.0805 53.9913 40.8024 54.3396 41.6107V39.8007C53.7279 39.0088 52.9996 38.3143 52.1796 37.7407Z" fill="white"/>
<path d="M42.2996 38.9707V37.9707C42.126 38.1246 41.9905 38.3167 41.9038 38.5319C41.817 38.747 41.7813 38.9794 41.7996 39.2107L42.2996 38.9707Z" fill="white"/>
<path d="M41.6996 39.3794H41.6396C41.5933 39.3709 41.5458 39.3709 41.4996 39.3794C41.3196 39.3794 41.1296 39.4993 40.9496 39.5693H40.8096L40.9396 39.7193C41.043 39.8677 41.1847 39.9851 41.3496 40.0593H41.4896C41.519 40.0618 41.5486 40.0577 41.5763 40.0473C41.604 40.037 41.629 40.0206 41.6496 39.9994C41.7496 39.8994 41.7396 39.6794 41.7296 39.4894C41.7311 39.4505 41.7206 39.4121 41.6996 39.3794Z" fill="white"/>
<path d="M52.0702 31.8503C52.1069 31.7331 52.116 31.6089 52.097 31.4875C52.0779 31.3662 52.0311 31.2508 51.9602 31.1504C51.9091 31.075 51.8407 31.0129 51.7606 30.9694C51.6806 30.9259 51.5913 30.9023 51.5002 30.9004C51.348 30.9182 51.2014 30.9684 51.0702 31.0477C50.9391 31.1271 50.8266 31.2337 50.7402 31.3604C50.8547 31.5284 51.0026 31.6711 51.1746 31.7795C51.3467 31.8879 51.5392 31.9597 51.7402 31.9904C51.8026 31.9969 51.8656 31.9875 51.9233 31.963C51.981 31.9385 52.0316 31.8997 52.0702 31.8503Z" fill="white"/>
<path d="M51.9395 47.1608C51.9395 47.2908 51.8695 47.4308 51.8295 47.5608L52.0195 47.7208L52.2295 47.5908C52.3995 47.4908 52.5695 47.3809 52.5895 47.2609C52.7974 46.2379 52.9377 45.2022 53.0095 44.1608C53.0118 43.6809 52.8802 43.21 52.6295 42.8008C52.1547 41.9799 51.5804 41.2209 50.9195 40.5408C50.0723 39.8905 49.075 39.4641 48.0195 39.3008V40.1608H48.2295L48.7595 40.2408H48.8295C48.9325 40.2538 49.0366 40.2538 49.1395 40.2408H49.3595C49.4601 40.5839 49.6601 40.8896 49.9341 41.1191C50.2082 41.3487 50.5441 41.492 50.8995 41.5309C51.0104 41.5746 51.1111 41.6407 51.1954 41.725C51.2797 41.8093 51.3458 41.91 51.3895 42.0209C51.5595 42.5809 51.7295 43.1408 51.8895 43.6908C52.0495 44.2408 52.2095 44.8208 52.3895 45.3708C52.4662 45.5337 52.4929 45.7156 52.4662 45.8936C52.4395 46.0716 52.3606 46.2377 52.2395 46.3708C52.0924 46.6138 51.9908 46.8814 51.9395 47.1608Z" fill="white"/>
<path d="M47.0697 30.3809H46.7197C46.9598 30.7224 47.1642 31.0876 47.3297 31.4708L49.9597 31.3508C49.5797 30.7408 48.5097 30.3809 47.0697 30.3809Z" fill="white"/>
<path d="M47.6399 50.8802H47.9299C49.202 50.7942 50.3932 50.2254 51.2599 49.2902C51.3735 49.1583 51.4526 49.0002 51.4899 48.8302C51.5121 48.752 51.5388 48.6753 51.5699 48.6002L51.3899 48.4102C51.2497 48.4658 51.106 48.5126 50.9599 48.5502C50.6396 48.6319 50.3353 48.7672 50.0599 48.9502C49.3648 49.4883 48.5089 49.7771 47.6299 49.7703C46.9264 49.7488 46.2294 49.6275 45.5599 49.4102C44.8953 49.2606 44.2953 48.9042 43.846 48.3921C43.3968 47.88 43.1216 47.2386 43.0599 46.5602C42.8797 45.6524 42.8797 44.718 43.0599 43.8102C42.8283 43.6014 42.6421 43.3472 42.5131 43.0634C42.3841 42.7795 42.3149 42.4719 42.3099 42.1602C41.9037 42.7798 41.647 43.4855 41.5602 44.2213C41.4735 44.9572 41.5589 45.7031 41.8099 46.4003C42.1578 47.682 42.9164 48.8141 43.9694 49.6233C45.0225 50.4325 46.3119 50.8741 47.6399 50.8802Z" fill="white"/>
<path d="M48.63 37.7105L48.89 37.7904C48.98 37.7104 49.09 37.6404 49.2 37.5604C49.31 37.4804 49.69 37.2104 49.7 37.0404C49.7102 36.9675 49.7047 36.8932 49.6841 36.8225C49.6634 36.7518 49.6279 36.6864 49.58 36.6305C49.4837 36.5502 49.3717 36.491 49.2511 36.4565C49.1306 36.4221 49.0042 36.4132 48.88 36.4304H48.37C48.242 36.4263 48.1149 36.4539 48 36.5105V37.4104C48.1879 37.5514 48.4021 37.6535 48.63 37.7105Z" fill="white"/>
<path d="M49.0704 33.6596C48.7704 33.6596 48.4604 33.7396 48.0704 33.7896H47.9404V34.0197C48.8595 34.5314 49.8889 34.8127 50.9404 34.8396C51.2013 34.8429 51.4621 34.8261 51.7204 34.7896V34.8396C51.7485 35.1658 51.9015 35.4687 52.1474 35.6848C52.3934 35.901 52.7133 36.0137 53.0404 35.9996C53.1904 35.9996 53.3304 36.1596 53.4504 36.2896L53.5404 36.3797L53.7204 36.6096C53.8004 36.7396 53.9004 36.8697 53.9904 36.8797H54.0704H54.2204V35.9696L53.6804 35.5696C53.235 35.1094 52.6385 34.8254 52.0004 34.7697H51.8204C51.7671 34.7589 51.7166 34.7374 51.6719 34.7064C51.6272 34.6755 51.5893 34.6357 51.5604 34.5896C51.3281 34.2566 51.0135 33.9894 50.6472 33.8141C50.2809 33.6388 49.8755 33.5615 49.4704 33.5896L49.0704 33.6596Z" fill="white"/>
<path d="M60.0101 39.5V39.6899C60.9637 41.908 61.3007 44.3425 60.9857 46.7362C60.6706 49.1299 59.7152 51.3941 58.2201 53.2899C57.0051 54.919 55.4272 56.2426 53.6115 57.1556C51.7959 58.0687 49.7924 58.546 47.7601 58.5499C46.7526 58.5408 45.7482 58.4371 44.7601 58.24C39.2101 57.12 35.5702 53.76 34.2302 48.51C33.8438 47.0089 33.6853 45.4581 33.7601 43.9099C33.4292 43.6503 33.1766 43.3042 33.0302 42.9099C32.5641 46.018 33.0742 49.1942 34.4901 52C35.5505 54.0467 37.119 55.7866 39.0452 57.0526C40.9715 58.3187 43.1908 59.0684 45.4901 59.23C46.184 59.3087 46.8818 59.3487 47.5801 59.35C50.2804 59.3915 52.9414 58.7003 55.2802 57.35C57.1846 56.2644 58.7853 54.7173 59.9352 52.851C61.085 50.9846 61.747 48.8591 61.8601 46.6699C62.1366 44.079 61.7762 41.4598 60.8102 39.0399L60.7101 38.9199L60.0101 39.5Z" fill="white"/>
<path d="M64.1798 44.0195L63.0098 51.6794C63.9782 50.6835 64.6114 49.4101 64.8212 48.0369C65.0309 46.6636 64.8067 45.2592 64.1798 44.0195Z" fill="white"/>
<path d="M33.4801 55.8705C35.3689 58.3141 37.8701 60.215 40.7301 61.3805C42.8018 62.3282 45.052 62.8225 47.3301 62.8304C49.9645 62.7693 52.5544 62.1379 54.9212 60.9795C57.2881 59.8211 59.3757 58.1634 61.0401 56.1205C61.9726 55.0291 62.5238 53.6634 62.6101 52.2305L61.9101 53.1005C61.3701 53.7705 60.8502 54.4105 60.3102 55.0305C57.5402 58.1905 54.7701 60.0305 51.5901 60.8505C50.136 61.2242 48.6416 61.419 47.1402 61.4304C43.3299 61.419 39.6595 59.9936 36.8401 57.4304C35.8603 56.5439 34.9383 55.5953 34.0801 54.5905L32.9101 53.2904C32.7901 53.1704 32.6801 53.0305 32.5401 52.8705C32.4896 52.7957 32.4327 52.7254 32.3701 52.6604C32.3465 53.8284 32.7401 54.9666 33.4801 55.8705Z" fill="white"/>
<path d="M27.9497 51.2104C29.1709 54.8556 31.2731 58.1429 34.0697 60.7805C36.9684 63.3248 40.577 64.9196 44.4097 65.3505C45.4413 65.4808 46.4799 65.5476 47.5197 65.5504C51.9779 65.5795 56.3277 64.1774 59.9297 61.5504C62.9297 59.4104 65.0597 56.2704 66.5197 51.9404C66.5677 51.6929 66.547 51.437 66.4597 51.2004C66.4597 51.0904 66.4597 50.9805 66.3897 50.8705H66.2097L65.6597 52.0504C65.2597 52.9204 64.8497 53.8204 64.3697 54.6604C63.0058 57.2709 61.0103 59.4987 58.5649 61.1405C56.1196 62.7824 53.3023 63.7862 50.3697 64.0604C49.1449 64.2051 47.913 64.2818 46.6797 64.2904C44.2117 64.3378 41.7605 63.8748 39.4797 62.9304C36.7517 61.8056 34.3379 60.0347 32.4461 57.7701C30.5543 55.5055 29.2412 52.8151 28.6197 49.9304L28.5497 49.6505L28.4897 49.3605C28.4897 49.3605 28.4897 49.2805 28.4397 49.2305C28.1613 49.4679 27.9643 49.7866 27.8764 50.1417C27.7885 50.4969 27.8142 50.8706 27.9497 51.2104Z" fill="white"/>
<path d="M42.3003 35.8199V35.08C42.3059 34.97 42.3059 34.8599 42.3003 34.75C41.5696 35.0713 40.8756 35.4702 40.2303 35.9399C39.6204 36.4038 39.0637 36.9338 38.5703 37.52V39.22C38.8843 38.7311 39.2389 38.2694 39.6303 37.84C40.3997 37.0205 41.3025 36.3375 42.3003 35.8199Z" fill="white"/>
<path d="M29.9902 47.8302C30.2902 49.2502 30.6902 50.6502 30.9902 51.7202C31.0516 51.8253 31.1354 51.9157 31.2356 51.9849C31.3359 52.054 31.4501 52.1002 31.5702 52.1202C31.7502 52.0702 31.9402 51.8402 32.1102 51.4602C32.1602 51.3602 32.1102 51.1703 32.0102 51.0103V50.9502C31.1511 49.0695 30.7337 47.0171 30.7902 44.9502C30.7965 44.9071 30.7965 44.8633 30.7902 44.8202V44.7402C30.4442 45.1684 30.1938 45.6657 30.0558 46.1986C29.9178 46.7316 29.8955 47.2879 29.9902 47.8302Z" fill="white"/>
<path d="M54.86 43.5996C55.0833 44.9753 54.9433 46.3854 54.454 47.6904C53.9646 48.9954 53.1428 50.1499 52.07 51.0396C51.861 51.222 51.6762 51.4303 51.52 51.6595L51.27 51.9796L50.35 52.1096C49.66 52.2096 48.94 52.3096 48.23 52.3496H47.64C46.9414 52.3453 46.2437 52.3019 45.55 52.2196C45.01 52.2196 44.48 52.0696 43.91 51.9596L43.07 51.8096C43.14 50.7496 42.39 50.3997 41.6 50.0197C41.2479 49.8687 40.9127 49.6809 40.6 49.4596C40.5801 50.0765 40.7821 50.6801 41.1692 51.1608C41.5564 51.6415 42.103 51.9675 42.71 52.0796C43.0147 52.1687 43.2951 52.3259 43.53 52.5396C44.6806 53.4076 46.0888 53.8654 47.53 53.8396C48.4937 53.8632 49.4474 53.6394 50.3 53.1896C50.4244 53.1178 50.5417 53.034 50.65 52.9396C50.77 52.8496 50.89 52.7596 51.02 52.6796C51.15 52.5996 51.58 52.3997 51.85 52.2697L52.2 52.0996L52.53 51.9596C52.7593 51.8988 52.9715 51.7859 53.15 51.6296C54.1304 50.6949 54.904 49.5648 55.4207 48.3126C55.9374 47.0604 56.1859 45.7138 56.15 44.3596C55.6464 44.2595 55.1916 43.9915 54.86 43.5996Z" fill="white"/>
<path d="M39.3396 33.741C39.5696 33.551 39.8096 33.3809 40.0496 33.2109C39.7006 33.2698 39.3808 33.442 39.1396 33.7009C39.0048 33.8424 38.8934 34.0044 38.8096 34.1809L39.3396 33.741Z" fill="white"/>
<path d="M40.5903 40.8191L40.6802 40.5391C40.1764 40.7646 39.7446 41.1249 39.4323 41.5801C39.12 42.0353 38.9393 42.5679 38.9102 43.1191C38.7956 44.2288 38.7788 45.3465 38.8602 46.4591C38.9565 47.0836 39.1703 47.6842 39.4902 48.2291V48.3291C39.6074 48.4601 39.7604 48.554 39.9302 48.5991L40.1502 48.6991C40.1808 48.6132 40.2176 48.5297 40.2602 48.4491C40.3804 48.2755 40.4465 48.0702 40.4503 47.8591C40.384 47.5502 40.2868 47.2486 40.1602 46.9591C40.0539 46.7153 39.9637 46.4648 39.8903 46.2091C39.5975 44.5858 39.7638 42.9131 40.3703 41.3792C40.4603 41.1992 40.5203 41.0291 40.5903 40.8191Z" fill="white"/>
<path d="M64.96 93.8694C64.5066 94.3068 63.9708 94.6496 63.3836 94.8779C62.7965 95.1063 62.1698 95.2155 61.54 95.1993C61.2054 95.2014 60.8711 95.178 60.54 95.1294H60.11H59.51H59.1H58.91C58.837 95.1392 58.763 95.1392 58.69 95.1294H58.58C58.1936 95.0165 57.7925 94.9625 57.39 94.9694C56.9686 94.9745 56.5479 95.0045 56.13 95.0593C55.72 95.0593 55.29 95.1494 54.86 95.1494C54.585 95.1527 54.3104 95.1292 54.04 95.0793C53.8807 95.0347 53.7313 94.96 53.6 94.8594L53.41 94.7294H53.35H53.4L53.54 94.5894C53.6459 94.4782 53.7596 94.3747 53.88 94.2794L54.18 94.1094C54.3409 94.0526 54.4829 93.9522 54.59 93.8193C54.807 93.5217 55.0818 93.2709 55.398 93.0819C55.7141 92.8929 56.0651 92.7696 56.43 92.7194C56.6367 92.6511 56.8524 92.614 57.07 92.6094C57.1559 92.6029 57.2422 92.6147 57.3232 92.644C57.4042 92.6733 57.4781 92.7195 57.54 92.7794C57.7 92.9594 57.74 93.2694 57.68 93.7794C57.6741 93.8793 57.6741 93.9794 57.68 94.0793C57.68 94.1293 57.68 94.1794 57.68 94.2394L58.22 93.7794C59.1241 93.2026 59.8238 92.3559 60.22 91.3594L59.63 91.6294C59.0579 91.9109 58.4623 92.1417 57.85 92.3193H57.58C57.343 92.3121 57.1078 92.2752 56.88 92.2094C56.6931 92.1583 56.5025 92.1215 56.31 92.0994C55.68 92.0494 54.95 91.9794 54.23 91.9794H54.07C54.01 91.9794 53.92 92.1693 53.84 92.3193L53.72 92.5493L54.72 92.8293L54.64 92.8894C54.3464 93.1414 54.0691 93.4119 53.81 93.6993C53.3019 94.3713 52.578 94.8479 51.76 95.0493C51.486 95.0984 51.2084 95.1252 50.93 95.1294C50.4091 95.1266 49.8946 95.0141 49.42 94.7993C49.2038 94.7138 48.9725 94.6729 48.74 94.6793C48.2623 94.6973 47.7887 94.7745 47.33 94.9093C47.25 94.9093 47.21 95.3594 47.19 95.6194C47.17 95.8794 47.19 95.9293 47.19 96.0593L47.47 96.1593L47.4 96.2194L46.93 96.5294C46.6056 96.7357 46.2949 96.9627 46 97.2094H46.9H47.07L47.2 97.0593C47.4362 96.7581 47.6971 96.4771 47.98 96.2194C48.3541 95.9174 48.8314 95.7738 49.31 95.8193H49.75H50.22H50.46C50.5252 95.8112 50.5913 95.8177 50.6536 95.8385C50.7159 95.8593 50.7728 95.8937 50.82 95.9393C50.91 96.0593 50.89 96.2394 50.82 96.5094H50.87C51.4548 96.4772 52.0297 96.3453 52.57 96.1194C53.0975 95.8987 53.659 95.7702 54.23 95.7394C54.4988 95.7378 54.7659 95.7818 55.02 95.8694H55.08C54.7939 96.3123 54.4395 96.7071 54.03 97.0393L54.87 96.9293L55.41 96.8594C55.8464 96.4391 56.4158 96.1845 57.02 96.1394C57.3199 96.1449 57.6143 96.2202 57.88 96.3594H57.94V96.4093C60.5202 95.9503 63.0586 95.2814 65.53 94.4093C65.6163 94.0648 65.7369 93.7298 65.89 93.4093L65.67 93.4694C65.4026 93.5388 65.1579 93.6766 64.96 93.8694Z" fill="white"/>
<path d="M68.3598 93.4504L68.5998 93.3304H68.6898C68.567 93.3267 68.4457 93.3579 68.3398 93.4203L68.3598 93.4504Z" fill="white"/>
<path d="M40.8196 26.4902C41.8196 26.2702 42.8196 26.0502 43.8196 25.8702C44.4496 25.7602 45.0896 25.7002 45.7096 25.6302C46.1296 25.6302 46.5696 25.5502 46.9996 25.4902C47.1754 25.4482 47.3463 25.3878 47.5096 25.3102L47.6896 25.2202L47.5796 24.9802C47.4896 24.7702 47.3896 24.5602 47.2496 24.5002C46.7646 24.3297 46.2536 24.2451 45.7396 24.2502C43.862 24.2801 42.0326 24.8495 40.4696 25.8902C40.2347 26.0547 40.0169 26.2422 39.8196 26.4502L39.5596 26.6902V26.7602L40.8196 26.4902Z" fill="white"/>
<path d="M47.2796 47.7097C48.0146 47.6677 48.7112 47.3679 49.2471 46.8632C49.783 46.3584 50.1238 45.6809 50.2096 44.9497C50.1847 44.3121 49.912 43.7094 49.4496 43.2698C49.0371 42.8667 48.5272 42.5772 47.9696 42.4297C47.9448 42.659 47.8805 42.8823 47.7796 43.0897C47.9796 43.1438 48.1654 43.2406 48.3242 43.3735C48.4831 43.5065 48.6112 43.6724 48.6996 43.8597L48.7496 43.9497L47.2496 43.7997C46.8365 44.1763 46.2986 44.3866 45.7396 44.3898H44.7396C44.6796 44.608 44.6494 44.8333 44.6496 45.0597C44.6456 45.4071 44.7108 45.7519 44.8413 46.0739C44.9718 46.3959 45.165 46.6887 45.4098 46.9353C45.6545 47.1819 45.9459 47.3774 46.2669 47.5104C46.5879 47.6433 46.9321 47.7111 47.2796 47.7097ZM46.1296 45.5797V45.5098H46.1996C46.6132 45.7914 47.0993 45.9476 47.5996 45.9597C47.9537 45.9602 48.3007 45.8596 48.5996 45.6697L48.6796 45.5997V45.7097C48.6659 45.8782 48.6185 46.0422 48.5402 46.192C48.4618 46.3418 48.3541 46.4744 48.2235 46.5817C48.0928 46.689 47.9419 46.7689 47.7798 46.8167C47.6176 46.8644 47.4475 46.8791 47.2796 46.8597C47.1101 46.8704 46.9404 46.8447 46.7817 46.7843C46.623 46.7239 46.4791 46.6304 46.3596 46.5098C46.1751 46.2368 46.0936 45.9072 46.1296 45.5797Z" fill="white"/>
<path d="M25.6196 90.4994L25.1996 90.7494L25.0996 90.8193L25.2996 90.9393L25.5696 91.0994L25.9596 90.4594L25.8296 90.3594L25.6196 90.4994Z" fill="white"/>
<path d="M52.0702 92.0703C51.7902 92.0703 51.5102 92.2803 51.2402 92.7003H52.9302C52.6702 92.2803 52.3802 92.0703 52.0702 92.0703Z" fill="white"/>
<path d="M56.9103 86.59L56.8203 86.7L56.9803 86.84C57.0946 86.9675 57.2443 87.058 57.4103 87.1C57.8203 87.1 58.2703 86.4999 58.3203 85.9199L57.9903 86.02C57.7109 86.0985 57.437 86.1953 57.1703 86.3099C57.0674 86.3867 56.9793 86.4817 56.9103 86.59Z" fill="white"/>
<path d="M82.3095 83.2605L82.0795 83.1704C81.8931 83.0788 81.6944 83.0148 81.4895 82.9805H81.2795C81.0595 82.9805 80.8995 82.9805 80.8595 83.0905C80.8147 83.1495 80.7841 83.2181 80.7702 83.291C80.7563 83.3639 80.7595 83.4391 80.7795 83.5105C80.8232 83.5952 80.8854 83.6688 80.9616 83.726C81.0378 83.7831 81.126 83.8223 81.2195 83.8405L81.9795 84.0704L82.3595 84.1804L82.6495 83.9204C82.7495 83.8304 82.8695 83.7305 82.9695 83.6205L82.8595 83.5604C82.6842 83.4464 82.5003 83.3462 82.3095 83.2605Z" fill="white"/>
<path d="M79.1396 82.2891H79.0696C78.9692 82.3026 78.8732 82.3383 78.7884 82.3937C78.7036 82.449 78.6323 82.5227 78.5796 82.6091C78.5686 82.6999 78.5782 82.7919 78.6077 82.8784C78.6371 82.965 78.6856 83.0439 78.7496 83.1091C78.992 83.3319 79.3104 83.4535 79.6396 83.4491C79.9264 83.4412 80.21 83.3872 80.4796 83.2891C80.1196 82.7391 79.7696 82.2891 79.1396 82.2891Z" fill="white"/>
<path d="M78.41 85.7806C77.8402 85.6408 77.2792 85.4671 76.73 85.2606C76.392 85.1115 76.104 84.8685 75.9 84.5605C75.4897 84.6542 75.0708 84.7045 74.65 84.7106C73.9778 84.7207 73.3208 84.51 72.78 84.1106H72.73H72.79C73.0561 83.9558 73.3631 83.8859 73.67 83.9105H74.07C74.2912 83.9416 74.5168 83.9093 74.7204 83.8173C74.9239 83.7252 75.0972 83.5773 75.22 83.3906C74.6888 83.1069 74.0919 82.9688 73.49 82.9906C73.0719 82.9953 72.6545 83.0254 72.24 83.0806C71.82 83.0806 71.4 83.1705 70.98 83.1705C70.7736 83.1861 70.5664 83.1861 70.36 83.1705H70.3V83.1106C70.77 82.1106 71.35 81.6705 72.12 81.6705C72.5299 81.6865 72.9333 81.778 73.31 81.9406C74.8258 82.5161 76.4391 82.7912 78.06 82.7506L78.12 82.5806L77.22 82.2006C76.47 81.8806 75.69 81.5606 74.95 81.2006C74.5694 80.9954 74.2137 80.7471 73.89 80.4606L73.39 80.0706H73.34C73.4971 79.8889 73.695 79.7471 73.9175 79.6567C74.14 79.5664 74.3807 79.5299 74.62 79.5505H75.3C75.4983 79.5536 75.6963 79.5335 75.89 79.4906L74.89 78.9606C74.9208 78.8876 74.9576 78.8174 75 78.7506C75.17 78.4906 75.23 78.2906 75.17 78.1406C75.11 77.9906 74.93 77.8906 74.64 77.8406L73.38 77.5806L72.6 77.4205V77.3506L72.83 77.0405C72.9968 76.8475 73.141 76.6362 73.26 76.4105C73.3161 76.2605 73.3399 76.1004 73.33 75.9406V75.7706H73.17C72.9819 75.7909 72.795 75.8209 72.61 75.8606C72.61 75.8606 72.5 75.9606 72.46 76.0306C72.1728 76.5467 71.752 76.9758 71.2417 77.2732C70.7315 77.5706 70.1506 77.7251 69.56 77.7206H69.17V77.9006L70.17 78.3306L70.11 78.7106C70.2228 78.7258 70.3372 78.7258 70.45 78.7106C70.7192 78.6994 70.9854 78.6488 71.24 78.5605C71.5061 78.4769 71.7815 78.4265 72.06 78.4105C72.2553 78.4029 72.4494 78.4447 72.6242 78.5321C72.799 78.6195 72.9489 78.7497 73.06 78.9105C72.8067 79.3656 72.4393 79.7469 71.994 80.017C71.5486 80.287 71.0406 80.4364 70.52 80.4506C70.2666 80.4518 70.0142 80.4182 69.77 80.3506C69.5959 80.2808 69.4365 80.179 69.3 80.0505L69.22 79.9806C69.1069 79.8755 68.9633 79.8089 68.81 79.7905C68.68 79.7905 68.57 79.8806 68.45 80.0706C68.3968 80.154 68.3248 80.2237 68.2396 80.274C68.1545 80.3244 68.0587 80.3541 67.96 80.3606C67.66 80.3606 67.34 80.3606 66.96 80.3606H65.64V80.2806C66.3169 79.2411 67.2279 78.3746 68.3 77.7506L68.51 77.6106C68.139 77.5294 67.7597 77.4925 67.38 77.5006C67.09 77.5006 66.79 77.5006 66.51 77.5006H65.65C64.9237 77.5368 64.203 77.3557 63.58 76.9806C63.58 77.7206 63.86 78.0705 64.42 78.1605C64.7845 78.2141 65.1518 78.2476 65.52 78.2606H66.01H66.07C65.83 79.5706 64.72 80.2606 62.76 80.2606C62.2617 80.2592 61.764 80.2257 61.27 80.1605H61.19L63 77.8105C62.877 77.6682 62.7227 77.5563 62.5492 77.4834C62.3757 77.4105 62.1878 77.3788 62 77.3906H61.54C61.3768 77.4006 61.2132 77.4006 61.05 77.3906C60.8904 77.4075 60.7295 77.4075 60.57 77.3906H60.51V77.3306C60.8238 76.6795 61.3048 76.1236 61.9039 75.7195C62.5031 75.3154 63.1988 75.0777 63.92 75.0306C64.53 75.0306 65.17 74.9706 65.92 74.9706H67.49H69.1L69.22 75.2706L68.59 76.3406L68.87 76.1906C69.9509 75.4791 71.1911 75.0462 72.48 74.9305H72.99L72.9 74.1406C72.8379 73.439 72.7377 72.7413 72.6 72.0505C72.55 71.8005 72.18 71.5406 71.84 71.3906C71.7312 71.3674 71.6188 71.3674 71.51 71.3906H71.21H70.74H70.63L70.7 71.3105L71 70.9706C71.1343 70.7965 71.2813 70.6328 71.44 70.4806C71.6947 70.3021 71.8842 70.0453 71.9798 69.7494C72.0755 69.4534 72.072 69.1344 71.97 68.8406C71.73 68.1806 71.26 68.0505 70.62 68.0505H70.34L70.63 67.7306C70.78 67.5506 70.94 67.3806 71.1 67.2006C71.3018 67.0341 71.4447 66.8072 71.5078 66.5533C71.5708 66.2995 71.5505 66.032 71.45 65.7905C71.3865 65.6311 71.2708 65.4979 71.1219 65.4126C70.973 65.3273 70.7997 65.2948 70.63 65.3206H70.23C70.0397 65.3124 69.8514 65.2788 69.67 65.2206L69.43 65.1506H69.36V65.0906C69.407 65.0195 69.4504 64.9461 69.49 64.8706C69.5788 64.694 69.6897 64.5294 69.82 64.3806C69.9496 64.2497 70.0865 64.1261 70.23 64.0106C70.4154 63.8751 70.5833 63.7172 70.73 63.5405C70.9 63.3305 71.05 62.9405 70.97 62.8005C70.8875 62.6639 70.7772 62.5461 70.6463 62.4548C70.5154 62.3635 70.3667 62.3008 70.21 62.2706H70.02C69.7706 62.2793 69.5227 62.3128 69.28 62.3706L68.87 62.4406L68.69 62.2306L68.92 61.9305C69.1 61.7105 69.28 61.4806 69.48 61.2706C69.5664 61.1829 69.6601 61.1027 69.76 61.0306C69.8998 60.9439 70.0192 60.8278 70.11 60.6906C70.2702 60.4233 70.3337 60.1091 70.29 59.8005C70.2268 59.6723 70.134 59.561 70.0192 59.4758C69.9044 59.3906 69.771 59.3339 69.63 59.3105H69.32C68.8 59.3105 68.32 59.3106 67.72 59.3806L66.98 59.4305L67.36 60.1906C67.36 60.3406 67.27 60.4806 67.23 60.6206C67.1297 60.8987 67.0462 61.1825 66.98 61.4706C66.82 62.2706 66.57 62.5306 65.98 62.5306H65.61C65.4 62.5306 65.19 62.5306 64.98 62.5306C64.7132 62.5136 64.4472 62.5733 64.2133 62.7026C63.9794 62.832 63.7874 63.0256 63.66 63.2606L64.66 63.5505L64.88 63.8005H64.82H64.68L64.42 63.9006C60.3205 66.2338 55.956 68.0668 51.42 69.3606C49.8663 69.7899 48.2619 70.0085 46.65 70.0106C43.4714 69.9561 40.3438 69.2014 37.49 67.8005C35.88 67.0505 34.31 66.1306 32.78 65.2506C32.06 64.8306 31.32 64.3906 30.58 63.9806C30.32 63.8406 30.06 63.7206 29.79 63.5906L29.44 63.4305C29.342 63.6512 29.3173 63.8976 29.3695 64.1333C29.4217 64.369 29.548 64.5819 29.73 64.7406C29.8156 64.8464 29.8957 64.9565 29.97 65.0706V65.1306L29.12 65.2406L27.01 65.5006H26.89C26.7301 65.4983 26.5716 65.4713 26.42 65.4205C26.2573 65.3669 26.119 65.257 26.03 65.1106C26.03 65.0106 26.09 64.8906 26.18 64.7706L26.23 64.7006C26.2825 64.6407 26.3473 64.5929 26.42 64.5605C26.72 64.4105 27.06 64.2406 27.13 63.9706C27.1433 63.862 27.1342 63.7519 27.1032 63.647C27.0722 63.5421 27.0201 63.4446 26.95 63.3606C26.771 63.0961 26.5355 62.8746 26.2605 62.712C25.9856 62.5495 25.678 62.4499 25.36 62.4205C25.1972 62.4178 25.0373 62.463 24.9 62.5505C24.8183 62.6208 24.7535 62.7085 24.7102 62.8071C24.667 62.9058 24.6464 63.0129 24.65 63.1206C24.65 63.1206 24.81 63.2806 25.18 63.3706L25.48 63.4406C25.7172 63.4842 25.9487 63.5548 26.17 63.6506H26.23H26.18C25.9 63.9306 25.59 64.1906 25.29 64.4506C24.1451 65.2139 23.3252 66.376 22.99 67.7106L23.66 67.1605C24.2235 66.519 25.0027 66.1063 25.85 66.0006C26.2883 66.0138 26.7142 66.1489 27.08 66.3906H27.14H27.09L26.62 66.8906C26.27 67.2606 25.94 67.6106 25.62 67.8906C25.2707 68.2188 24.8093 68.4013 24.33 68.4006C24.0787 68.3975 23.8294 68.357 23.59 68.2806C23.474 68.2632 23.356 68.2632 23.24 68.2806H22.91H22.62L22.56 68.6106L22.8 68.6906C22.986 68.7773 23.1856 68.8315 23.39 68.8506C23.73 68.8506 23.94 68.9306 24.01 69.0806C24.08 69.2306 24.01 69.3806 23.85 69.6006C23.5527 69.9502 23.2173 70.2654 22.85 70.5405L22.54 70.7905C22.2672 70.9666 22.0549 71.222 21.9315 71.5223C21.8082 71.8227 21.7797 72.1536 21.85 72.4706C22.5677 71.8594 23.4879 71.5384 24.43 71.5706C24.8353 71.5735 25.2397 71.6069 25.64 71.6705H26.02C26.489 71.6545 26.9484 71.533 27.364 71.3148C27.7795 71.0967 28.1405 70.7875 28.42 70.4105C28.6318 70.0606 28.9234 69.7658 29.271 69.5503C29.6187 69.3348 30.0124 69.2046 30.42 69.1705C30.7901 69.1788 31.1545 69.2639 31.49 69.4205C31.1641 69.964 30.7065 70.4167 30.1594 70.7366C29.6123 71.0564 28.9935 71.2332 28.36 71.2506C28.96 72.0206 28.91 72.2506 28.13 72.8906C27.3903 73.5991 26.4225 74.0209 25.4 74.0806C24.9563 74.0777 24.5176 73.9858 24.11 73.8105C24.0209 73.7925 23.9291 73.7925 23.84 73.8105H23.57H23.48H23.15C22.7468 73.8302 22.3456 73.8804 21.95 73.9606C21.7558 74.0288 21.5785 74.138 21.43 74.2806L21.24 74.4305L22.01 75.1206H21.91C21.13 75.2506 20.91 75.9405 20.63 76.6805H20.7C21.0011 76.6846 21.2951 76.5887 21.5358 76.4077C21.7765 76.2267 21.9503 75.971 22.03 75.6805C22.1027 75.5196 22.2077 75.3754 22.3384 75.2567C22.4691 75.138 22.6228 75.0475 22.79 74.9906C23.7293 74.8316 24.678 74.7347 25.63 74.7006H27.24H29.8L29.01 76.3506L29.08 76.4506L29.62 76.0806L30.85 75.2506C31.2176 74.9621 31.6637 74.7913 32.13 74.7606C32.5931 74.7921 33.0358 74.9629 33.4 75.2506C33.21 75.4106 33.04 75.5906 32.86 75.7506C32.4884 76.1408 32.0643 76.4773 31.6 76.7506C31.1312 76.9569 30.6307 77.082 30.12 77.1206L29.37 77.2506L30.88 78.2506C31.1795 78.1997 31.4739 78.1228 31.76 78.0206C32.2651 77.84 32.7942 77.7355 33.33 77.7106C33.6513 77.7068 33.9704 77.7645 34.27 77.8806H34.33C33.9655 78.4463 33.4826 78.9261 32.9145 79.287C32.3465 79.6478 31.707 79.881 31.04 79.9706H30.96C30.6269 79.9281 30.3084 79.8083 30.03 79.6206C29.87 79.5306 29.69 79.4306 29.51 79.3506C28.9903 79.7639 28.3313 79.9609 27.67 79.9006H27.22C27.05 79.9006 26.68 79.7806 26.64 79.6206C26.626 79.5012 26.6385 79.3802 26.6765 79.2661C26.7145 79.1521 26.7772 79.0477 26.86 78.9606C27.31 78.5206 27.77 78.1106 28.31 77.6406L28.87 77.1406H28.16C27.55 77.1406 26.98 77.1405 26.4 77.0505C25.82 76.9605 25.4 76.9506 24.87 76.8806L24.2 76.7905C24.1588 76.8978 24.1427 77.0131 24.1531 77.1276C24.1635 77.242 24.2001 77.3525 24.26 77.4506C24.3603 77.5748 24.4889 77.6733 24.635 77.7377C24.7812 77.802 24.9406 77.8304 25.1 77.8206H26.89V77.8906C26.5933 78.5553 26.0967 79.1109 25.4693 79.4801C24.842 79.8493 24.1152 80.0138 23.39 79.9506C22.8384 79.9421 22.2889 79.8785 21.75 79.7606H21.67L23.73 77.2206H20.61C20.73 77.5706 21.02 77.6906 21.38 77.8506C21.6837 77.9628 21.9699 78.1176 22.23 78.3105H22.28H22.22L21.86 78.5505C21.59 78.7405 21.3 78.9306 21.03 79.1406C20.7832 79.3263 20.5701 79.5528 20.4 79.8105C20.3405 79.9013 20.304 80.0052 20.2936 80.1132C20.2831 80.2212 20.299 80.3301 20.34 80.4305C20.4019 80.5224 20.4852 80.5977 20.5828 80.65C20.6804 80.7023 20.7893 80.73 20.9 80.7306H21.16C21.4342 80.7263 21.708 80.7062 21.98 80.6705C22.1951 80.6364 22.4122 80.6164 22.63 80.6106C23.2 80.6106 23.31 80.8705 23.56 81.6605L24.07 81.3606C24.48 81.1306 24.91 80.8906 25.31 80.6106C25.5367 80.4377 25.8149 80.3461 26.1 80.3506C26.4006 80.3671 26.6971 80.4278 26.98 80.5306L27.2 80.5906C27.456 80.6704 27.7219 80.7141 27.99 80.7206H28.19L28.55 80.6605C28.9396 80.5899 29.3341 80.5498 29.73 80.5405C30.1769 80.534 30.62 80.6226 31.03 80.8005H31.1H31.04L30.51 81.2806C30.14 81.6206 29.79 81.9406 29.42 82.2806C28.424 82.9806 27.5803 83.8752 26.94 84.9105C26.6781 85.3378 26.2573 85.6436 25.77 85.7606C25.1586 85.865 24.5401 85.9218 23.92 85.9305H23.04H22.95V85.8606C23.2251 85.3517 23.6031 84.9055 24.06 84.5505C24.3822 84.3374 24.6533 84.0557 24.8538 83.7255C25.0544 83.3953 25.1794 83.0248 25.22 82.6406H24.69H24.34C24.03 82.6406 23.72 82.5506 23.42 82.4906L22.65 82.3706C22.4603 82.3564 22.2697 82.3564 22.08 82.3706C21.429 82.3497 20.7927 82.5665 20.29 82.9806C20.0487 83.2005 19.8831 83.491 19.8166 83.8107C19.7502 84.1303 19.7864 84.4628 19.92 84.7606C20.7084 84.2805 21.5748 83.942 22.48 83.7606C22.7697 83.7826 23.0472 83.8866 23.28 84.0605C22.53 85.0605 21.82 85.9406 20.66 85.9406C20.4092 85.9418 20.1596 85.9047 19.92 85.8306C19.9078 85.8852 19.8911 85.9388 19.87 85.9906C19.877 86.0134 19.877 86.0377 19.87 86.0605C20.029 86.1831 20.1474 86.3508 20.2099 86.5416C20.2723 86.7325 20.2758 86.9377 20.22 87.1306L20.91 87.6406C21.2272 87.2408 21.632 86.9192 22.0932 86.7007C22.5544 86.4822 23.0597 86.3728 23.57 86.3806C23.8683 86.3837 24.1659 86.4104 24.46 86.4606H24.52C24.1638 87.2543 23.6094 87.9431 22.91 88.4606L22.53 88.7905L23.05 89.1106L23.48 89.3606C24.1797 88.8875 24.7809 88.2829 25.25 87.5806C25.4335 87.239 25.7001 86.9491 26.0252 86.7377C26.3503 86.5262 26.7233 86.4 27.11 86.3706C27.6654 86.3999 28.1959 86.6106 28.62 86.9706C28.295 87.3114 27.9402 87.6227 27.56 87.9006C27.0546 88.2535 26.6032 88.6778 26.22 89.1605L29.36 89.3806V89.4506C29.1228 89.9164 28.7871 90.3249 28.3761 90.6478C27.9651 90.9708 27.4887 91.2003 26.98 91.3206C27.43 91.5606 27.9 91.7806 28.35 91.9906L28.79 92.1906H29.07C29.5567 92.1938 30.0408 92.2611 30.51 92.3906H30.58V92.4506L30.33 92.7106L30.2 92.8406L30.96 93.1605L31.83 92.1605H34.63V92.2306C34.274 92.9209 33.7559 93.5146 33.12 93.9606L34.2 94.3406C35.2 92.9706 35.88 92.3406 36.71 92.3406C37.1336 92.3593 37.546 92.483 37.91 92.7006H37.96L36.56 94.4105H34.17C36.0158 95.0365 37.8996 95.5442 39.81 95.9305C39.9521 95.7401 40.1382 95.587 40.3524 95.4843C40.5666 95.3815 40.8026 95.3322 41.04 95.3406C41.5324 95.365 42.0166 95.4767 42.47 95.6705H42.53C42.4931 95.7229 42.453 95.773 42.41 95.8206C42.3251 95.9128 42.2603 96.0219 42.22 96.1406V96.2206L42.6 96.2905L43.31 96.3906C43.3913 96.2675 43.4815 96.1504 43.58 96.0405C44.2492 95.4601 45.0869 95.1096 45.97 95.0405H46.15L46.43 94.9806H46.52C46.19 93.9106 46.18 93.2506 46.52 92.8306C46.86 92.4106 47.52 92.2106 48.69 92.2106H50.01C50.1058 92.2017 50.1988 92.1732 50.2831 92.1267C50.3675 92.0803 50.4413 92.0168 50.5 91.9406L48.94 91.5006C49.2789 90.8108 49.7884 90.2192 50.4202 89.7816C51.052 89.3441 51.7851 89.0752 52.55 89.0006C53.1765 88.9993 53.7802 89.235 54.24 89.6605L54.66 89.5106C54.9788 89.3754 55.3157 89.2878 55.66 89.2506H55.8C56.0901 89.2604 56.3783 89.3006 56.66 89.3706L57.04 89.4406C57.0884 89.3678 57.1205 89.2855 57.1343 89.1992C57.1481 89.113 57.1432 89.0248 57.12 88.9406C57.06 88.7906 56.88 88.7305 56.69 88.6705C56.5088 88.6264 56.345 88.529 56.22 88.3906C56.3191 88.2144 56.4649 88.0689 56.6413 87.9701C56.8177 87.8713 57.0179 87.823 57.22 87.8306C57.3897 87.8158 57.5603 87.8158 57.73 87.8306C57.8932 87.8406 58.0568 87.8406 58.22 87.8306C58.3492 87.8326 58.4777 87.8124 58.6 87.7706L58.74 88.0405L58.47 88.2406C58.2563 88.3702 58.0641 88.5321 57.9 88.7206C57.7049 88.9923 57.5812 89.3087 57.54 89.6406C58.0556 89.3824 58.6234 89.2456 59.2 89.2406C59.9742 89.2606 60.7282 89.4923 61.38 89.9105C61.4621 89.9309 61.5479 89.9309 61.63 89.9105C61.8321 89.9191 62.0307 89.8553 62.19 89.7306C62.2939 89.5868 62.4307 89.4699 62.5891 89.3899C62.7474 89.3099 62.9226 89.269 63.1 89.2706C63.3145 89.2733 63.5273 89.3104 63.73 89.3806H63.93H64.09C63.75 88.3806 64.39 87.8606 65 87.3806L65.22 87.2006C65.5643 86.8878 65.8489 86.5151 66.06 86.1006C66.06 86.0306 65.86 85.6606 65.81 85.6306H65.64C65.3088 85.6605 64.9964 85.7974 64.75 86.0206C64.5445 86.3446 64.2565 86.6079 63.9156 86.7837C63.5746 86.9594 63.193 87.0412 62.81 87.0206C62.5837 87.0387 62.3563 87.0387 62.13 87.0206H61.13L61.2 86.9406L61.82 86.2306C62.24 85.7506 62.63 85.3006 63.04 84.8706C63.45 84.4406 63.84 84.0406 64.31 83.5706L64.93 82.9606L64.49 82.8906L63.7 82.7506L62.84 82.5306L62.11 82.3406H61.92H61.73L59.11 82.5906L58.19 82.6906V82.6206C58.429 81.9388 58.8877 81.3558 59.4941 80.963C60.1004 80.5702 60.8201 80.3899 61.54 80.4506C62.036 80.4516 62.53 80.5155 63.01 80.6406H63.06L62.83 81.3706L63.29 81.2106C63.5803 81.1362 63.8525 81.0035 64.09 80.8206C64.3246 80.5857 64.6039 80.4001 64.9113 80.2748C65.2187 80.1494 65.548 80.0868 65.88 80.0906C66.3727 80.105 66.8609 80.1892 67.33 80.3406C67.4312 80.3702 67.535 80.3903 67.64 80.4006H67.73C68.0219 80.1966 68.3746 80.0978 68.73 80.1206C68.9331 80.1057 69.1369 80.1057 69.34 80.1206C69.54 80.1206 69.74 80.1206 69.94 80.1206H70.07C70.2309 80.144 70.3827 80.2095 70.51 80.3105C70.6024 80.3772 70.6993 80.4374 70.8 80.4906H70.86L67.78 83.4205L67.4 83.7806C67.1 84.0506 66.8 84.3406 66.51 84.6306C66.4212 84.7277 66.3562 84.8441 66.32 84.9706C66.4188 85.0859 66.552 85.1665 66.7 85.2006C67.0076 85.0993 67.2928 84.9398 67.54 84.7306L67.96 84.3306C68.397 83.7813 69.0127 83.4028 69.7 83.2606C69.8264 83.2499 69.9535 83.2499 70.08 83.2606C70.199 83.2388 70.321 83.2388 70.44 83.2606C70.5472 83.2883 70.6465 83.3408 70.7298 83.4137C70.8132 83.4866 70.8783 83.5779 70.92 83.6805C70.9328 83.78 70.9213 83.8812 70.8865 83.9752C70.8517 84.0693 70.7945 84.1535 70.72 84.2206C70.3996 84.6568 69.9852 85.0154 69.5074 85.2699C69.0297 85.5244 68.5008 85.6681 67.96 85.6906H67.48H67.43C67.3166 85.7004 67.2053 85.7275 67.1 85.7706H66.95V85.9105L68.1 86.1106L65.92 88.9906C65.9153 89.0017 65.9129 89.0136 65.9129 89.0256C65.9129 89.0377 65.9153 89.0495 65.92 89.0605C65.92 89.0605 66.07 89.1805 66.46 89.1805H66.72H67.05C67.2165 89.1701 67.3835 89.1701 67.55 89.1805C67.7427 89.1758 67.9339 89.217 68.1077 89.3004C68.2815 89.3839 68.4331 89.5072 68.55 89.6605L68.6 89.7306L67.21 89.8206V89.9105L68.16 90.2506C67.916 90.6791 67.5576 91.0313 67.125 91.2679C66.6923 91.5046 66.2024 91.6163 65.71 91.5906C65.2682 91.628 64.8321 91.7152 64.41 91.8506H64.54C64.73 91.9206 64.94 91.9805 65.13 92.0605L65.81 92.3606L66.19 92.5306C66.8083 92.154 67.5273 91.976 68.25 92.0206C68.7 92.0206 69.17 92.0206 69.67 92.1006L70.06 91.9205C70.43 91.7505 70.81 91.5706 71.18 91.3806H71.06C70.9053 91.327 70.7436 91.2966 70.58 91.2905C70.4188 91.2872 70.2616 91.3405 70.1356 91.4409C70.0096 91.5414 69.9227 91.6827 69.89 91.8406L69.61 91.7606C69.4396 91.7115 69.2726 91.6513 69.11 91.5806C68.994 91.526 68.8862 91.4553 68.79 91.3706L68.65 91.2606L68.76 91.1006C68.84 90.9606 68.92 90.8206 69.05 90.7806H69.13C69.4709 90.6581 69.8282 90.5873 70.19 90.5706H70.4C70.8041 90.6486 71.1971 90.7762 71.57 90.9506L71.95 91.1006C72.55 90.7706 73.14 90.4106 73.71 90.1006L74.2 89.8005L74.25 89.7306C74.3386 89.6101 74.4468 89.5053 74.57 89.4205C74.7188 89.3464 74.8769 89.2927 75.04 89.2606H75.11C75.76 88.8406 76.42 88.3905 77.11 87.9305L73.53 86.7806L73.6 86.7206C73.8408 86.5419 74.1072 86.4003 74.39 86.3005C74.95 86.0705 75.47 85.8505 75.53 85.0405V84.9706H75.6L76.1 85.1705C76.5 85.3205 76.87 85.4706 77.23 85.6306C77.3202 85.6697 77.4003 85.7286 77.4644 85.8031C77.5285 85.8776 77.5748 85.9656 77.6 86.0605C77.6 86.4705 77.6 86.9006 77.6 87.3506V87.5306L77.96 87.2606V87.1805C77.96 86.4405 78.19 86.1106 78.71 86.1106C78.8691 86.1128 79.0272 86.1363 79.18 86.1805H79.35L79.6 85.9806L80.08 85.5906L78.68 85.2306L78.41 85.7806ZM61.16 75.2406C60.7955 75.7873 60.3173 76.249 59.7582 76.5941C59.1991 76.9393 58.5721 77.1598 57.92 77.2406C57.5574 77.2363 57.2062 77.1134 56.92 76.8906H56.87L58.03 75.8206L57.87 75.5306C57.7399 75.4645 57.5959 75.4301 57.45 75.4305C57.0988 75.4611 56.7728 75.6259 56.54 75.8906C56.4 76.0206 56.27 76.1605 56.14 76.3005C55.9074 76.5549 55.6567 76.7923 55.39 77.0106C55.0758 77.2686 54.6951 77.4327 54.2918 77.484C53.8884 77.5353 53.4788 77.4717 53.11 77.3005H53.06C53.3792 76.545 53.9404 75.9171 54.6554 75.5153C55.3704 75.1134 56.1987 74.9605 57.01 75.0806C57.84 75.1706 58.71 75.1806 59.54 75.2006C59.93 75.2006 60.33 75.2006 60.72 75.2006H61H61.16H61.24L61.16 75.2406ZM49.07 82.9006L49.02 82.9606L48.22 83.7706C47.61 84.3906 47.04 84.9705 46.49 85.5605C46.2606 85.8266 45.9767 86.0402 45.6575 86.1869C45.3383 86.3335 44.9913 86.4097 44.64 86.4105H43.09L43.01 86.5405L43.84 87.1506C43.7357 87.7166 43.4445 88.2312 43.0129 88.6119C42.5814 88.9927 42.0345 89.2176 41.46 89.2506C40.9061 89.2328 40.3659 89.0744 39.89 88.7905H39.82H39.88C42.0926 86.8769 44.146 84.7867 46.02 82.5405C45.7847 82.6028 45.5568 82.69 45.34 82.8005L45.2 82.8706C44.7329 83.0878 44.2251 83.2037 43.71 83.2106C43.3345 83.2081 42.9623 83.1405 42.61 83.0106C42.4027 82.9304 42.1822 82.8897 41.96 82.8906C41.8435 82.8804 41.7264 82.8804 41.61 82.8906C40.99 83.036 40.3566 83.1165 39.72 83.1306C39.2605 83.1334 38.8029 83.0728 38.36 82.9506H38.28L38.33 82.8906C39.48 81.4706 40.33 80.9506 41.33 80.9506C41.8958 80.9699 42.4554 81.0744 42.99 81.2606L43.04 82.2606L43.58 81.9105L44.78 81.1506C45.1033 80.9446 45.4767 80.8304 45.86 80.8206C46.2629 80.8265 46.6515 80.9713 46.96 81.2306C47.0725 81.3336 47.2176 81.3938 47.37 81.4006C47.5263 81.393 47.678 81.3448 47.81 81.2606C48.2238 81.046 48.6839 80.936 49.15 80.9406C49.6248 80.9467 50.0951 81.0346 50.54 81.2006H50.6C50.4566 81.507 50.2333 81.769 49.9534 81.9591C49.6736 82.1492 49.3477 82.2603 49.01 82.2806C48.9203 82.2905 48.8297 82.2905 48.74 82.2806H48.67C48.4922 82.2986 48.3192 82.3493 48.16 82.4305L47.9 82.5306L49.07 82.9006ZM50.54 83.9006C50.9526 83.9074 51.3614 83.9817 51.75 84.1206H51.83L51.77 84.1805L51.32 84.5806C50.37 85.4706 49.47 86.3105 48.17 86.3105C47.8555 86.3102 47.5425 86.2664 47.24 86.1805H47.18C47.4866 85.5291 47.9634 84.9725 48.5601 84.5695C49.1567 84.1665 49.8511 83.9319 50.57 83.8906L50.54 83.9006ZM35.63 83.2606C35.42 83.1906 35.22 83.1305 35.02 83.0505L34.39 82.8105L33.92 82.6206L34.02 82.5706C34.23 82.4606 34.42 82.3805 34.59 82.3005C34.8737 82.2005 35.1376 82.0516 35.37 81.8606C35.634 81.6031 35.9472 81.4014 36.2907 81.2673C36.6343 81.1333 37.0014 81.0698 37.37 81.0806C37.8747 81.0902 38.3759 81.1675 38.86 81.3105H38.93V81.3706C38.614 81.7594 38.2395 82.0967 37.82 82.3706C36.6893 83.112 35.7172 84.0705 34.96 85.1906C34.7663 85.4768 34.5033 85.7093 34.1956 85.8667C33.8879 86.024 33.5454 86.1011 33.2 86.0906C32.6622 86.0724 32.1356 85.9322 31.66 85.6805C32.15 84.3005 33.26 84.1105 34.34 83.9205C34.8598 83.8539 35.3679 83.716 35.85 83.5106L35.92 83.3206L35.63 83.2606ZM37.95 80.0706C38.61 78.5706 39.28 77.9105 40.13 77.9105C40.6682 77.9438 41.1854 78.1313 41.62 78.4506C41.367 78.9784 40.9817 79.4318 40.5015 79.7665C40.0214 80.1012 39.4627 80.3059 38.88 80.3606C38.5468 80.3671 38.2205 80.2653 37.95 80.0706ZM32.61 88.5206C32.78 88.3806 32.95 88.2105 33.11 88.0505C33.3905 87.7081 33.7511 87.4403 34.16 87.2706C34.7936 87.1329 35.3741 86.8152 35.8317 86.3558C36.2893 85.8964 36.6047 85.3147 36.74 84.6805C36.8427 84.4607 36.9974 84.2694 37.1909 84.123C37.3843 83.9767 37.6106 83.8797 37.85 83.8406H38.07C38.4681 83.8565 38.8635 83.9135 39.25 84.0106L39.96 84.1406H40.06L39.41 84.7406L38.27 85.7406L38.12 85.9006C37.99 86.0506 37.86 86.2006 37.71 86.2006H37.62C37.4796 86.1514 37.3269 86.1503 37.1859 86.1975C37.0448 86.2447 36.9235 86.3377 36.841 86.4613C36.7585 86.5851 36.7195 86.7326 36.7302 86.881C36.7409 87.0293 36.8006 87.17 36.9 87.2806C36.1245 88.1314 35.0489 88.6476 33.9 88.7206C33.4631 88.7195 33.0299 88.6416 32.62 88.4906H32.54L32.61 88.5206ZM36.89 88.2206L38.26 86.9806C38.3223 86.9251 38.3892 86.8749 38.46 86.8306C38.5924 86.7533 38.7027 86.6431 38.78 86.5106C39.1559 85.7473 39.7654 85.1238 40.52 84.7306L40.92 84.4606C41.2107 84.2475 41.5597 84.1289 41.92 84.1206C42.3311 84.1303 42.7291 84.2665 43.06 84.5106C42.7696 85.0358 42.3518 85.4795 41.845 85.801C41.3383 86.1225 40.7589 86.3115 40.16 86.3506C39.9602 86.3646 39.7598 86.3646 39.56 86.3506C39.61 86.4806 39.68 86.6106 39.74 86.7306C39.89 87.0506 40.02 87.3206 39.94 87.5206C39.7777 87.811 39.5479 88.0579 39.27 88.2406L38.95 88.5006C38.8082 88.6336 38.6579 88.7572 38.5 88.8706C38.1917 89.1236 37.8086 89.2678 37.41 89.2806C36.9808 89.2588 36.5687 89.1051 36.23 88.8406H36.18L36.89 88.2206ZM49.39 79.5605C48.776 80.0496 48.015 80.3174 47.23 80.3206C46.9371 80.3213 46.6451 80.2878 46.36 80.2206C46.4178 79.8401 46.5648 79.4786 46.789 79.1658C47.0132 78.8529 47.3082 78.5976 47.65 78.4205C48.032 78.1754 48.37 77.8678 48.65 77.5106C48.3642 77.4272 48.0677 77.3867 47.77 77.3906C47.45 77.3906 47.12 77.3906 46.77 77.4606C46.4385 77.5055 46.1045 77.5289 45.77 77.5306C45.4452 77.5482 45.1204 77.4966 44.817 77.3794C44.5137 77.2622 44.2386 77.0819 44.01 76.8506C43.9347 77.0065 43.8956 77.1774 43.8956 77.3506C43.8956 77.5237 43.9347 77.6947 44.01 77.8506C44.1092 77.9767 44.2374 78.077 44.3836 78.1432C44.5298 78.2093 44.6898 78.2393 44.85 78.2306H45.44H46.57V78.3005C46.2735 78.925 45.8061 79.4528 45.2221 79.8226C44.6381 80.1925 43.9613 80.3895 43.27 80.3906C42.6997 80.3869 42.1358 80.2713 41.61 80.0505H41.55L43.62 77.4506H40.89L40.94 77.3806C41.5722 76.5624 42.3919 75.9081 43.33 75.473C44.268 75.0379 45.297 74.8348 46.33 74.8806C47.3836 74.8825 48.4278 75.0791 49.41 75.4606L48.85 76.5605L48.96 76.6705L49.15 76.5906C49.3091 76.526 49.4629 76.4491 49.61 76.3606C49.83 76.2106 50.05 76.0406 50.26 75.8806L50.91 75.4105C51.201 75.1981 51.5498 75.0795 51.91 75.0706C52.3835 75.096 52.8375 75.2671 53.21 75.5605L52.45 76.1906C51.88 76.6706 51.33 77.1206 50.75 77.5306C50.35 77.8206 50.19 78.0706 50.41 78.5906L50.91 78.4506C51.3112 78.3295 51.7184 78.2294 52.13 78.1506C52.53 78.0806 52.95 78.0506 53.35 78.0206H53.88L53.97 78.3206L53.61 78.7306C53.3557 79.0382 53.0746 79.3226 52.77 79.5806C52.2717 80.037 51.634 80.3119 50.96 80.3606C50.6599 80.3454 50.3667 80.2651 50.1008 80.1252C49.8348 79.9854 49.6025 79.7892 49.42 79.5505L49.39 79.5605ZM56.07 73.9706C56.3404 73.3112 56.809 72.7522 57.4109 72.3706C58.0128 71.989 58.7183 71.8038 59.43 71.8406C59.7818 71.8424 60.133 71.8725 60.48 71.9305H60.55V71.9906C60.2589 72.6406 59.7996 73.2011 59.2195 73.6143C58.6394 74.0274 57.9594 74.2781 57.25 74.3406C56.8472 74.3455 56.4514 74.2344 56.11 74.0206L56.07 73.9706ZM70.74 72.1006C71.1857 72.102 71.6282 72.1763 72.05 72.3206H72.11C71.8519 72.8772 71.4398 73.3483 70.9222 73.678C70.4047 74.0076 69.8036 74.182 69.19 74.1805C68.7562 74.1819 68.3258 74.104 67.92 73.9506H67.87C68.1106 73.386 68.5186 72.9088 69.039 72.5834C69.5594 72.2579 70.167 72.0999 70.78 72.1306L70.74 72.1006ZM69.39 66.1006C69.871 66.1053 70.3453 66.2144 70.78 66.4205C69.202 67.4227 67.8417 68.7321 66.78 70.2706C66.6769 70.4488 66.5319 70.5992 66.3577 70.709C66.1835 70.8187 65.9853 70.8846 65.78 70.9006C65.6638 70.9148 65.5462 70.9148 65.43 70.9006C65.3168 70.8914 65.2031 70.8914 65.09 70.9006C64.9909 70.8932 64.8914 70.9071 64.7982 70.9417C64.705 70.9762 64.6204 71.0304 64.5501 71.1007C64.4799 71.171 64.4256 71.2556 64.3911 71.3488C64.3565 71.4419 64.3425 71.5415 64.35 71.6406C64.6591 71.729 64.9785 71.7761 65.3 71.7806C65.8552 71.7323 66.3938 71.5664 66.88 71.2939C67.3662 71.0215 67.7888 70.6488 68.12 70.2006C68.3348 69.907 68.6122 69.6649 68.9322 69.4919C69.2522 69.319 69.6067 69.2195 69.97 69.2006C70.3128 69.2048 70.6519 69.2727 70.97 69.4006H71.02C70.6958 70.0202 70.1972 70.5312 69.5859 70.8706C68.9746 71.21 68.2773 71.3629 67.58 71.3105V71.4806L68.48 71.8005C68.2131 72.4584 67.7571 73.0223 67.1697 73.421C66.5823 73.8197 65.8899 74.0353 65.18 74.0405H64.87C64.36 74.0405 63.87 74.0405 63.16 74.0405H61.78H60.16L60.24 73.9606C60.49 73.6906 60.73 73.4205 60.95 73.1605C61.524 72.3291 62.3363 71.6912 63.28 71.3306C63.386 71.2721 63.4702 71.1809 63.52 71.0706L63.6 70.9506C63.74 70.7606 63.88 70.5606 64.01 70.3606C64.2843 69.9394 64.5884 69.5383 64.92 69.1605C65.21 68.8205 65.55 68.5105 65.87 68.1605C66.19 67.8105 66.53 67.5506 66.87 67.2206C67.2004 66.8753 67.598 66.6014 68.0382 66.4156C68.4785 66.2299 68.9522 66.1364 69.43 66.1406L69.39 66.1006ZM65.69 65.1006C66.47 63.8606 67.22 63.3306 68.21 63.3306C68.6676 63.3455 69.12 63.4333 69.55 63.5906H69.61C69.3104 64.0829 68.897 64.496 68.4045 64.7953C67.9121 65.0946 67.3549 65.2713 66.78 65.3105C66.436 65.3076 66.0961 65.2363 65.78 65.1006H65.72H65.69ZM62.54 67.9706C62.8029 67.4407 63.1994 66.9886 63.6905 66.6589C64.1815 66.3292 64.7501 66.1333 65.34 66.0906C65.8186 66.0986 66.2896 66.2112 66.72 66.4205H66.79L64.26 68.7905L64 68.6006C63.8386 68.47 63.6643 68.3561 63.48 68.2606C63.29 68.185 63.0921 68.1313 62.89 68.1006L62.6 68.0405H62.53L62.54 67.9706ZM62.54 68.9006C62.9616 68.9008 63.3792 68.9823 63.77 69.1406H63.83C63.521 69.6731 63.0857 70.1213 62.5625 70.4457C62.0393 70.7701 61.4443 70.9606 60.83 71.0006C60.3259 70.9912 59.8291 70.8789 59.37 70.6705H59.32C59.688 70.1591 60.1691 69.7396 60.7259 69.4447C61.2827 69.1498 61.9001 68.9875 62.53 68.9706L62.54 68.9006ZM55.88 70.4406C56.2473 70.0449 56.6932 69.7302 57.1891 69.5167C57.6851 69.3032 58.2201 69.1955 58.76 69.2006C58.9885 69.1904 59.2167 69.2278 59.43 69.3105C59.1594 69.8513 58.7398 70.3034 58.2206 70.6135C57.7014 70.9236 57.1044 71.0787 56.5 71.0605H56.29C56.02 71.0605 55.86 70.9706 55.79 70.8506C55.7773 70.7851 55.7779 70.7177 55.7916 70.6525C55.8053 70.5872 55.832 70.5254 55.87 70.4706L55.88 70.4406ZM52.79 71.1805C52.7947 71.1307 52.7947 71.0805 52.79 71.0306C52.79 70.9006 52.79 70.7706 52.91 70.7206C53.0324 70.6411 53.1741 70.5962 53.32 70.5906C53.59 70.5906 53.79 70.8106 53.92 71.2406V71.3105L52.74 71.2406L52.79 71.1805ZM52.64 74.0206C53.24 72.7806 53.97 72.2106 54.92 72.2106C55.26 72.216 55.5973 72.2734 55.92 72.3806H55.99L55.86 72.5306C55.2 73.3306 54.51 74.1705 53.39 74.1705C53.1388 74.1674 52.8894 74.1269 52.65 74.0505H52.59L52.64 74.0206ZM50.76 72.1306C51.2973 72.1491 51.825 72.2785 52.31 72.5106H52.36V72.5605C52.0957 73.0936 51.6789 73.5361 51.1625 73.8317C50.6461 74.1273 50.0535 74.2627 49.46 74.2206C49.0502 74.2143 48.6419 74.1708 48.24 74.0906H48.18V74.0306C48.3902 73.5095 48.7426 73.0579 49.197 72.7273C49.6514 72.3967 50.1895 72.2002 50.75 72.1605L50.76 72.1306ZM44.56 71.8406C45.42 71.8406 46.29 71.8405 47.14 71.9105L48.75 71.9706L48.81 72.2306L48.33 72.6705C48 72.9705 47.68 73.2806 47.33 73.5706C46.8854 73.9935 46.2936 74.2267 45.68 74.2206C45.5468 74.2303 45.4132 74.2303 45.28 74.2206C44.9485 74.1767 44.6143 74.1566 44.28 74.1605H40.39V74.0906C40.6125 73.488 40.9992 72.9597 41.5064 72.5656C42.0137 72.1714 42.6211 71.9273 43.26 71.8606C43.73 71.8706 44.13 71.8706 44.55 71.8706L44.56 71.8406ZM37.86 74.2006C37.3892 74.1866 36.9236 74.0989 36.48 73.9406H36.43C36.7026 73.3194 37.1573 72.7956 37.7341 72.4385C38.3108 72.0814 38.9824 71.9077 39.66 71.9406C39.996 71.9466 40.3307 71.9835 40.66 72.0505H40.73V72.1106C39.74 73.4706 38.98 74.2306 37.85 74.2306L37.86 74.2006ZM38.86 70.2706L39.31 70.3206L40.31 70.4305C40.62 70.4305 40.93 70.5306 41.22 70.5806L41.62 70.6506C40.999 70.8171 40.3621 70.9176 39.72 70.9506C39.11 70.9506 38.86 70.7406 38.85 70.2306V70.1705L38.86 70.2706ZM36.03 70.5706C36.4 69.8606 36.67 69.5206 37.17 69.5206C37.498 69.5393 37.8198 69.6172 38.12 69.7506L38.41 69.8206L38.66 69.8806H38.72C38.6773 69.9749 38.6406 70.0717 38.61 70.1705C38.55 70.3905 38.49 70.5806 38.35 70.6406C37.7964 70.8945 37.2161 71.0856 36.62 71.2106H36.51C36.4223 71.2122 36.3359 71.1897 36.2601 71.1456C36.1843 71.1016 36.122 71.0375 36.08 70.9606C36.0547 70.9042 36.0409 70.8434 36.0391 70.7816C36.0374 70.7198 36.0479 70.6583 36.07 70.6006L36.03 70.5706ZM35.6 69.2905C35.07 70.5305 34.46 71.3606 33.21 71.3606C32.6599 71.3384 32.1167 71.2303 31.6 71.0405H31.54V70.9906C31.8486 70.4457 32.2808 69.9808 32.8019 69.6334C33.3229 69.286 33.9183 69.0659 34.54 68.9906C34.9115 69.014 35.2719 69.1272 35.59 69.3206L35.6 69.2905ZM29.73 67.8706C29.54 68.0506 29.33 68.2206 29.13 68.3906C28.6268 68.7703 28.182 69.2217 27.81 69.7306C27.37 70.4506 26.89 71.0906 25.96 71.0906C25.8402 71.1005 25.7198 71.1005 25.6 71.0906H25.55C25.434 71.0905 25.3214 71.1292 25.23 71.2006C25.1098 71.3053 24.959 71.3685 24.8 71.3806C24.6 71.3806 24.41 71.2606 24.21 70.9806L24.54 70.5405C24.76 70.2505 24.98 69.9605 25.19 69.6605C25.2898 69.4752 25.4328 69.3166 25.6068 69.1982C25.7809 69.0799 25.9809 69.0053 26.19 68.9806C26.3404 68.9797 26.4896 69.0068 26.63 69.0605C26.7093 69.075 26.7906 69.075 26.87 69.0605C26.9377 69.0665 27.0057 69.056 27.0685 69.0299C27.1312 69.0038 27.1866 68.9628 27.23 68.9105C27.265 68.8461 27.2833 68.7739 27.2833 68.7006C27.2833 68.6272 27.265 68.5551 27.23 68.4906C26.97 67.8006 27.35 67.4906 27.71 67.1506C28.4649 66.4843 29.4434 66.1272 30.45 66.1506C30.7852 66.1536 31.1196 66.1837 31.45 66.2406H31.55L30.86 66.8706C30.44 67.2406 30.07 67.5606 29.72 67.9006L29.73 67.8706ZM31.02 68.2706H30.93L30.98 68.2006C31.46 67.3706 31.87 66.9906 32.31 66.9906C32.6701 67.0328 33.0016 67.2075 33.24 67.4806C33.35 67.5806 33.49 67.8006 33.45 67.9406C33.4126 68.0231 33.3558 68.0954 33.2844 68.1511C33.213 68.2069 33.1291 68.2444 33.04 68.2606H32.14H31.02V68.2706ZM32.7 72.4305C32.4194 72.9858 31.9906 73.4525 31.4611 73.7791C30.9316 74.1056 30.3221 74.2792 29.7 74.2806C29.2758 74.2839 28.8548 74.2057 28.46 74.0505C28.6844 73.4894 29.0768 73.0115 29.5834 72.6821C30.09 72.3527 30.6861 72.188 31.29 72.2106C31.7641 72.216 32.2352 72.2867 32.69 72.4205H32.75L32.7 72.4305ZM32.8 74.0605H32.74C32.9409 73.5845 33.264 73.1701 33.6767 72.8593C34.0894 72.5484 34.577 72.3522 35.09 72.2905C35.3955 72.2924 35.6965 72.3643 35.97 72.5006C35.816 72.985 35.5164 73.4101 35.1119 73.7179C34.7075 74.0257 34.2179 74.2012 33.71 74.2206C33.3986 74.2227 33.0886 74.1789 32.79 74.0906L32.8 74.0605ZM33.27 77.0605C33.5708 76.4569 34.0347 75.9496 34.6091 75.5961C35.1836 75.2426 35.8455 75.057 36.52 75.0605C37.59 75.0605 38.69 75.0606 39.74 75.1506L41.05 75.2006H41.33H41.58L41.52 75.2706C41.1583 75.828 40.6717 76.2934 40.099 76.6301C39.5262 76.9669 38.8829 77.1655 38.22 77.2106C37.7431 77.2058 37.2715 77.1107 36.83 76.9305H36.75L38.22 75.7806L37.98 75.4606L37.63 75.5906C37.3355 75.6905 37.0509 75.8178 36.78 75.9706C36.5625 76.1264 36.3644 76.3077 36.19 76.5106L35.83 76.8706C35.4788 77.2564 34.9907 77.4896 34.47 77.5206C34.0377 77.4645 33.6239 77.3105 33.26 77.0706L33.27 77.0605ZM33.94 80.0605L34.31 79.6106C34.5475 79.304 34.8012 79.0102 35.07 78.7306C35.229 78.519 35.4285 78.3412 35.6568 78.2073C35.8851 78.0734 36.1377 77.9861 36.4 77.9506C36.6658 77.9836 36.9222 78.0696 37.1541 78.2036C37.386 78.3376 37.5887 78.5168 37.75 78.7306C36.96 79.9206 36.23 80.4506 35.36 80.4506C34.8712 80.4277 34.3933 80.298 33.96 80.0706H33.9L33.94 80.0605ZM30.89 82.8506C31.2057 82.3486 31.6321 81.9254 32.1365 81.6134C32.6408 81.3014 33.2098 81.1089 33.8 81.0505C34.2428 81.0631 34.677 81.176 35.07 81.3806L34.47 81.8606C34.0656 82.2076 33.6342 82.5219 33.18 82.8005C32.8402 83.0002 32.454 83.1071 32.06 83.1106C31.661 83.1012 31.2687 83.0057 30.91 82.8306H30.85L30.89 82.8506ZM28.5 86.3406C28.1594 86.3411 27.8213 86.2835 27.5 86.1705H27.42L27.48 86.1106C27.73 85.9007 27.96 85.6606 28.18 85.4406C28.4874 85.0233 28.8781 84.6746 29.3274 84.4164C29.7767 84.1582 30.2748 83.9961 30.79 83.9406C31.0787 83.9446 31.3652 83.9918 31.64 84.0806H31.71V84.1306C30.57 85.6506 29.59 86.3306 28.49 86.3306L28.5 86.3406ZM28.7 88.7806C28.8829 88.2826 29.202 87.846 29.6211 87.5206C30.0401 87.1953 30.5422 86.9943 31.07 86.9406C31.5635 86.947 32.0372 87.1358 32.4 87.4706C32.0878 87.9055 31.6898 88.2718 31.2306 88.547C30.7714 88.8222 30.2607 89.0003 29.73 89.0706C29.3614 89.0747 28.9997 88.9704 28.69 88.7706L28.7 88.7806ZM31.41 92.5006L29.41 91.8906V91.8306C29.7273 91.2742 30.1736 90.8021 30.7113 90.4541C31.249 90.1061 31.8624 89.8922 32.5 89.8306C32.938 89.8284 33.3678 89.9496 33.74 90.1805H33.8L31.41 92.5006ZM37.67 92.1705H36.97C36.25 92.1705 35.53 92.1706 34.82 92.1006H34.26C33.94 92.1006 33.62 92.0306 33.26 91.9906L32.82 91.9305H32.71L32.8 91.8606L33.32 91.4506C33.67 91.1906 33.99 90.9405 34.32 90.6705C34.8044 90.1874 35.4474 89.8962 36.13 89.8506C36.4885 89.8602 36.8362 89.9749 37.13 90.1805L36.49 91.4105L36.59 91.5006C36.9157 91.3023 37.2295 91.0853 37.53 90.8506C38.1583 90.2525 38.9672 89.8797 39.83 89.7905C40.3206 89.8069 40.799 89.9481 41.22 90.2006C41.02 90.3606 40.83 90.5306 40.65 90.6906C40.2667 91.0718 39.8405 91.4074 39.38 91.6906C38.8465 91.9674 38.2602 92.1275 37.66 92.1605L37.67 92.1705ZM45.96 92.8806C45.49 93.9406 43.45 95.1306 41.43 95.1306H41.16L44.01 92.5806L46.01 92.8306L45.96 92.8806ZM49.6 89.8806C48.6 90.9906 47.52 92.0706 45.93 92.0706C45.5543 92.0696 45.1806 92.0157 44.82 91.9105H44.77V91.8606C44.8432 91.6756 44.9598 91.511 45.11 91.3806C45.35 91.1306 45.58 90.8906 45.39 90.4506L45.05 90.7006C43.5305 91.68 42.1796 92.8991 41.05 94.3105C40.8597 94.6002 40.5975 94.8354 40.289 94.9932C39.9804 95.1509 39.6362 95.2259 39.29 95.2106H39.21C38.8255 95.1536 38.4448 95.0734 38.07 94.9706L37.39 94.8706H37.29L38.76 93.5806L41.36 91.3005L42.5 90.3005C43.5 89.4505 44.5 88.5606 45.5 87.6506C46.0662 87.0696 46.8388 86.7353 47.65 86.7206C47.9909 86.7261 48.3286 86.7869 48.65 86.9006H48.72L45.98 89.4706C46.2854 89.6504 46.627 89.7596 46.98 89.7905C47.2227 89.789 47.4607 89.7235 47.67 89.6006C47.9054 89.4693 48.1705 89.4005 48.44 89.4006C48.8417 89.4167 49.2346 89.5226 49.59 89.7106H49.65L49.6 89.8806ZM61.85 87.8806C62.2491 87.884 62.6447 87.9549 63.02 88.0906H63.08V88.1506C62.62 88.8706 62.25 89.2606 61.55 89.2606C60.9691 89.2173 60.3987 89.0823 59.86 88.8606H59.79C60.0322 88.545 60.3421 88.2877 60.6969 88.1077C61.0516 87.9277 61.4423 87.8296 61.84 87.8206L61.85 87.8806ZM58.22 83.9906H59.87L58.81 85.5306L58.89 85.6506C59.245 85.4461 59.5799 85.2083 59.89 84.9406C60.4491 84.3742 61.1882 84.0206 61.98 83.9406C62.4674 83.9556 62.9414 84.1044 63.35 84.3706H63.41C63.19 84.5506 62.99 84.7405 62.8 84.9205C62.4248 85.3108 61.9974 85.6474 61.53 85.9205C61.0524 86.1444 60.543 86.2929 60.02 86.3606L59.44 86.4806L60.44 86.8105C60.2653 87.168 59.9913 87.4675 59.6507 87.6732C59.3102 87.8789 58.9177 87.9822 58.52 87.9706C58.1909 87.9792 57.8669 87.8886 57.59 87.7106C57.4074 87.5663 57.1827 87.4856 56.95 87.4806C56.7228 87.4901 56.5022 87.5591 56.31 87.6805C56.131 87.7776 55.9574 87.8845 55.79 88.0006C55.5071 88.2135 55.1935 88.3821 54.86 88.5006C54.6167 88.5736 54.364 88.6106 54.11 88.6106C53.8453 88.6121 53.582 88.5716 53.33 88.4906C53.2868 88.4746 53.2495 88.446 53.2228 88.4086C53.196 88.3711 53.1811 88.3266 53.18 88.2806C53.1938 88.0419 53.2623 87.8094 53.3802 87.6013C53.4981 87.3932 53.6622 87.2151 53.86 87.0806C54.1811 86.8437 54.5553 86.6892 54.95 86.6306C55.1588 86.6289 55.3603 86.5539 55.5193 86.4186C55.6784 86.2833 55.7848 86.0964 55.82 85.8906C55.9523 85.4422 56.1333 85.0095 56.36 84.6006C56.57 84.2806 56.89 83.9306 57.19 83.8906C57.49 83.8506 57.77 83.9706 58.21 83.9706L58.22 83.9906ZM58.39 81.4406C58.0392 82.2233 57.4024 82.8422 56.61 83.1705C56.1586 83.3601 55.7996 83.7191 55.61 84.1705C55.3947 84.7431 55.0244 85.2447 54.5406 85.619C54.0567 85.9934 53.4783 86.2259 52.87 86.2905C52.49 86.3505 52.1 86.3805 51.7 86.4105H51.19C51.1924 86.4623 51.2054 86.513 51.2282 86.5596C51.2509 86.6061 51.2829 86.6476 51.3223 86.6813C51.3616 86.715 51.4074 86.7403 51.4569 86.7556C51.5064 86.771 51.5585 86.7761 51.61 86.7706H51.82H52.07C52.1527 86.76 52.2368 86.7754 52.3103 86.8148C52.3838 86.8543 52.4431 86.9158 52.48 86.9906C51.48 88.3306 50.69 89.0605 49.68 89.0605C49.1236 89.0313 48.579 88.8884 48.08 88.6406H48.02L48.65 88.0505L49.92 86.8806C50.03 86.7806 50.16 86.6906 50.28 86.6006C50.5139 86.4534 50.7148 86.2594 50.87 86.0306C51.156 85.4942 51.5556 85.0265 52.041 84.6604C52.5263 84.2943 53.0856 84.0383 53.68 83.9105C54.1 83.7905 54.53 83.6806 54.99 83.5706L55.61 83.4105C55.3674 83.2393 55.0852 83.1327 54.79 83.1006C54.34 83.0106 53.87 82.9206 53.73 82.2606C53.5138 82.5374 53.2354 82.7594 52.9176 82.9088C52.5997 83.0582 52.2511 83.1308 51.9 83.1206C51.5448 83.1107 51.1907 83.0773 50.84 83.0206C50.63 83.0206 50.42 82.9505 50.2 82.9305H50.07L50.19 82.8506C50.4 82.7206 50.61 82.6106 50.81 82.5006C51.1869 82.3412 51.5272 82.1063 51.81 81.8105C52.0152 81.5449 52.2814 81.3326 52.586 81.1917C52.8906 81.0507 53.2247 80.9852 53.56 81.0006H54.07C54.1156 81.0145 54.1644 81.0145 54.21 81.0006C54.3295 80.889 54.4368 80.765 54.53 80.6306C54.5609 80.5855 54.5943 80.542 54.63 80.5006L54.53 80.4305C54.4298 80.3482 54.3227 80.2746 54.21 80.2106C54.127 80.2001 54.043 80.2001 53.96 80.2106H53.66H53.57L53.63 80.1506L54.18 79.5306C54.5224 79.1091 54.8968 78.7145 55.3 78.3506C55.5795 78.1136 55.9335 77.9826 56.3 77.9806C56.5871 77.9836 56.8702 78.0484 57.13 78.1705C57.2411 78.2477 57.3223 78.3607 57.36 78.4906C57.3946 78.5807 57.3946 78.6805 57.36 78.7706C57.36 78.8506 57.29 78.9206 57.26 78.9906C56.89 79.7406 56.5 80.5106 55.64 80.5106H55.46L54.33 82.1206C54.7575 82.0097 55.1704 81.8486 55.56 81.6406C56.0758 81.338 56.6537 81.1567 57.25 81.1106C57.6345 81.1146 58.0109 81.2216 58.34 81.4205L58.39 81.4406ZM58.72 80.3706C58.3346 80.3633 57.9556 80.2711 57.61 80.1006H57.56C58.65 78.5206 59.34 77.9105 60.01 77.9105C60.2875 77.9455 60.5547 78.0384 60.7941 78.1831C61.0335 78.3278 61.2399 78.5212 61.4 78.7506L61.05 79.0605C60.4602 79.7631 59.6219 80.2109 58.71 80.3105L58.72 80.3706ZM70.35 88.8406C70.0541 89.0383 69.7058 89.1428 69.35 89.1406C68.8822 89.1211 68.4246 88.9981 68.01 88.7806C68.01 88.7206 68.09 88.6606 68.13 88.6106C68.1894 88.5067 68.2598 88.4094 68.34 88.3206L68.61 88.0605C68.8461 87.7672 69.1429 87.5285 69.48 87.3606H69.54C69.67 87.3606 69.84 87.5206 70.03 87.7106C70.1494 87.8295 70.28 87.9368 70.42 88.0306C70.65 88.1706 70.76 88.3106 70.76 88.4606C70.76 88.6106 70.6 88.6206 70.34 88.7806L70.35 88.8406ZM73.47 89.9606C73.3554 90.1959 73.1759 90.3935 72.9526 90.5299C72.7293 90.6664 72.4716 90.736 72.21 90.7306C71.6364 90.7013 71.0869 90.4913 70.64 90.1306L70.56 90.0706H70.68C71.2541 89.8894 71.8488 89.7819 72.45 89.7506C72.7915 89.7493 73.1304 89.8103 73.45 89.9305L73.47 89.9606ZM73.74 88.9606L73.86 89.0505H71.69L71.77 88.9706C71.8767 88.8294 72.0102 88.7108 72.163 88.6216C72.3157 88.5323 72.4847 88.4742 72.66 88.4506C73.0544 88.4943 73.4269 88.6544 73.73 88.9105L73.74 88.9606ZM73.61 86.1006C73.3203 86.2201 73.0128 86.2911 72.7 86.3105L71.16 86.4105H70.51H70.44V86.3406C70.78 85.3406 71.44 84.8105 72.2 84.8105C72.5085 84.8152 72.8135 84.8762 73.1 84.9906H73.23C73.305 85.0162 73.3785 85.0462 73.45 85.0806L73.57 85.1406C73.74 85.2406 73.92 85.3306 73.92 85.4506C73.9193 85.569 73.8899 85.6856 73.8341 85.7902C73.7784 85.8947 73.698 85.984 73.6 86.0505L73.61 86.1006Z" fill="white"/>
<path d="M62.2596 93.7797C63.1196 92.9897 63.9896 92.1296 64.8496 91.2396C64.9196 91.1696 64.9196 91.0296 64.9196 90.8396C64.925 90.7597 64.925 90.6795 64.9196 90.5996C63.4592 91.5314 62.2367 92.7917 61.3496 94.2797L61.6396 94.1396C61.8604 94.0458 62.0687 93.9249 62.2596 93.7797Z" fill="white"/>
<path d="M53.45 28.3807L52.97 28.2407C52.2262 28.0102 51.4678 27.8298 50.7 27.7007C49.6565 27.5513 48.604 27.4745 47.55 27.4707C46.1727 27.472 44.8001 27.6331 43.46 27.9507C43.9132 28.1001 44.3491 28.2978 44.76 28.5406C45.5641 28.3851 46.3809 28.3047 47.2 28.3007C48.8095 28.3135 50.4089 28.556 51.95 29.0208L52.22 29.1107C52.5189 29.2134 52.827 29.287 53.14 29.3307H53.25C53.47 29.3307 53.73 29.2706 53.79 29.1606C53.8381 29.0915 53.8687 29.0117 53.8792 28.9281C53.8896 28.8445 53.8796 28.7595 53.85 28.6807C53.8117 28.6026 53.7555 28.5348 53.686 28.4827C53.6165 28.4305 53.5356 28.3956 53.45 28.3807Z" fill="white"/>
<path d="M36.4098 48.8108C36.5247 49.0487 36.6922 49.2573 36.8998 49.4208L37.1998 49.7208C37.2762 49.7889 37.3346 49.8747 37.3698 49.9708C38.6398 53.6708 40.9498 55.7608 44.4198 56.3608C45.3673 56.529 46.3275 56.616 47.2898 56.6208C49.1819 56.6337 51.0545 56.238 52.7798 55.4608C55.6198 54.1608 57.5098 51.7408 58.5398 48.0608C58.9471 46.8991 58.9115 45.628 58.4398 44.4908C58.1483 44.6799 57.9111 44.9416 57.7515 45.2502C57.5919 45.5589 57.5155 45.9037 57.5298 46.2509C56.8998 51.8009 52.9298 55.3809 47.4298 55.3809C47.0598 55.3809 46.6698 55.3809 46.2798 55.3809C44.6516 55.2782 43.0757 54.766 41.6982 53.892C40.3207 53.0179 39.1861 51.8102 38.3998 50.3809C37.3112 48.5489 36.8153 46.4254 36.9798 44.3008C36.7488 44.3844 36.5054 44.4283 36.2598 44.4308H35.7598C35.6896 45.9192 35.9104 47.4069 36.4098 48.8108Z" fill="white"/>
<path d="M28.4901 62.4209L24.8501 56.9609C24.7187 58.154 25.0557 59.3515 25.7901 60.3009C26.0714 60.82 26.4561 61.276 26.9205 61.6406C27.3849 62.0053 27.9191 62.2708 28.4901 62.4209Z" fill="white"/>
<path d="M54.3002 32.9698V32.5099C53.9502 32.3599 53.5802 32.2098 53.2002 32.0898C53.5502 32.3398 53.9202 32.6198 54.3002 32.9698Z" fill="white"/>
<path d="M68.7204 57.47C68.8786 57.4906 69.0395 57.4761 69.1915 57.4277C69.3436 57.3794 69.4831 57.2982 69.6004 57.1899C69.7137 57.016 69.79 56.8206 69.8244 56.6158C69.8588 56.4111 69.8507 56.2014 69.8004 56L68.4004 57.45H68.7204V57.47Z" fill="white"/>
<path d="M35.3895 65.2509C39.1504 67.3294 43.3631 68.4556 47.6595 68.5309C50.6776 68.517 53.6638 67.9122 56.4495 66.7509C60.4495 65.1209 63.7795 62.2908 67.0695 57.8208C67.3299 57.4866 67.4968 57.0892 67.553 56.6692C67.6093 56.2492 67.5528 55.8218 67.3895 55.4308C62.3895 63.3708 55.7695 67.4308 47.6595 67.4308C47.1795 67.4308 46.6595 67.4308 46.1995 67.4308C37.0495 66.9208 30.3895 62.1909 26.3995 53.3809C26.1833 53.666 26.0596 54.0107 26.0453 54.3683C26.031 54.7259 26.1267 55.0793 26.3195 55.3809C28.174 59.5795 31.3622 63.0489 35.3895 65.2509Z" fill="white"/>
<path d="M52.9305 23.1108C53.1748 23.1003 53.4152 23.0461 53.6405 22.9508C53.5837 22.7658 53.47 22.6034 53.3156 22.4867C53.1612 22.37 52.974 22.3049 52.7805 22.3008C52.5036 22.3167 52.2322 22.3846 51.9805 22.5009C52.3105 22.9709 52.5805 23.1108 52.9305 23.1108Z" fill="white"/>
<path d="M54.2996 25.7698C52.5852 25.0245 50.712 24.7186 48.8496 24.8797C49.6896 25.5697 52.6596 26.2697 54.2996 26.5997V25.7698Z" fill="white"/>
<path d="M44.7704 22.7093C45.4786 22.7312 46.1765 22.5358 46.7704 22.1493C46.6087 21.9622 46.407 21.8138 46.1803 21.7151C45.9535 21.6165 45.7075 21.57 45.4604 21.5793C44.6269 21.6374 43.8265 21.9284 43.1504 22.4192C43.6609 22.6149 44.2036 22.7133 44.7504 22.7093H44.7704Z" fill="white"/>
</g>
<defs>
<clipPath id="clip0_127_631">
<rect width="98" height="98" fill="white"/>
</clipPath>
</defs>
</svg>
