<svg width="20" height="20" viewBox="0 0 20 20" fill="none" xmlns="http://www.w3.org/2000/svg">
<g clip-path="url(#clip0_127_724)">
<path d="M9.00842 19.9254C7.29058 19.776 5.83 19.2366 4.52709 18.2905C2.74286 17.0042 1.58103 15.2864 1.19929 13.1038C0.469001 8.86313 3.24079 5.31956 6.41921 4.24902C6.41921 4.48139 6.42751 4.71375 6.41921 4.93782C6.36942 5.81749 6.26983 6.70546 6.26153 7.58512C6.23485 8.8135 6.54788 10.0254 7.1661 11.0872C7.75531 12.1245 8.33622 13.1702 8.62668 14.332C8.96693 15.6847 9.1578 17.0457 9.01672 18.4482C8.96693 18.9046 9.00842 19.3777 9.00842 19.9254Z" fill="#0F172A"/>
<path d="M10.61 19.9249C10.6017 18.7796 10.5686 17.7174 10.5934 16.6552C10.6598 14.5888 11.4316 12.7547 12.4773 11.012C13.2242 9.7672 13.3818 8.3979 13.3071 6.97882C13.2656 6.12404 13.2159 5.26927 13.1661 4.4145V4.20703C14.3738 4.64657 15.4602 5.36609 16.3362 6.30662C17.971 8.04936 18.693 10.1489 18.469 12.5224C18.2449 14.8958 17.1827 16.6137 15.4233 18.0245C14.0457 19.1282 12.4773 19.7506 10.61 19.9249Z" fill="#0F172A"/>
<path d="M9.38183 4.02459C9.38183 2.82127 9.39013 1.61795 9.37354 0.414633C9.37354 0.0992799 9.51461 0.0577861 9.76358 0.0743836C10.0125 0.0909811 10.2366 0.00799353 10.2283 0.398035C10.22 2.82957 10.22 5.25281 10.2283 7.68434C10.2366 8.06608 10.0125 8.00799 9.78017 8.02459C9.54781 8.04119 9.37354 7.9914 9.37354 7.66775C9.39013 6.45613 9.38183 5.23621 9.38183 4.02459Z" fill="#0F172A"/>
<path d="M8.3694 0.224055V7.85891C8.32791 7.86721 8.30301 7.88381 8.28642 7.87551C7.41505 7.70953 7.56443 7.83401 7.56443 7.04563C7.55613 5.00414 7.56443 2.97094 7.56443 0.929449C7.56443 0.224055 7.60592 0.182561 8.3694 0.224055Z" fill="#0F172A"/>
<path d="M11.2407 0.199219C11.4731 0.224115 11.6806 0.224115 11.8797 0.290505C12.0789 0.356895 12.0374 0.464779 12.0374 0.564364C12.0623 1.0042 12.054 1.44403 12.054 1.88387V7.26146C12.054 7.75109 12.0457 7.75109 11.5561 7.83407L11.2407 7.88387V0.199219Z" fill="#0F172A"/>
</g>
<defs>
<clipPath id="clip0_127_724">
<rect width="20" height="20" fill="white"/>
</clipPath>
</defs>
</svg>
