<svg width="88" height="45" viewBox="0 0 88 45" fill="none" xmlns="http://www.w3.org/2000/svg">
<g clip-path="url(#clip0_127_234)">
<path d="M6.29492 5.8623C7.76738 5.77182 9.22203 6.18683 10.3877 7.02539L10.6172 7.19824L10.624 7.2041L10.6299 7.20996C11.1604 7.73573 11.5688 8.3598 11.8281 9.04199C12.086 9.72046 12.1908 10.4417 12.1357 11.1602V20.0391H10.4834V17.9287C10.0103 18.5712 9.37783 19.099 8.63477 19.4609L8.63184 19.4629C7.60418 19.9366 6.46899 20.1683 5.32422 20.1406C3.90168 20.2137 2.49469 19.8259 1.3418 19.041L1.33301 19.0352V19.0342C0.879463 18.6774 0.511739 18.2339 0.255859 17.7324C-0.000177705 17.2306 -0.138586 16.6826 -0.149414 16.126C-0.160186 15.5694 -0.0430453 15.017 0.193359 14.5068C0.429732 13.9968 0.780055 13.541 1.21973 13.1689L1.22656 13.1631L1.2334 13.1582C2.47777 12.3278 3.99679 11.9387 5.51855 12.0586H10.4287V11.0898L10.4385 10.8975C10.4473 10.4504 10.3693 10.0044 10.207 9.58203C10.022 9.10047 9.73066 8.65975 9.35254 8.28711C8.92352 7.94328 8.42591 7.68067 7.8877 7.51465C7.34608 7.34759 6.77431 7.28212 6.20508 7.32129H6.19434C5.25025 7.31962 4.31331 7.47849 3.43066 7.79004L3.42871 7.79102C2.6087 8.06697 1.85282 8.4858 1.20215 9.02539L1.08105 9.12598L0.987305 9L0.274414 8.05371L0.1875 7.93945L0.298828 7.84766C1.09081 7.1987 2.01062 6.70088 3.00586 6.38086L3.40527 6.25879C4.34145 5.99362 5.31531 5.8611 6.29492 5.86328V5.8623ZM5.53418 13.415C4.45816 13.3296 3.38272 13.582 2.47949 14.1309C2.17728 14.3584 1.93757 14.649 1.7793 14.9775C1.62033 15.3077 1.54827 15.6678 1.56738 16.0283V16.042C1.5522 16.4239 1.63494 16.8045 1.80957 17.1514C1.98334 17.4964 2.24318 17.7988 2.56836 18.0332C3.4302 18.5838 4.46508 18.8515 5.50977 18.793H5.52148L5.9248 18.7881C6.86007 18.7433 7.76818 18.4709 8.55957 17.998C9.41095 17.4566 10.0633 16.6856 10.4287 15.791V13.416H5.53418V13.415Z" fill="#BD9F7C" stroke="#BD9F7C" stroke-width="0.3"/>
<path d="M29.3125 20.1504H27.6719V11.9883L27.6836 11.7549C27.7115 10.5889 27.3142 9.44885 26.5605 8.54688C26.1583 8.14493 25.6747 7.83226 25.1416 7.62891C24.6067 7.42484 24.0342 7.33516 23.4619 7.36719L23.4541 7.36816L23.4463 7.36719C22.7772 7.33504 22.1085 7.44458 21.4854 7.68848C20.8622 7.93238 20.2987 8.30562 19.832 8.78223C18.8996 9.83251 18.4179 11.203 18.4902 12.6006L18.4912 12.6084V20.1504H16.8496V5.97754H18.4385V8.50586C18.8917 7.76241 19.5274 7.14051 20.29 6.70117L20.292 6.7002C21.3112 6.12789 22.4683 5.84419 23.6387 5.87598V5.875C24.8047 5.84033 25.9558 6.146 26.9482 6.75488L26.9521 6.75684C27.7767 7.29356 28.4117 8.06818 28.7764 8.97168C29.2552 8.06511 29.9782 7.30513 30.8682 6.7793C31.9353 6.15129 33.1583 5.8323 34.3984 5.85742C35.1697 5.81771 35.9411 5.93706 36.6641 6.20703C37.2968 6.44337 37.8806 6.79083 38.3877 7.23242L38.6006 7.42773L38.6094 7.43555H38.6084C39.1505 8.04876 39.5653 8.76365 39.8271 9.53711C40.0877 10.307 40.1922 11.1205 40.1348 11.9307V20.1504H38.4932V11.9883H38.4941C38.5825 10.7387 38.1789 9.5035 37.3691 8.54199H37.3682C36.9692 8.14183 36.4895 7.82952 35.96 7.62695C35.4263 7.42282 34.8542 7.33417 34.2832 7.36719L34.2754 7.36816L34.2676 7.36719C33.5972 7.3344 32.9273 7.44363 32.3027 7.6875C31.6782 7.9314 31.1134 8.30502 30.6455 8.78223C29.7192 9.83584 29.2414 11.2053 29.3125 12.6016V20.1504Z" fill="#BD9F7C" stroke="#BD9F7C" stroke-width="0.3"/>
<path d="M54.5283 -0.150391V13.8213L63.5293 5.83594L63.5723 5.79785H65.8076L65.5195 6.05859L59.3613 11.6406L66.1162 19.9053L66.3164 20.1504H64.2285L64.1836 20.0947L58.1357 12.7021L54.5283 15.8936V20.1504H52.8496V-0.150391H54.5283Z" fill="#BD9F7C" stroke="#BD9F7C" stroke-width="0.3"/>
<path d="M73.7871 5.8623C75.1355 5.7748 76.4653 6.19139 77.5283 7.0293L77.7373 7.20312L77.7432 7.20801L77.749 7.21387C78.2375 7.73948 78.6127 8.36286 78.8516 9.04395C79.0904 9.72516 79.1878 10.4496 79.1367 11.1709V20.0391H77.5898V17.9629C77.16 18.5892 76.5887 19.105 75.917 19.459L75.915 19.46C74.9737 19.9348 73.9323 20.1671 72.8818 20.1396L72.8828 20.1406C71.5723 20.2156 70.2768 19.8254 69.2178 19.0371L69.21 19.0312C68.7935 18.6734 68.4569 18.2289 68.2227 17.7285C67.9884 17.228 67.8613 16.6821 67.8506 16.1279C67.8399 15.5738 67.9454 15.0232 68.1602 14.5137C68.3749 14.0042 68.6944 13.5471 69.0967 13.1729L69.1104 13.1611C70.2561 12.3286 71.6555 11.9383 73.0586 12.0586H77.5479V11.0898L77.5566 10.8975C77.5658 10.4492 77.4955 10.0024 77.3477 9.5791C77.1803 9.10013 76.9179 8.66098 76.5771 8.29004L76.4248 8.16309C75.6503 7.55082 74.6791 7.24905 73.6973 7.32031L73.6865 7.32129C72.8214 7.31899 71.9628 7.47681 71.1533 7.78809L71.1514 7.78906C70.4021 8.0641 69.7109 8.48263 69.1152 9.02148L68.9873 9.13672L68.8906 8.99414L68.2461 8.04785L68.1719 7.94043L68.2695 7.85254C68.9939 7.19901 69.839 6.69877 70.7559 6.38184C71.7298 6.03323 72.7556 5.85696 73.7881 5.86133L73.7871 5.8623ZM73.0459 13.415C72.0664 13.3302 71.0862 13.5794 70.2617 14.125C69.9862 14.3525 69.7668 14.6437 69.6211 14.9736C69.4749 15.3047 69.4075 15.6665 69.4238 16.0293L69.4248 16.041L69.2744 16.0361L69.4238 16.041C69.4107 16.4259 69.4885 16.8084 69.6504 17.1562C69.8113 17.5019 70.051 17.8028 70.3486 18.0352L70.4971 18.1348C71.2505 18.6165 72.1339 18.8476 73.0244 18.793L73.0381 18.792V18.793C74.0263 18.8195 74.9998 18.543 75.832 17.999C76.6114 17.4614 77.2069 16.6904 77.5391 15.793V13.416H73.0459V13.415Z" fill="#BD9F7C" stroke="#BD9F7C" stroke-width="0.3"/>
<path d="M85.7559 5.56152V20.1504H84.2441V5.56152H85.7559ZM85.2256 -0.126953C85.4516 -0.0789483 85.6579 0.0418132 85.8193 0.217773H85.8184C85.9271 0.332158 86.0126 0.470123 86.0693 0.62207C86.1257 0.773282 86.1526 0.93562 86.1494 1.09863C86.1506 1.26443 86.1225 1.42977 86.0664 1.58398C86.0104 1.73792 85.9272 1.87865 85.8213 1.99805C85.7151 2.11764 85.5877 2.21404 85.4463 2.2793C85.3059 2.34401 85.1549 2.37587 85.002 2.375L85.0029 2.37598L85 2.375L84.999 2.37598V2.375C84.8468 2.37745 84.696 2.34736 84.5557 2.28418C84.4142 2.22041 84.2862 2.12528 84.1797 2.00684V2.00586C84.0728 1.89129 83.9879 1.75432 83.9316 1.60352C83.8749 1.45139 83.8479 1.28807 83.8506 1.12402C83.8525 0.876637 83.9183 0.633642 84.042 0.425781C84.1659 0.217716 84.3433 0.0526461 84.5537 -0.046875C84.7647 -0.146581 84.9992 -0.174933 85.2256 -0.126953Z" fill="#BD9F7C" stroke="#BD9F7C" stroke-width="0.3"/>
</g>
<path d="M2.744 34.428H7.784V35.618H2.744V34.428ZM2.87 38.782H8.582V40H1.47V30.2H8.386V31.418H2.87V38.782ZM12.4759 40L9.22786 32.58H10.6279L13.5119 39.3H12.8399L15.7799 32.58H17.0959L13.8479 40H12.4759ZM21.4491 40.084C20.6558 40.084 19.9558 39.9207 19.3491 39.594C18.7518 39.2673 18.2851 38.8193 17.9491 38.25C17.6224 37.6807 17.4591 37.0273 17.4591 36.29C17.4591 35.5527 17.6178 34.8993 17.9351 34.33C18.2618 33.7607 18.7051 33.3173 19.2651 33C19.8344 32.6733 20.4738 32.51 21.1831 32.51C21.9018 32.51 22.5364 32.6687 23.0871 32.986C23.6378 33.3033 24.0671 33.7513 24.3751 34.33C24.6924 34.8993 24.8511 35.5667 24.8511 36.332C24.8511 36.388 24.8464 36.4533 24.8371 36.528C24.8371 36.6027 24.8324 36.6727 24.8231 36.738H18.5091V35.772H24.1231L23.5771 36.108C23.5864 35.632 23.4884 35.2073 23.2831 34.834C23.0778 34.4607 22.7931 34.1713 22.4291 33.966C22.0744 33.7513 21.6591 33.644 21.1831 33.644C20.7164 33.644 20.3011 33.7513 19.9371 33.966C19.5731 34.1713 19.2884 34.4653 19.0831 34.848C18.8778 35.2213 18.7751 35.6507 18.7751 36.136V36.36C18.7751 36.8547 18.8871 37.298 19.1111 37.69C19.3444 38.0727 19.6664 38.3713 20.0771 38.586C20.4878 38.8007 20.9591 38.908 21.4911 38.908C21.9298 38.908 22.3264 38.8333 22.6811 38.684C23.0451 38.5347 23.3624 38.3107 23.6331 38.012L24.3751 38.88C24.0391 39.272 23.6191 39.5707 23.1151 39.776C22.6204 39.9813 22.0651 40.084 21.4491 40.084ZM30.6794 32.51C31.286 32.51 31.818 32.6267 32.2754 32.86C32.742 33.0933 33.106 33.448 33.3674 33.924C33.6287 34.4 33.7594 35.002 33.7594 35.73V40H32.4154V35.884C32.4154 35.1653 32.238 34.624 31.8834 34.26C31.538 33.896 31.048 33.714 30.4134 33.714C29.9374 33.714 29.522 33.8073 29.1674 33.994C28.8127 34.1807 28.5374 34.456 28.3414 34.82C28.1547 35.184 28.0614 35.6367 28.0614 36.178V40H26.7174V32.58H28.0054V34.582L27.7954 34.05C28.038 33.5647 28.4114 33.1867 28.9154 32.916C29.4194 32.6453 30.0074 32.51 30.6794 32.51ZM38.7947 40.084C38.048 40.084 37.4693 39.8833 37.0587 39.482C36.648 39.0807 36.4427 38.5067 36.4427 37.76V30.956H37.7867V37.704C37.7867 38.1053 37.8847 38.4133 38.0807 38.628C38.286 38.8427 38.5753 38.95 38.9487 38.95C39.3687 38.95 39.7187 38.8333 39.9987 38.6L40.4187 39.566C40.2133 39.7433 39.966 39.874 39.6767 39.958C39.3967 40.042 39.1027 40.084 38.7947 40.084ZM35.1827 33.686V32.58H39.9147V33.686H35.1827ZM48.8553 40.112C48.1086 40.112 47.3946 40 46.7133 39.776C46.032 39.5427 45.4953 39.244 45.1033 38.88L45.6213 37.788C45.9946 38.1147 46.4706 38.3853 47.0493 38.6C47.628 38.8147 48.23 38.922 48.8553 38.922C49.4246 38.922 49.8866 38.8567 50.2413 38.726C50.596 38.5953 50.8573 38.418 51.0253 38.194C51.1933 37.9607 51.2773 37.6993 51.2773 37.41C51.2773 37.074 51.1653 36.8033 50.9413 36.598C50.7266 36.3927 50.442 36.2293 50.0873 36.108C49.742 35.9773 49.3593 35.8653 48.9393 35.772C48.5193 35.6787 48.0946 35.5713 47.6653 35.45C47.2453 35.3193 46.858 35.156 46.5033 34.96C46.158 34.764 45.878 34.5027 45.6633 34.176C45.4486 33.84 45.3413 33.4107 45.3413 32.888C45.3413 32.384 45.472 31.922 45.7333 31.502C46.004 31.0727 46.4146 30.732 46.9653 30.48C47.5253 30.2187 48.2346 30.088 49.0933 30.088C49.6626 30.088 50.2273 30.1627 50.7873 30.312C51.3473 30.4613 51.8326 30.676 52.2433 30.956L51.7813 32.076C51.3613 31.796 50.918 31.5953 50.4513 31.474C49.9846 31.3433 49.532 31.278 49.0933 31.278C48.5426 31.278 48.09 31.348 47.7353 31.488C47.3806 31.628 47.1193 31.8147 46.9513 32.048C46.7926 32.2813 46.7133 32.5427 46.7133 32.832C46.7133 33.1773 46.8206 33.4527 47.0353 33.658C47.2593 33.8633 47.544 34.0267 47.8893 34.148C48.244 34.2693 48.6313 34.3813 49.0513 34.484C49.4713 34.5773 49.8913 34.6847 50.3113 34.806C50.7406 34.9273 51.128 35.086 51.4733 35.282C51.828 35.478 52.1126 35.7393 52.3273 36.066C52.542 36.3927 52.6493 36.8127 52.6493 37.326C52.6493 37.8207 52.514 38.2827 52.2433 38.712C51.9726 39.132 51.5526 39.4727 50.9833 39.734C50.4233 39.986 49.714 40.112 48.8553 40.112ZM58.4326 40.084C57.8166 40.084 57.2519 39.944 56.7386 39.664C56.2346 39.3747 55.8286 38.95 55.5206 38.39C55.2219 37.83 55.0726 37.13 55.0726 36.29C55.0726 35.45 55.2173 34.75 55.5066 34.19C55.8053 33.63 56.2066 33.21 56.7106 32.93C57.2239 32.65 57.7979 32.51 58.4326 32.51C59.1606 32.51 59.8046 32.6687 60.3646 32.986C60.9246 33.3033 61.3679 33.7467 61.6946 34.316C62.0213 34.876 62.1846 35.534 62.1846 36.29C62.1846 37.046 62.0213 37.7087 61.6946 38.278C61.3679 38.8473 60.9246 39.2907 60.3646 39.608C59.8046 39.9253 59.1606 40.084 58.4326 40.084ZM54.4986 42.716V32.58H55.7866V34.582L55.7026 36.304L55.8426 38.026V42.716H54.4986ZM58.3206 38.908C58.7966 38.908 59.2213 38.8007 59.5946 38.586C59.9773 38.3713 60.2759 38.068 60.4906 37.676C60.7146 37.2747 60.8266 36.8127 60.8266 36.29C60.8266 35.758 60.7146 35.3007 60.4906 34.918C60.2759 34.526 59.9773 34.2227 59.5946 34.008C59.2213 33.7933 58.7966 33.686 58.3206 33.686C57.8539 33.686 57.4293 33.7933 57.0466 34.008C56.6733 34.2227 56.3746 34.526 56.1506 34.918C55.9359 35.3007 55.8286 35.758 55.8286 36.29C55.8286 36.8127 55.9359 37.2747 56.1506 37.676C56.3746 38.068 56.6733 38.3713 57.0466 38.586C57.4293 38.8007 57.8539 38.908 58.3206 38.908ZM68.5792 40V38.432L68.5092 38.138V35.464C68.5092 34.8947 68.3412 34.456 68.0052 34.148C67.6786 33.8307 67.1839 33.672 66.5212 33.672C66.0826 33.672 65.6532 33.7467 65.2332 33.896C64.8132 34.036 64.4586 34.2273 64.1692 34.47L63.6092 33.462C63.9919 33.154 64.4492 32.9207 64.9812 32.762C65.5226 32.594 66.0872 32.51 66.6752 32.51C67.6926 32.51 68.4766 32.7573 69.0272 33.252C69.5779 33.7467 69.8532 34.5027 69.8532 35.52V40H68.5792ZM66.1432 40.084C65.5926 40.084 65.1072 39.9907 64.6872 39.804C64.2766 39.6173 63.9592 39.3607 63.7352 39.034C63.5112 38.698 63.3992 38.32 63.3992 37.9C63.3992 37.4987 63.4926 37.1347 63.6792 36.808C63.8752 36.4813 64.1879 36.22 64.6172 36.024C65.0559 35.828 65.6439 35.73 66.3812 35.73H68.7332V36.696H66.4372C65.7652 36.696 65.3126 36.808 65.0792 37.032C64.8459 37.256 64.7292 37.5267 64.7292 37.844C64.7292 38.208 64.8739 38.502 65.1632 38.726C65.4526 38.9407 65.8539 39.048 66.3672 39.048C66.8712 39.048 67.3099 38.936 67.6832 38.712C68.0659 38.488 68.3412 38.1613 68.5092 37.732L68.7752 38.656C68.5979 39.0947 68.2852 39.4447 67.8372 39.706C67.3892 39.958 66.8246 40.084 66.1432 40.084ZM75.5744 40.084C74.8184 40.084 74.1417 39.9207 73.5444 39.594C72.9564 39.2673 72.4944 38.8193 72.1584 38.25C71.8224 37.6807 71.6544 37.0273 71.6544 36.29C71.6544 35.5527 71.8224 34.8993 72.1584 34.33C72.4944 33.7607 72.9564 33.3173 73.5444 33C74.1417 32.6733 74.8184 32.51 75.5744 32.51C76.2464 32.51 76.8437 32.6453 77.3664 32.916C77.8984 33.1773 78.3091 33.5693 78.5984 34.092L77.5764 34.75C77.3337 34.386 77.0351 34.12 76.6804 33.952C76.3351 33.7747 75.9617 33.686 75.5604 33.686C75.0751 33.686 74.6411 33.7933 74.2584 34.008C73.8757 34.2227 73.5724 34.526 73.3484 34.918C73.1244 35.3007 73.0124 35.758 73.0124 36.29C73.0124 36.822 73.1244 37.284 73.3484 37.676C73.5724 38.068 73.8757 38.3713 74.2584 38.586C74.6411 38.8007 75.0751 38.908 75.5604 38.908C75.9617 38.908 76.3351 38.824 76.6804 38.656C77.0351 38.4787 77.3337 38.208 77.5764 37.844L78.5984 38.488C78.3091 39.0013 77.8984 39.398 77.3664 39.678C76.8437 39.9487 76.2464 40.084 75.5744 40.084ZM83.5331 40.084C82.7397 40.084 82.0397 39.9207 81.4331 39.594C80.8357 39.2673 80.3691 38.8193 80.0331 38.25C79.7064 37.6807 79.5431 37.0273 79.5431 36.29C79.5431 35.5527 79.7017 34.8993 80.0191 34.33C80.3457 33.7607 80.7891 33.3173 81.3491 33C81.9184 32.6733 82.5577 32.51 83.2671 32.51C83.9857 32.51 84.6204 32.6687 85.1711 32.986C85.7217 33.3033 86.1511 33.7513 86.4591 34.33C86.7764 34.8993 86.9351 35.5667 86.9351 36.332C86.9351 36.388 86.9304 36.4533 86.9211 36.528C86.9211 36.6027 86.9164 36.6727 86.9071 36.738H80.5931V35.772H86.2071L85.6611 36.108C85.6704 35.632 85.5724 35.2073 85.3671 34.834C85.1617 34.4607 84.8771 34.1713 84.5131 33.966C84.1584 33.7513 83.7431 33.644 83.2671 33.644C82.8004 33.644 82.3851 33.7513 82.0211 33.966C81.6571 34.1713 81.3724 34.4653 81.1671 34.848C80.9617 35.2213 80.8591 35.6507 80.8591 36.136V36.36C80.8591 36.8547 80.9711 37.298 81.1951 37.69C81.4284 38.0727 81.7504 38.3713 82.1611 38.586C82.5717 38.8007 83.0431 38.908 83.5751 38.908C84.0137 38.908 84.4104 38.8333 84.7651 38.684C85.1291 38.5347 85.4464 38.3107 85.7171 38.012L86.4591 38.88C86.1231 39.272 85.7031 39.5707 85.1991 39.776C84.7044 39.9813 84.1491 40.084 83.5331 40.084Z" fill="black"/>
<defs>
<clipPath id="clip0_127_234">
<rect width="86" height="20" fill="white"/>
</clipPath>
</defs>
</svg>
