<svg width="75" height="20" viewBox="0 0 75 20" fill="none" xmlns="http://www.w3.org/2000/svg">
<g clip-path="url(#clip0_127_514)">
<path d="M34.9924 18.7602V19.6761C34.9924 19.7262 34.9581 19.761 34.9003 19.761H34.6856C34.6633 19.7606 34.6419 19.7515 34.6262 19.7357C34.6105 19.7198 34.6017 19.6984 34.6016 19.6761V17.1411C34.6016 17.0981 34.6398 17.0562 34.6859 17.0562H34.7813C34.8195 17.0562 34.8428 17.0705 34.8581 17.1138L34.9039 17.2298C35.0556 17.0912 35.2542 17.0154 35.4597 17.0175C35.9463 17.0175 36.2945 17.4387 36.2945 17.9487C36.2945 18.4706 35.9272 18.8837 35.4444 18.8837C35.2145 18.8837 35.0229 18.7796 34.9924 18.7602ZM34.9852 18.3852C34.9852 18.3852 35.1574 18.5168 35.3954 18.5168C35.6826 18.5168 35.9125 18.2692 35.9125 17.9491C35.9125 17.6319 35.7131 17.3843 35.4102 17.3843C35.1536 17.3843 35.0004 17.5813 34.9852 17.6357V18.3852ZM36.5904 18.2889C36.5904 17.9602 36.8432 17.7131 37.2993 17.7131C37.4834 17.7131 37.6556 17.7671 37.6556 17.7671C37.6629 17.4851 37.5941 17.3577 37.3723 17.3577C37.1691 17.3577 36.9696 17.4154 36.8781 17.4426C36.8241 17.4535 36.7899 17.4192 36.7778 17.3691L36.7436 17.2222C36.7327 17.1601 36.7598 17.1335 36.8007 17.1178C36.8317 17.107 37.0846 17.0175 37.4104 17.0175C37.9776 17.0175 38.031 17.361 38.031 17.8056V18.7563C38.0302 18.7785 38.0211 18.7996 38.0054 18.8153C37.9898 18.831 37.9688 18.8403 37.9466 18.8413H37.8202C37.786 18.8413 37.7669 18.8269 37.7477 18.7793L37.7052 18.6601C37.6098 18.7526 37.4333 18.8843 37.1614 18.8843C36.8279 18.8843 36.5904 18.66 36.5904 18.2889ZM36.9658 18.2853C36.9658 18.4436 37.058 18.5673 37.2421 18.5673C37.418 18.5673 37.5979 18.4399 37.6518 18.3511V18.0534C37.6289 18.0372 37.491 17.9914 37.3298 17.9914C37.1233 17.9914 36.9658 18.0998 36.9658 18.2853ZM38.552 18.7566V17.1413C38.552 17.0984 38.5902 17.0564 38.6364 17.0564H38.7285C38.7463 17.057 38.7633 17.0634 38.7771 17.0746C38.7909 17.0858 38.8006 17.1012 38.8048 17.1184L38.8549 17.2807C38.918 17.1986 38.9992 17.1321 39.0922 17.0865C39.1852 17.0409 39.2875 17.0174 39.3911 17.0179C39.56 17.0179 39.7704 17.0642 39.7131 17.1839L39.621 17.3771C39.5981 17.4272 39.5523 17.4391 39.5137 17.42C39.4628 17.3981 39.4082 17.3861 39.3529 17.3847C39.0924 17.3847 38.9507 17.5936 38.935 17.6247V18.7566C38.935 18.834 38.8854 18.8416 38.8124 18.8416H38.6364C38.614 18.8413 38.5926 18.8323 38.5768 18.8164C38.5611 18.8005 38.5521 18.779 38.552 18.7566ZM40.1501 18.3511V17.3846H39.9469C39.9245 17.3844 39.9031 17.3753 39.8873 17.3594C39.8715 17.3436 39.8626 17.3221 39.8625 17.2997V17.1414C39.862 17.1302 39.8638 17.1189 39.8678 17.1084C39.8719 17.0979 39.878 17.0884 39.886 17.0804C39.8939 17.0724 39.9034 17.0662 39.9139 17.062C39.9244 17.0579 39.9356 17.056 39.9469 17.0565H40.1496V16.558C40.1496 16.5116 40.1879 16.4731 40.234 16.4731H40.4525C40.4983 16.4731 40.5331 16.5113 40.5331 16.558V17.0565H41.0006C41.0464 17.0565 41.0846 17.0913 41.0846 17.1414V17.2997C41.0846 17.3427 41.0464 17.3846 41.0002 17.3846H40.5327V18.3354C40.5327 18.4861 40.5904 18.5167 40.6748 18.5167C40.7861 18.5167 40.8933 18.4709 40.9581 18.4323C41.0121 18.4013 41.0463 18.4323 41.0616 18.4705L41.1309 18.6523C41.15 18.699 41.1309 18.7296 41.0885 18.7572C41.016 18.803 40.809 18.8841 40.5981 18.8841C40.2456 18.8841 40.1501 18.6679 40.1501 18.3511ZM42.2953 17.9452C42.2953 17.4428 42.7013 17.0178 43.1998 17.0178C43.694 17.0178 44.1 17.4424 44.1 17.9452C44.1 18.4556 43.694 18.884 43.1998 18.884C42.7013 18.884 42.2953 18.4551 42.2953 17.9452ZM42.6708 17.9452C42.6708 18.2738 42.9007 18.5171 43.1998 18.5171C43.4946 18.5171 43.7246 18.2738 43.7246 17.9452C43.7246 17.6246 43.4946 17.3846 43.1998 17.3846C42.9007 17.3846 42.6708 17.6246 42.6708 17.9452ZM44.6744 18.7566V17.4161H44.4449C44.4224 17.4159 44.4008 17.4067 44.385 17.3906C44.3692 17.3746 44.3604 17.3529 44.3605 17.3303V17.1414C44.36 17.1301 44.3618 17.1189 44.3658 17.1084C44.3699 17.0979 44.3761 17.0884 44.384 17.0804C44.3919 17.0724 44.4015 17.0661 44.4119 17.062C44.4224 17.0579 44.4336 17.056 44.4449 17.0565H44.6748V16.8514C44.6748 16.3724 44.901 16.0977 45.3298 16.0977C45.5674 16.0977 45.751 16.2026 45.8317 16.2756C45.8621 16.3028 45.8659 16.3491 45.8461 16.3762L45.735 16.5385C45.7083 16.5814 45.6663 16.5851 45.6205 16.5547C45.5382 16.4947 45.4385 16.4634 45.3367 16.4654C45.1373 16.4654 45.0571 16.6277 45.0571 16.8519V17.057H45.559C45.6048 17.057 45.6434 17.0918 45.6434 17.1419V17.3313C45.6434 17.3742 45.6051 17.4162 45.559 17.4162H45.0571V18.7572C45.0563 18.7794 45.0472 18.8004 45.0316 18.8161C45.0159 18.8319 44.9949 18.8411 44.9728 18.8421H44.7581C44.736 18.841 44.7151 18.8317 44.6995 18.816C44.684 18.8003 44.6752 18.7788 44.6744 18.7566Z" fill="#0F172A"/>
<path fill-rule="evenodd" clip-rule="evenodd" d="M56.645 16.0763C56.645 15.8736 56.8073 15.709 57.0076 15.709C57.208 15.709 57.3711 15.8736 57.3711 16.0763C57.3711 16.2791 57.2079 16.4437 57.0076 16.4437C56.9597 16.4433 56.9123 16.4336 56.8681 16.4149C56.8239 16.3963 56.7839 16.3691 56.7502 16.335C56.7166 16.3009 56.6899 16.2605 56.6719 16.2161C56.6538 16.1717 56.6447 16.1242 56.645 16.0763ZM50.683 18.3609C50.37 18.3609 50.153 18.1104 50.153 17.7522C50.153 17.3944 50.37 17.1439 50.683 17.1439C50.9978 17.1439 51.2172 17.3944 51.2172 17.7522C51.2172 18.1161 51.0026 18.3609 50.683 18.3609ZM50.683 16.6092C50.0213 16.6092 49.5409 17.09 49.5409 17.7522C49.5409 18.4148 50.0213 18.8956 50.683 18.8956C51.3475 18.8956 51.8298 18.4148 51.8298 17.7522C51.8298 17.09 51.3475 16.6092 50.683 16.6092ZM55.9414 17.8094C55.9183 17.7647 55.889 17.7234 55.8545 17.6868L55.8344 17.6653L55.8556 17.6448C55.8892 17.609 55.9198 17.5705 55.9471 17.5298L56.531 16.6539H55.8222L55.3833 17.3389C55.3584 17.3757 55.3079 17.3943 55.2331 17.3943H55.1328V16.0991C55.1328 15.8401 54.9731 15.8048 54.8003 15.8048H54.5046V18.8621H55.1328V17.9448H55.192C55.2636 17.9448 55.3123 17.9538 55.3352 17.9925L55.6815 18.6523C55.7783 18.8312 55.8747 18.8622 56.0565 18.8622H56.5377L56.179 18.2635L55.9414 17.8094ZM58.9912 16.6039C58.6715 16.6039 58.4679 16.747 58.3534 16.8682L58.3152 16.9073L58.3026 16.8543C58.2692 16.7245 58.1561 16.653 57.9858 16.653H57.7043L57.7058 18.8612H58.3297V17.8437C58.3297 17.7434 58.3423 17.6576 58.3689 17.5789C58.4381 17.3404 58.6322 17.1925 58.874 17.1925C59.0691 17.1925 59.145 17.296 59.145 17.5636V18.5253C59.145 18.7543 59.2499 18.8612 59.4765 18.8612H59.7737L59.7728 17.4568C59.7728 16.8987 59.5021 16.6039 58.9912 16.6039ZM57.0159 16.6539H56.7202L56.722 18.3618V18.8617H57.0373L57.0481 18.8622L57.1951 18.8617H57.3415L57.3434 16.9893C57.3434 16.7637 57.2372 16.6539 57.0159 16.6539ZM53.1335 18.3608C52.821 18.3608 52.603 18.1104 52.603 17.7521C52.603 17.3943 52.821 17.1439 53.1335 17.1439C53.4478 17.1439 53.6678 17.3943 53.6678 17.7521C53.6678 18.1161 53.4531 18.3608 53.1335 18.3608ZM53.1335 16.6091C52.4709 16.6091 51.9905 17.09 51.9905 17.7521C51.9905 18.4147 52.4709 18.8956 53.1335 18.8956C53.797 18.8956 54.2803 18.4147 54.2803 17.7521C54.2803 17.09 53.797 16.6091 53.1335 16.6091ZM61.0872 18.264C60.7461 18.264 60.6245 17.9634 60.6245 17.682C60.6245 17.5585 60.656 17.1544 61.0543 17.1544C61.2528 17.1544 61.517 17.2117 61.517 17.703C61.517 18.1666 61.2828 18.264 61.0872 18.264ZM61.8409 16.6482C61.7221 16.6482 61.631 16.696 61.5852 16.7828L61.5672 16.8161L61.5386 16.7912C61.4374 16.7031 61.2571 16.599 60.9637 16.599C60.3803 16.599 59.9877 17.0407 59.9877 17.6986C59.9877 18.3559 60.3936 18.8148 60.9756 18.8148C61.1741 18.8148 61.331 18.7681 61.4555 18.6731L61.5037 18.6363V18.6978C61.5037 18.9931 61.3148 19.1558 60.9718 19.1558C60.8048 19.1558 60.6536 19.1143 60.5519 19.0775C60.4198 19.0375 60.3421 19.0703 60.2887 19.2045L60.239 19.3285L60.1689 19.5088L60.2123 19.5323C60.4318 19.6496 60.7175 19.7197 60.9756 19.7197C61.5071 19.7197 62.1277 19.4454 62.1277 18.6731L62.1295 16.6481L61.8409 16.6482ZM48.3588 18.3356H47.8507V17.7226C47.8507 17.5913 47.9008 17.5236 48.0119 17.5079H48.3587C48.6058 17.5079 48.7656 17.6653 48.7656 17.9195C48.7656 18.1809 48.6097 18.3356 48.3588 18.3356ZM47.8507 16.6831V16.5219C47.8507 16.3811 47.9099 16.3139 48.0396 16.3053H48.2996C48.5229 16.3053 48.656 16.4398 48.656 16.665C48.656 16.8368 48.5649 17.0371 48.3077 17.0371H47.8507V16.6831ZM49.0076 17.2946L48.9154 17.2421L48.9955 17.1735C49.089 17.0923 49.245 16.9111 49.245 16.5963C49.245 16.1164 48.8753 15.8063 48.3038 15.8063H47.5768C47.4946 15.8095 47.4168 15.8442 47.3595 15.9033C47.3023 15.9624 47.2701 16.0413 47.2695 16.1235V18.8507H48.3166C48.9525 18.8507 49.3628 18.5016 49.3628 17.9611C49.3628 17.6701 49.2303 17.421 49.0076 17.2946ZM62.3757 18.5197C62.3757 18.3164 62.5378 18.1523 62.7382 18.1523C62.9386 18.1523 63.1018 18.3164 63.1018 18.5197C63.1018 18.7224 62.9386 18.887 62.7382 18.887C62.6903 18.8867 62.643 18.877 62.5988 18.8583C62.5546 18.8397 62.5146 18.8126 62.4809 18.7784C62.4472 18.7443 62.4206 18.7039 62.4026 18.6595C62.3845 18.6151 62.3754 18.5676 62.3757 18.5197ZM66.5093 18.3608C66.1963 18.3608 65.9783 18.1104 65.9783 17.7522C65.9783 17.3944 66.1963 17.1439 66.5093 17.1439C66.8232 17.1439 67.0436 17.3944 67.0436 17.7522C67.0436 18.1161 66.8284 18.3608 66.5093 18.3608ZM66.5093 16.6092C65.8467 16.6092 65.3663 17.09 65.3663 17.7522C65.3663 18.4148 65.8467 18.8956 66.5093 18.8956C67.1729 18.8956 67.6561 18.4148 67.6561 17.7522C67.6561 17.09 67.1729 16.6092 66.5093 16.6092ZM70.4434 16.6109C70.1849 16.6109 69.9344 16.7336 69.7736 16.9382L69.7284 16.9964L69.6931 16.9315C69.5771 16.7188 69.3782 16.6109 69.1015 16.6109C68.8115 16.6109 68.6173 16.7741 68.5272 16.8714L68.4675 16.9358L68.4452 16.8509C68.4118 16.7288 68.304 16.661 68.1403 16.661H67.8779L67.8761 18.8602H68.4725V17.8899C68.4725 17.805 68.4832 17.7206 68.504 17.6323C68.5611 17.398 68.7173 17.1457 68.9801 17.1709C69.1424 17.1872 69.221 17.3127 69.221 17.5569V18.8606H69.8211V17.8899C69.8211 17.7835 69.8301 17.7038 69.8545 17.6241C69.9031 17.3999 70.0663 17.1709 70.3201 17.1709C70.5033 17.1709 70.5715 17.2753 70.5715 17.5569V18.5391C70.5715 18.7614 70.6697 18.8606 70.8897 18.8606H71.1701L71.1706 17.4567C71.1706 16.8957 70.9252 16.6109 70.4434 16.6109ZM65.022 18.0969C65.0202 18.0987 64.764 18.3717 64.4262 18.3717C64.1185 18.3717 63.8079 18.1818 63.8079 17.7568C63.8079 17.3895 64.0488 17.1333 64.3938 17.1333C64.5059 17.1333 64.6328 17.1739 64.6528 17.2416L64.6564 17.2543C64.669 17.301 64.6967 17.3422 64.7352 17.3716C64.7737 17.4009 64.8208 17.4167 64.8692 17.4165L65.1954 17.417V17.1293C65.1954 16.7496 64.7165 16.6117 64.394 16.6117C63.7052 16.6117 63.2053 17.0955 63.2053 17.7619C63.2053 18.4283 63.6999 18.9115 64.3816 18.9115C64.9731 18.9115 65.2951 18.5195 65.298 18.5157L65.3161 18.4942L65.0575 18.061L65.0242 18.0978" fill="#0F172A"/>
<path fill-rule="evenodd" clip-rule="evenodd" d="M0.238525 8.53162C0.238525 7.38672 1.16015 6.45841 2.29647 6.45841C3.43326 6.45841 4.35493 7.38672 4.35493 8.53162C4.35493 9.67699 3.43326 10.6053 2.29647 10.6053C1.16015 10.6053 0.238525 9.67748 0.238525 8.53162ZM14.6953 10.6053C13.5585 10.6053 12.6373 9.67699 12.6373 8.53162C12.6373 7.38672 13.5585 6.45841 14.6953 6.45841C15.8316 6.45841 16.7537 7.38672 16.7537 8.53162C16.7537 9.67699 15.8316 10.6053 14.6953 10.6053ZM14.6953 0.238281C10.1491 0.238281 6.46297 3.95155 6.46297 8.53162C6.46297 13.1126 10.1486 16.8255 14.6953 16.8255C19.2425 16.8255 22.9281 13.1126 22.9281 8.53162C22.9281 3.95202 19.2425 0.238281 14.6953 0.238281Z" fill="#DA3743"/>
<path fill-rule="evenodd" clip-rule="evenodd" d="M73.5338 7.89037C73.664 7.89037 73.7408 7.83157 73.7408 7.72519C73.7408 7.62837 73.6883 7.56491 73.5433 7.56491H73.4083V7.89026L73.5338 7.89037ZM73.2108 7.40045H73.5767C73.779 7.40045 73.9526 7.48303 73.9526 7.71529C73.9531 7.77251 73.9363 7.8285 73.9046 7.87612C73.8729 7.92374 73.8276 7.96078 73.7746 7.98243L73.996 8.38553H73.7746L73.6054 8.04587H73.4083V8.38553H73.2109L73.2108 7.40045ZM74.2746 7.90468C74.2746 7.44912 73.9622 7.12374 73.5581 7.12374C73.1531 7.12374 72.8449 7.44912 72.8449 7.90468C72.8449 8.36598 73.1531 8.68078 73.5581 8.68078C73.9622 8.68078 74.2746 8.36598 74.2746 7.90468ZM72.6522 7.90468C72.6522 7.33701 73.0615 6.94915 73.5581 6.94915C74.0585 6.94915 74.4678 7.33701 74.4678 7.90468C74.4678 8.47237 74.0585 8.86065 73.5581 8.86065C73.0615 8.86065 72.6522 8.47237 72.6522 7.90468ZM66.6105 11.7845C66.67 11.7838 66.7269 11.7599 66.769 11.7178C66.8111 11.6757 66.835 11.6188 66.8356 11.5593V10.7269C66.8353 10.6675 66.8116 10.6107 66.7698 10.5686C66.7279 10.5265 66.6712 10.5024 66.6119 10.5017H66.576C66.4749 10.5017 66.3743 10.4005 66.3743 10.2985V5.36586C66.3743 5.25336 66.2621 5.14065 66.1505 5.14065H65.3276C65.216 5.14065 65.1043 5.25321 65.1043 5.36586V10.8304L65.108 10.9724C65.108 11.3793 65.512 11.7858 65.9156 11.7858L66.6105 11.7845ZM30.391 6.44349C31.5107 6.44349 32.4557 7.39896 32.4557 8.53194C32.4561 9.08021 32.2389 9.60624 31.8518 9.99451C31.4647 10.3828 30.9393 10.6015 30.391 10.6028C29.2581 10.6028 28.3369 9.67493 28.3369 8.53194C28.3369 7.38037 29.2581 6.44349 30.391 6.44349ZM30.391 5.12827C28.5387 5.12827 27.0312 6.65477 27.0312 8.53194C27.0312 10.4306 28.5062 11.9185 30.391 11.9185C32.2811 11.9185 33.7614 10.4306 33.7614 8.5315C33.7614 6.65529 32.2491 5.12827 30.391 5.12827ZM57.2018 10.4358C57.1412 10.61 56.7753 10.9372 56.3589 10.9372C55.9219 10.9372 55.6781 10.671 55.6781 10.2718C55.6781 9.85196 55.9724 9.59625 56.511 9.59625C56.8869 9.59625 57.2018 9.73942 57.2018 9.73942V10.4358ZM56.6532 6.94535C55.8913 6.94535 55.1496 7.13949 55.0479 7.18052C54.9462 7.21099 54.8547 7.293 54.8952 7.46719L54.9973 7.99959C55.0173 8.14275 55.1089 8.25527 55.261 8.20422C55.5358 8.12219 56.1555 8.03008 56.5825 8.03008C57.08 8.03008 57.2527 8.31679 57.2322 8.92073C57.2322 8.92073 56.8057 8.78763 56.3282 8.78763C55.1394 8.78763 54.4582 9.43258 54.4582 10.2717C54.4582 11.2854 55.1089 11.8889 56.0434 11.8889C56.3162 11.8931 56.587 11.8427 56.84 11.7408C57.0931 11.6389 57.3233 11.4875 57.517 11.2955V11.5497C57.517 11.6729 57.6187 11.7749 57.7407 11.7749H57.8233C57.8328 11.7764 57.8424 11.777 57.852 11.7767H58.1978C58.2571 11.776 58.3139 11.752 58.3557 11.7098C58.3975 11.6677 58.4211 11.6109 58.4215 11.5515V9.00266C58.4215 7.71275 58.1163 6.94535 56.6532 6.94535ZM48.1237 6.94535C47.224 6.94535 46.7875 7.43142 46.6129 7.62747V7.27258C46.6125 7.21322 46.5888 7.15638 46.547 7.11427C46.5052 7.07217 46.4485 7.04817 46.3891 7.04742H45.8577C45.7983 7.04805 45.7416 7.07203 45.6997 7.11416C45.6578 7.15629 45.6342 7.21318 45.634 7.27258V11.5517C45.6361 11.6105 45.6603 11.6663 45.7018 11.708C45.7432 11.7498 45.7989 11.7743 45.8577 11.7768H46.6095C46.8333 11.7768 46.9043 11.7253 46.9043 11.5517V8.8492C47.0159 8.52147 47.3108 8.11217 47.9204 8.11217C48.4891 8.11217 48.7328 8.49096 48.7328 9.1049V11.5517C48.7328 11.6743 48.8349 11.7768 48.9571 11.7768H49.7795C49.8383 11.7743 49.8939 11.7498 49.9354 11.708C49.9769 11.6663 50.0011 11.6105 50.0032 11.5517V9.1049C50.0032 7.95857 49.6168 6.94535 48.1237 6.94535ZM36.9361 10.7226C36.3464 10.7226 35.9605 10.4564 35.9605 10.4564V8.76667C36.0622 8.50049 36.3875 8.11168 36.9971 8.11168C37.7284 8.11168 38.1044 8.75666 38.1044 9.42166C38.1044 10.0871 37.7089 10.7226 36.9361 10.7226ZM37.1698 6.94535C36.2043 6.94535 35.669 7.60842 35.6371 7.64992V7.27307C35.6368 7.21363 35.6132 7.15664 35.5714 7.11444C35.5295 7.07223 35.4728 7.04817 35.4134 7.04742H34.9139C34.8546 7.04829 34.798 7.07235 34.7563 7.11444C34.7146 7.15653 34.691 7.2133 34.6906 7.27258V13.4755C34.6926 13.5343 34.7167 13.5903 34.7581 13.6321C34.7995 13.6739 34.8551 13.6986 34.9139 13.7012H35.7373C35.8489 13.7012 35.9605 13.5881 35.9605 13.4755V11.6948C36.1738 11.7768 36.6212 11.8894 37.0882 11.8894C38.4907 11.8894 39.4153 10.8041 39.4153 9.4221C39.4153 7.98907 38.4497 6.94535 37.1698 6.94535ZM70.6772 8.81817C70.6572 8.35734 70.2913 7.9991 69.7732 7.9991C69.2041 7.9991 68.8383 8.34734 68.7777 8.81817H70.6772ZM69.8043 6.94486C71.0231 6.94486 71.9577 7.85601 71.9577 9.13543C71.9577 9.20701 71.9468 9.3706 71.9376 9.44263C71.9319 9.49916 71.9063 9.55185 71.8653 9.59119C71.8243 9.63053 71.7706 9.65398 71.7139 9.65733H68.7066C68.7174 10.2408 69.1941 10.7526 69.8754 10.7526C70.3424 10.7526 70.6673 10.5785 70.881 10.4044C70.9926 10.3122 71.1147 10.3023 71.1858 10.4044L71.5817 10.9367C71.6629 11.0289 71.6733 11.1419 71.5617 11.244C71.0769 11.6643 70.4555 11.8936 69.8139 11.8889C68.4118 11.8889 67.4363 10.7631 67.4363 9.41165C67.4363 8.08118 68.4123 6.94486 69.8043 6.94486ZM61.852 10.7226C61.2423 10.7226 60.917 10.3333 60.8153 10.0671V8.37837C60.8153 8.37837 61.2017 8.11217 61.7909 8.11217C62.5632 8.11217 62.9597 8.74666 62.9597 9.41214C62.9597 10.0776 62.5833 10.7226 61.852 10.7226ZM61.9636 6.94535C61.496 6.94535 61.0286 7.05785 60.8153 7.14998V5.3482C60.8132 5.2894 60.789 5.23356 60.7476 5.19183C60.7061 5.15009 60.6503 5.12553 60.5916 5.12305H59.7687C59.6571 5.12305 59.5454 5.23555 59.5454 5.3482V11.5517C59.5475 11.6104 59.5717 11.6661 59.613 11.7079C59.6544 11.7496 59.71 11.7742 59.7687 11.7768H60.1246C60.1318 11.7768 60.1372 11.7768 60.1446 11.775H60.24C60.2995 11.7745 60.3564 11.7506 60.3984 11.7085C60.4405 11.6663 60.4642 11.6094 60.4646 11.5498V11.2002L60.4701 11.1821C60.4701 11.1821 61.0091 11.8881 62.0348 11.8881C63.3156 11.8881 64.2401 10.7624 64.2401 9.41137C64.2401 8.02938 63.3556 6.94535 61.9636 6.94535ZM54.7745 5.12305H49.9955C49.9701 5.12317 49.945 5.12827 49.9215 5.13812C49.8981 5.14797 49.8768 5.16236 49.8589 5.18044C49.841 5.19851 49.8268 5.21995 49.8172 5.24349C49.8076 5.26704 49.8027 5.29223 49.8028 5.31766V6.15726C49.8028 6.25931 49.8839 6.35144 49.9955 6.35144H51.7195V11.5822C51.721 11.6331 51.7418 11.6816 51.7776 11.7177C51.8135 11.7539 51.8619 11.775 51.9128 11.7768H52.8573C52.9083 11.7751 52.9567 11.7541 52.9927 11.7179C53.0287 11.6817 53.0496 11.6332 53.051 11.5822V6.35144H54.7745C54.8 6.35137 54.8252 6.34623 54.8487 6.33641C54.8722 6.32659 54.8936 6.31224 54.9115 6.29416C54.9295 6.27608 54.9437 6.25468 54.9533 6.2311C54.9629 6.20752 54.9678 6.18224 54.9677 6.15676V5.31766C54.9678 5.29219 54.9629 5.26696 54.9533 5.24338C54.9437 5.2198 54.9295 5.19835 54.9115 5.18027C54.8936 5.16219 54.8722 5.14783 54.8487 5.13801C54.8252 5.12819 54.8 5.12311 54.7745 5.12305ZM43.398 8.81817C43.3775 8.35734 43.0116 7.9991 42.4936 7.9991C41.9249 7.9991 41.5586 8.34734 41.498 8.81817H43.398ZM42.5241 6.94486C43.7434 6.94486 44.6779 7.85601 44.6779 9.13543C44.6779 9.20701 44.6689 9.3706 44.6579 9.44263C44.6522 9.49913 44.6265 9.55176 44.5855 9.59108C44.5445 9.6304 44.4909 9.65389 44.4342 9.65733H41.4269C41.4377 10.2408 41.9145 10.7526 42.5957 10.7526C43.0632 10.7526 43.3876 10.5785 43.6013 10.4044C43.7129 10.3122 43.835 10.3023 43.9061 10.4044L44.3021 10.9367C44.3836 11.0289 44.3937 11.1419 44.2821 11.244C43.7972 11.6643 43.1758 11.8936 42.5342 11.8889C41.1321 11.8889 40.1571 10.7631 40.1571 9.41165C40.1571 8.08118 41.1321 6.94486 42.5241 6.94486Z" fill="#0F172A"/>
</g>
<defs>
<clipPath id="clip0_127_514">
<rect width="74.7076" height="20" fill="white"/>
</clipPath>
</defs>
</svg>
