<svg width="20" height="20" viewBox="0 0 20 20" fill="none" xmlns="http://www.w3.org/2000/svg">
<path fill-rule="evenodd" clip-rule="evenodd" d="M0.20752 10.4186C0.20752 9.42307 1.00893 8.61584 1.99703 8.61584C2.98555 8.61584 3.787 9.42307 3.787 10.4186C3.787 11.4146 2.98555 12.2219 1.99703 12.2219C1.00893 12.2219 0.20752 11.415 0.20752 10.4186ZM12.7786 12.2219C11.7901 12.2219 10.9891 11.4146 10.9891 10.4186C10.9891 9.42307 11.7901 8.61584 12.7786 8.61584C13.7667 8.61584 14.5685 9.42307 14.5685 10.4186C14.5685 11.4146 13.7667 12.2219 12.7786 12.2219ZM12.7786 3.20703C8.8254 3.20703 5.62008 6.43596 5.62008 10.4186C5.62008 14.4021 8.82497 17.6307 12.7786 17.6307C16.7327 17.6307 19.9376 14.4021 19.9376 10.4186C19.9376 6.43637 16.7327 3.20703 12.7786 3.20703Z" fill="#0F172A"/>
</svg>
