<svg width="24" height="24" viewBox="0 0 24 24" fill="none" xmlns="http://www.w3.org/2000/svg">
<path d="M13.6501 15.1956C11.4664 14.271 9.72988 12.5305 8.81035 10.3447L11.3603 7.79021L6.66537 3.0915L4.28714 5.46898C3.87464 5.88383 3.5485 6.37636 3.32759 6.91808C3.10668 7.45979 2.99539 8.03994 3.00015 8.62495C3.00015 14.0609 9.93909 20.9998 15.375 20.9998C15.96 21.0049 16.5401 20.8938 17.0818 20.6729C17.6234 20.4519 18.1158 20.1256 18.5303 19.7128L20.9085 17.3346L16.2098 12.6359L13.6501 15.1956ZM17.469 18.6524C17.1936 18.9254 16.8666 19.1409 16.5072 19.2864C16.1477 19.4319 15.7628 19.5045 15.375 19.4998C10.7003 19.4998 4.50013 13.2997 4.50013 8.62495C4.49572 8.23707 4.56836 7.85219 4.71384 7.4926C4.85932 7.13302 5.07475 6.8059 5.34763 6.53022L6.66537 5.21248L9.2431 7.79021L7.04186 9.99143L7.22561 10.4519C7.76654 11.8989 8.61217 13.2127 9.7052 14.3043C10.7982 15.3959 12.1131 16.2398 13.5608 16.7789L14.0153 16.9521L16.2098 14.7569L18.7875 17.3346L17.469 18.6524ZM13.5001 4.49999V3C15.4885 3.00218 17.3949 3.79305 18.8009 5.19909C20.2069 6.60513 20.9978 8.51149 21 10.4999H19.5C19.4982 8.90919 18.8655 7.38412 17.7407 6.2593C16.6159 5.13448 15.0908 4.50177 13.5001 4.49999ZM13.5001 7.49996V5.99997C14.6932 6.00116 15.8371 6.47565 16.6807 7.31929C17.5243 8.16294 17.9988 9.30683 18 10.4999H16.5C16.5 9.70429 16.184 8.94123 15.6214 8.37863C15.0588 7.81603 14.2957 7.49996 13.5001 7.49996Z" fill="white"/>
</svg>
