<svg width="16" height="16" viewBox="0 0 16 16" fill="none" xmlns="http://www.w3.org/2000/svg">
<g clip-path="url(#clip0_127_688)">
<path d="M9.46667 10.8407C7.5256 10.0188 5.98204 8.47164 5.16467 6.52867L7.43134 4.258L3.25801 0.0813333L1.14401 2.19467C0.777342 2.56343 0.48744 3.00124 0.291074 3.48277C0.0947092 3.9643 -0.00422088 4.47999 7.99724e-06 5C7.99724e-06 9.832 6.16801 16 11 16C11.52 16.0045 12.0356 15.9058 12.5171 15.7094C12.9986 15.513 13.4362 15.2229 13.8047 14.856L15.9187 12.742L11.742 8.56533L9.46667 10.8407ZM12.8613 13.9133C12.6165 14.156 12.3259 14.3476 12.0063 14.4769C11.6868 14.6063 11.3447 14.6708 11 14.6667C6.84467 14.6667 1.33334 9.15533 1.33334 5C1.32942 4.65522 1.39398 4.31309 1.5233 3.99346C1.65262 3.67383 1.84411 3.38305 2.08667 3.138L3.25801 1.96667L5.54934 4.258L3.59267 6.21467L3.75601 6.624C4.23684 7.91021 4.98852 9.07804 5.96011 10.0484C6.9317 11.0187 8.10051 11.7688 9.38734 12.248L9.79134 12.402L11.742 10.4507L14.0333 12.742L12.8613 13.9133ZM9.33334 1.33333V0C11.1009 0.00194106 12.7954 0.704943 14.0452 1.95477C15.2951 3.20459 15.9981 4.89915 16 6.66667H14.6667C14.6651 5.25267 14.1027 3.89703 13.1028 2.89718C12.103 1.89733 10.7473 1.33492 9.33334 1.33333ZM9.33334 4V2.66667C10.3939 2.66773 11.4107 3.08949 12.1606 3.83941C12.9105 4.58933 13.3323 5.60613 13.3333 6.66667H12C12 5.95942 11.7191 5.28115 11.219 4.78105C10.7189 4.28095 10.0406 4 9.33334 4Z" fill="#0F172A"/>
</g>
<defs>
<clipPath id="clip0_127_688">
<rect width="16" height="16" fill="white"/>
</clipPath>
</defs>
</svg>
