<svg width="18" height="18" viewBox="0 0 18 18" fill="none" xmlns="http://www.w3.org/2000/svg">
<path d="M10.6501 12.1956C8.46637 11.271 6.72988 9.53051 5.81035 7.34468L8.36033 4.79021L3.66537 0.0914991L1.28714 2.46898C0.87464 2.88383 0.548502 3.37636 0.327593 3.91808C0.106684 4.45979 -0.00461112 5.03994 0.000146325 5.62495C0.000146325 11.0609 6.93909 17.9998 12.375 17.9998C12.96 18.0049 13.5401 17.8938 14.0818 17.6729C14.6234 17.4519 15.1158 17.1256 15.5303 16.7128L17.9085 14.3346L13.2098 9.63591L10.6501 12.1956ZM14.469 15.6524C14.1936 15.9254 13.8666 16.1409 13.5072 16.2864C13.1477 16.4319 12.7628 16.5045 12.375 16.4998C7.70033 16.4998 1.50013 10.2997 1.50013 5.62495C1.49572 5.23707 1.56836 4.85219 1.71384 4.4926C1.85932 4.13302 2.07475 3.8059 2.34763 3.53022L3.66537 2.21248L6.2431 4.79021L4.04186 6.99143L4.22561 7.45193C4.76654 8.8989 5.61217 10.2127 6.7052 11.3043C7.79824 12.3959 9.11314 13.2398 10.5608 13.7789L11.0153 13.9521L13.2098 11.7569L15.7875 14.3346L14.469 15.6524ZM10.5001 1.49999V0C12.4885 0.00218368 14.3949 0.793054 15.8009 2.19909C17.2069 3.60513 17.9978 5.51149 18 7.49993H16.5C16.4982 5.90919 15.8655 4.38412 14.7407 3.2593C13.6159 2.13448 12.0908 1.50177 10.5001 1.49999ZM10.5001 4.49996V2.99997C11.6932 3.00116 12.8371 3.47565 13.6807 4.31929C14.5243 5.16294 14.9988 6.30683 15 7.49993H13.5C13.5 6.70429 13.184 5.94123 12.6214 5.37863C12.0588 4.81603 11.2957 4.49996 10.5001 4.49996Z" fill="white"/>
</svg>
