<svg width="16" height="16" viewBox="0 0 16 16" fill="none" xmlns="http://www.w3.org/2000/svg">
<g clip-path="url(#clip0_127_684)">
<path d="M8 16C6.41775 16 4.87104 15.5308 3.55544 14.6518C2.23985 13.7727 1.21447 12.5233 0.608967 11.0615C0.00346629 9.59966 -0.15496 7.99113 0.153721 6.43928C0.462403 4.88743 1.22433 3.46197 2.34315 2.34315C3.46197 1.22433 4.88743 0.462403 6.43928 0.153721C7.99113 -0.15496 9.59966 0.00346629 11.0615 0.608967C12.5233 1.21447 13.7727 2.23985 14.6518 3.55544C15.5308 4.87104 16 6.41775 16 8C15.9977 10.121 15.1541 12.1545 13.6543 13.6543C12.1545 15.1541 10.121 15.9977 8 16ZM8 1.33334C6.68146 1.33334 5.39253 1.72433 4.2962 2.45687C3.19987 3.18942 2.34539 4.23061 1.84081 5.44878C1.33622 6.66695 1.2042 8.0074 1.46144 9.30061C1.71867 10.5938 2.35361 11.7817 3.28596 12.714C4.21831 13.6464 5.4062 14.2813 6.6994 14.5386C7.99261 14.7958 9.33305 14.6638 10.5512 14.1592C11.7694 13.6546 12.8106 12.8001 13.5431 11.7038C14.2757 10.6075 14.6667 9.31855 14.6667 8C14.6647 6.23249 13.9617 4.53792 12.7119 3.2881C11.4621 2.03828 9.76752 1.33528 8 1.33334ZM13.3333 8H12C12 8.79113 11.7654 9.56449 11.3259 10.2223C10.8864 10.8801 10.2616 11.3928 9.53074 11.6955C8.79983 11.9983 7.99557 12.0775 7.21964 11.9231C6.44372 11.7688 5.73099 11.3878 5.17158 10.8284C4.61217 10.269 4.2312 9.55629 4.07686 8.78036C3.92252 8.00444 4.00173 7.20017 4.30449 6.46927C4.60724 5.73837 5.11993 5.11365 5.77772 4.67413C6.43552 4.2346 7.20888 4 8 4V2.66667C6.94517 2.66667 5.91402 2.97947 5.03696 3.5655C4.1599 4.15153 3.47631 4.98449 3.07265 5.95903C2.66898 6.93357 2.56336 8.00592 2.76915 9.04049C2.97494 10.0751 3.48289 11.0254 4.22877 11.7712C4.97465 12.5171 5.92496 13.0251 6.95952 13.2309C7.99409 13.4366 9.06644 13.331 10.041 12.9274C11.0155 12.5237 11.8485 11.8401 12.4345 10.963C13.0205 10.086 13.3333 9.05484 13.3333 8Z" fill="#0F172A"/>
</g>
<defs>
<clipPath id="clip0_127_684">
<rect width="16" height="16" fill="white"/>
</clipPath>
</defs>
</svg>
