<svg width="30" height="30" viewBox="0 0 30 30" fill="none" xmlns="http://www.w3.org/2000/svg">
<path d="M29.3089 15.6106H0.69351C0.353125 15.6106 0.078125 15.3356 0.078125 14.9952C0.078125 14.6548 0.353125 14.3798 0.69351 14.3798H27.8224L24.0877 10.6452C23.8474 10.4048 23.8474 10.0144 24.0877 9.77404C24.3281 9.53365 24.7185 9.53365 24.9589 9.77404L29.7454 14.5606C29.9224 14.7375 29.9743 15.001 29.8781 15.2317C29.782 15.4606 29.557 15.6106 29.3089 15.6106Z" fill="#0F172A"/>
<path d="M24.5172 20.4034C24.3596 20.4034 24.2019 20.3438 24.0826 20.2227C23.8422 19.9823 23.8422 19.5919 24.0826 19.3515L28.8749 14.5592C29.1153 14.3188 29.5057 14.3188 29.7461 14.5592C29.9865 14.7996 29.9865 15.19 29.7461 15.4303L24.9538 20.2227C24.8326 20.3438 24.6749 20.4034 24.5172 20.4034Z" fill="#0F172A"/>
</svg>
