<svg width="170" height="94" viewBox="0 0 170 94" fill="none" xmlns="http://www.w3.org/2000/svg">
<g clip-path="url(#clip0_127_266)">
<path d="M155.019 1.35367C157.51 1.04259 160.106 1.46952 162.294 2.71873C165.332 4.39326 167.535 7.48467 168.084 10.8985C168.37 12.8226 168.252 14.8285 167.586 16.665C166.654 19.3149 164.711 21.5922 162.239 22.9451C159.981 24.2008 157.294 24.6561 154.742 24.2437C152.104 23.8305 149.633 22.4695 147.871 20.4726C146.071 18.4602 145.02 15.8022 144.966 13.1102C144.89 10.568 145.696 8.01288 147.217 5.96894C149.051 3.46971 151.928 1.74658 155.019 1.35367ZM156.033 2.82729C154.984 3.05817 154.237 3.95254 153.818 4.88904C153.507 5.60276 152.915 6.19415 152.184 6.47445C151.116 6.90625 149.94 6.46959 148.849 6.75718C147.891 7.03263 147.197 8.04044 147.351 9.0296C147.573 10.3623 148.651 11.4105 148.692 12.7926C148.774 13.5679 148.269 14.2055 147.949 14.8633C147.558 15.6329 147.253 16.5289 147.504 17.3909C147.88 18.3582 148.964 18.9422 149.988 18.8426C151.059 18.7899 152.258 18.7697 153.123 19.5118C153.906 20.2976 154.254 21.4139 155.07 22.1755C155.855 22.8965 157.161 22.9661 158.011 22.3164C159.069 21.5112 159.321 20.0116 160.465 19.293C161.553 18.6879 162.843 19.0468 164.016 18.8507C164.982 18.7251 165.796 17.8381 165.766 16.8578C165.762 15.7398 164.971 14.8657 164.602 13.8595C164.24 13.1045 164.326 12.1972 164.725 11.4753C165.161 10.5996 165.773 9.70929 165.677 8.68773C165.569 7.61188 164.561 6.75882 163.489 6.73857C162.384 6.63487 161.121 6.94595 160.177 6.20631C159.158 5.53147 158.901 4.23447 158.003 3.45189C157.487 2.96015 156.744 2.68309 156.033 2.82729Z" fill="#E0E0E0"/>
<path d="M58.62 16.1401C62.1209 15.7002 65.7505 16.4528 68.7902 18.2335C72.6357 20.4564 75.5035 24.2041 76.8217 28.4118C78.2817 33.0206 77.9379 38.1811 75.8204 42.5355C74.0085 46.305 70.8555 49.4548 66.9799 51.1026C63.5581 52.5778 59.6164 52.8144 56.0447 51.7539C52.3752 50.687 49.1546 48.285 46.9622 45.1871C44.3828 41.5804 43.2014 37.0477 43.5673 32.6463C43.9086 28.1931 45.8745 23.8598 49.1082 20.744C51.6721 18.2497 55.0499 16.5686 58.62 16.1401ZM58.7927 25.301C56.9482 25.719 55.2756 26.7835 54.0739 28.2296C52.5324 30.0612 51.7715 32.4989 51.9287 34.8782C52.0778 37.5363 53.4075 40.1246 55.5559 41.7311C57.3548 43.1107 59.7313 43.7216 61.9791 43.3538C64.3255 42.9965 66.4552 41.5812 67.7783 39.6312C69.1715 37.6173 69.7027 35.0565 69.288 32.6529C68.857 30.0386 67.261 27.6171 64.9569 26.2674C63.1279 25.1738 60.8719 24.8238 58.7927 25.301Z" fill="#E0E0E0"/>
<path d="M1.36804 17.0966C2.61049 17.0917 3.85376 17.0893 5.09621 17.0982C10.2135 23.2608 15.3315 29.4234 20.4521 35.5844C25.5799 29.5814 30.6923 23.5671 35.8234 17.5673C37.0235 17.5705 38.2227 17.5673 39.4228 17.5705C39.4245 28.9074 39.4245 40.2442 39.4228 51.5803C36.1819 51.5835 32.9417 51.5835 29.7032 51.5803C29.7016 47.6812 29.7032 43.7812 29.7016 39.8829C26.6146 43.1801 23.5398 46.4871 20.4545 49.7867C17.4514 46.4109 14.4573 43.0254 11.4543 39.6504C11.4527 43.586 11.4559 47.5208 11.4527 51.458C8.09194 51.4588 4.73039 51.4628 1.36967 51.4555C1.36804 40.002 1.36804 28.5501 1.36804 17.0966Z" fill="#E0E0E0"/>
<path d="M82.0336 17.5709C83.1937 17.5661 84.3531 17.5709 85.5132 17.5677C91.121 22.5337 96.7157 27.5152 102.322 32.4829C102.325 27.5492 102.32 22.6172 102.323 17.6843C105.364 17.6892 108.407 17.6625 111.445 17.6981C111.437 29.0293 111.443 40.3621 111.442 51.6925C110.441 51.6998 109.442 51.6941 108.441 51.6957C102.598 46.5328 96.7661 41.3561 90.9205 36.1924C90.9205 41.3999 90.9181 46.609 90.9222 51.8165C87.9582 51.8229 84.9967 51.8197 82.0327 51.8181C82.0336 40.4034 82.0336 28.9872 82.0336 17.5709Z" fill="#E0E0E0"/>
<path d="M115.163 17.9214C124.005 17.9214 132.849 17.9198 141.694 17.9231C141.693 20.6305 141.697 23.3363 141.691 26.0437C138.85 26.047 136.009 26.0421 133.169 26.0453C133.166 34.6367 133.169 43.2281 133.166 51.8194C130.047 51.8227 126.929 51.8226 123.809 51.821C123.804 43.2669 123.811 34.7137 123.806 26.1596C120.924 26.1563 118.044 26.1596 115.163 26.1579C115.16 23.4124 115.16 20.6661 115.163 17.9214Z" fill="#E0E0E0"/>
<path d="M129.629 57.9188C133.361 57.4627 137.145 57.7203 140.853 58.2607C140.574 60.8085 140.297 63.3555 140.011 65.9018C138.23 65.5242 136.409 65.3193 134.588 65.3177C132.279 65.3015 130.024 66.1075 128.079 67.3089C126.079 68.5654 124.449 70.5146 123.92 72.8413C123.279 75.6653 123.847 78.8167 125.687 81.0989C127.427 83.2408 129.994 84.6391 132.679 85.2119C135.504 85.6518 138.386 85.4209 141.215 85.1163C141.248 87.5952 141.413 90.0799 141.242 92.5548C137.743 93.0863 134.176 93.2985 130.649 92.9469C128.483 92.6836 126.277 92.2219 124.392 91.0861C121.725 89.7502 119.35 87.8188 117.554 85.4452C115.648 82.9265 114.528 79.8294 114.417 76.6764C114.304 73.3711 114.752 69.9621 116.274 66.9841C117.268 65.0171 118.77 63.3353 120.52 62.001C121.793 61.0208 123.199 60.2301 124.585 59.4224C126.122 58.5353 127.886 58.1497 129.629 57.9188Z" fill="#E0E0E0"/>
<path d="M29.8832 58.023C32.9832 58.0157 36.0824 58.0189 39.1816 58.0214C39.1832 66.8047 39.18 75.5881 39.1832 84.373C41.6665 84.3909 44.1522 84.3439 46.6339 84.3965C46.6062 87.142 46.6322 89.8851 46.6216 92.6322C41.0221 92.6363 35.4225 92.6322 29.8237 92.6339C29.8302 81.0961 29.8734 69.5599 29.8832 58.023Z" fill="#E0E0E0"/>
<path d="M62.0116 57.9315C63.483 57.9266 64.9544 57.9299 66.4266 57.9299C71.0819 69.4879 75.7266 81.0508 80.3771 92.6096C76.9854 92.6007 73.5945 92.591 70.202 92.5894C68.2255 87.6339 66.2653 82.6711 64.2912 77.7155C62.1029 82.6824 59.9056 87.6428 57.7156 92.6072C54.482 92.6194 51.2484 92.6258 48.0155 92.6339C52.679 81.0638 57.3473 69.4984 62.0116 57.9315Z" fill="#E0E0E0"/>
<path d="M1.14646 58.147C6.94563 58.1453 12.7473 58.138 18.5464 58.1502C21.1152 58.3341 23.7443 59.5558 25.1253 61.7885C26.4362 63.9102 26.5356 66.5495 26.1087 68.9418C25.6997 71.2961 24.2592 73.6333 21.9259 74.4936C24.3171 75.2114 26.2121 77.2408 26.8395 79.6331C27.3902 81.7321 27.3006 83.9964 26.6374 86.0598C25.9229 88.2819 24.2324 90.1282 22.1426 91.1611C20.5987 91.934 18.8951 92.416 17.1655 92.5083C11.8258 92.5116 6.48695 92.5116 1.14646 92.5083C1.14483 81.0548 1.14483 69.6005 1.14646 58.147ZM10.6102 64.2553C10.6151 66.5698 10.629 68.8851 10.6306 71.1997C12.2405 71.2232 13.8504 71.2531 15.4611 71.2726C16.5667 71.2863 17.7187 70.6982 18.1529 69.6491C18.6002 68.5611 18.5888 67.2868 18.1594 66.1955C17.7081 65.0662 16.508 64.3914 15.3201 64.3565C13.7518 64.3136 12.181 64.2869 10.6102 64.2553ZM10.3675 77.8402C10.3658 80.1839 10.3658 82.5276 10.3675 84.8713C11.957 84.8681 13.5465 84.8713 15.1344 84.8413C16.4754 84.6453 17.8148 83.7817 18.2311 82.4474C18.5953 81.2565 18.412 79.8153 17.4873 78.9185C16.6367 78.1043 15.4171 77.7876 14.2634 77.7673C12.9656 77.7876 11.6669 77.8095 10.3675 77.8402Z" fill="#E0E0E0"/>
<path d="M81.8413 58.531C83.0023 58.527 84.1633 58.5286 85.3234 58.5286C90.9271 63.4971 96.525 68.472 102.129 73.4421C102.134 68.5101 102.127 63.5765 102.133 58.642C105.17 58.6404 108.209 58.6404 111.248 58.6436C111.251 69.9805 111.249 81.3174 111.249 92.6534C110.251 92.6575 109.253 92.6534 108.255 92.655C102.41 87.4905 96.5764 82.313 90.7299 77.1485C90.7291 82.3535 90.7291 87.5602 90.7291 92.7652C87.7668 92.7725 84.8045 92.7668 81.843 92.7668C81.8413 81.3554 81.8413 69.9432 81.8413 58.531Z" fill="#E0E0E0"/>
</g>
<defs>
<clipPath id="clip0_127_266">
<rect width="169.2" height="94" fill="white"/>
</clipPath>
</defs>
</svg>
