<svg width="39" height="98" viewBox="0 0 39 98" fill="none" xmlns="http://www.w3.org/2000/svg">
<path d="M3.25696 94.6439H133.543V3.25018H3.25696V94.6439Z" fill="#E0E0E0"/>
<path d="M6.89062 91.0625H129.938V6.86267H6.89062V91.0625Z" fill="#E0E0E0"/>
<path d="M11.1399 86.8384H125.66V10.91H11.1399V86.8384Z" fill="white"/>
<path fill-rule="evenodd" clip-rule="evenodd" d="M116.986 60.5393C116.166 53.1707 111.623 48.9185 103.389 48.8893C94.129 48.8893 88.1802 55.0347 88.1802 64.2964C88.1802 73.0047 93.6894 79.7325 103.389 79.7325C112.18 79.7325 117.103 73.4124 117.103 67.471H108.019C107.462 70.2378 106.261 72.3931 103.125 72.3931C98.8176 72.3931 97.4111 68.2574 97.4111 64.2964C97.4111 60.3354 98.8176 56.2288 103.125 56.2288C106.964 56.2288 107.814 59.4908 107.99 60.5393H116.986ZM68.2536 57.1317H72.3853C74.6419 57.1317 76.7517 57.3064 76.7517 59.9859C76.7517 62.9566 74.2316 63.1023 71.8287 63.1023H68.2536V57.1317ZM58.9935 79.0335H68.2536V70.1213H73.7334C80.6198 70.1213 85.4842 66.772 85.4842 59.6364C85.4842 55.4424 82.6419 49.5883 74.4954 49.5883H58.9935V79.0335ZM18.8176 79.0335H27.5796V60.1315H27.6675L32.8543 79.0335H39.77L44.9861 60.1315H45.0741V79.0335H53.8067V49.5883H40.6492L36.3707 66.9176H36.2827L31.9752 49.5883H18.8176V79.0335Z" fill="#E0E0E0"/>
</svg>
