<svg width="204" height="39" viewBox="0 0 204 39" fill="none" xmlns="http://www.w3.org/2000/svg">
<g clip-path="url(#clip0_127_279)">
<path d="M61.2536 0.779737V37.3563H70.052V8.68442H80.004C83.6884 8.68442 85.0075 10.8011 85.0075 13.2503C85.0075 15.7558 83.6327 17.8153 79.9483 17.8153H71.4258L83.5231 37.3561H93.5312C93.5312 37.3561 85.2829 24.2179 85.3385 24.2179C90.4529 22.9935 93.7514 19.3743 93.7514 13.0273C93.7514 6.0682 89.2425 0.778963 79.9498 0.778963L61.2536 0.779737ZM46.517 0.779366H55.3153V37.3575H46.517V0.779366ZM24.0272 23.5499H16.6232L22.1021 12.304H22.2128L34.5298 37.357H44.6475L26.2265 0.779366H18.4188L-0.0022583 37.357H9.89522L12.8791 31.2331H27.7111L24.0272 23.5499ZM97.9295 0.779882V37.3565H119.322C126.8 37.3565 131.694 33.2923 131.694 27.1125C131.693 22.8262 129.329 19.5975 125.865 18.3726C128.67 16.8133 130.154 14.3077 130.154 10.6331C130.154 4.73171 125.809 0.779366 118.496 0.779366L97.9295 0.779882ZM106.729 8.51836H118.496C120.256 8.51836 121.631 9.90991 121.631 11.7475C121.631 13.5851 120.256 14.9766 118.441 14.9766H106.729L106.729 8.51836ZM106.729 22.2687H118.717C120.861 22.2687 122.511 23.8281 122.511 25.9434C122.512 28.1144 120.861 29.729 118.717 29.729H106.729V22.2687ZM159.464 21.2118C159.464 26.7638 156.934 29.8412 151.931 29.8412C146.982 29.8412 144.452 26.7638 144.452 21.2118V0.779572H135.435V20.5439C135.435 31.846 141.319 38.1371 151.931 38.1371C162.543 38.1371 168.482 31.846 168.482 20.5439V0.779572H159.464V21.2118ZM187.508 -0.000366211C178.215 -0.000366211 172.99 4.67674 172.99 10.9673C172.99 17.7364 176.892 20.4866 185.857 22.4362C192.836 23.994 194.324 24.9661 194.324 26.9456C194.324 29.096 192.4 30.0638 188.606 30.0638C183.107 30.0638 178.131 28.7118 174.145 26.501L171.45 34.2953C175.794 36.6335 182.282 38.1373 188.826 38.1373C197.954 38.1373 203.397 33.8496 203.397 26.6674C203.398 20.9054 199.716 17.2039 191.96 15.3106C183.608 13.2516 181.789 13.0551 181.789 10.6338C181.789 8.7606 183.877 7.84929 187.397 7.84929C192.071 7.84929 197.048 9.03742 199.879 10.8012L202.683 3.34093C199.054 1.39237 193.72 -0.000108124 187.507 -0.000108124L187.508 -0.000366211Z" fill="#E0E0E0"/>
</g>
<defs>
<clipPath id="clip0_127_279">
<rect width="203.4" height="38.1375" fill="white"/>
</clipPath>
</defs>
</svg>
