<svg width="20" height="20" viewBox="0 0 20 20" fill="none" xmlns="http://www.w3.org/2000/svg">
<path d="M10 0C15.5228 0 20 4.47715 20 10C20 15.5228 15.5228 20 10 20C4.47717 20 0 15.5228 0 10C0 4.47716 4.47717 1.51496e-05 10 0ZM9.99805 5.28906C8.25061 5.2891 6.6372 5.82338 5.2998 6.7373H2.61719L3.82422 8.0498C3.08457 8.72465 2.62012 9.69703 2.62012 10.7764C2.62019 12.8131 4.27189 14.4647 6.30859 14.4648C7.2762 14.4648 8.15829 14.0915 8.81641 13.4814L9.99805 14.7686L11.1807 13.4824C11.8388 14.0924 12.719 14.4648 13.6865 14.4648C15.7233 14.4648 17.3769 12.8132 17.377 10.7764C17.378 9.69591 16.9145 8.72356 16.1748 8.0498L17.3818 6.7373H14.7051C13.3655 5.82229 11.7477 5.28906 9.99805 5.28906ZM6.30957 8.28027C7.68833 8.28027 8.80566 9.39758 8.80566 10.7764C8.8056 12.1551 7.68829 13.2725 6.30957 13.2725C4.931 13.2722 3.81354 12.155 3.81348 10.7764C3.81348 9.39771 4.93099 8.28049 6.30957 8.28027ZM13.6875 8.28027C15.0663 8.28027 16.1836 9.39758 16.1836 10.7764C16.1835 12.1551 15.0662 13.2725 13.6875 13.2725C12.3088 13.2724 11.1915 12.1551 11.1914 10.7764C11.1914 9.39762 12.3088 8.28035 13.6875 8.28027ZM6.30957 9.46777C5.58686 9.46799 5.00195 10.0536 5.00195 10.7764C5.00202 11.4991 5.5869 12.0847 6.30957 12.085C7.03242 12.085 7.6181 11.4992 7.61816 10.7764C7.61816 10.0534 7.03246 9.46665 6.30957 9.46777ZM13.6875 9.4668C12.9646 9.46687 12.3789 10.0525 12.3789 10.7754C12.3791 11.4981 12.9647 12.0829 13.6875 12.083C14.4103 12.083 14.9959 11.4982 14.9961 10.7754C14.9961 10.0536 14.4104 9.4668 13.6875 9.4668ZM9.99805 6.49512C10.9802 6.49512 11.917 6.69239 12.7695 7.04883C11.1943 7.65214 9.99926 9.06089 9.99902 10.7031C9.99879 9.06089 8.80486 7.65103 7.22852 7.04883C8.08094 6.69244 9.01603 6.49514 9.99805 6.49512Z" fill="#0F172A"/>
</svg>
