<svg width="95" height="20" viewBox="0 0 95 20" fill="none" xmlns="http://www.w3.org/2000/svg">
<g clip-path="url(#clip0_127_490)">
<path d="M93.4897 13.3651C93.1981 13.3651 92.9612 13.602 92.9612 13.8936C92.9612 14.1852 93.198 14.4221 93.4897 14.4221C93.7813 14.4221 94.0182 14.1852 94.0182 13.8936C94.0182 13.602 93.7813 13.3651 93.4897 13.3651ZM93.4897 14.3383C93.2439 14.3383 93.045 14.1383 93.045 13.8936C93.045 13.6478 93.245 13.4489 93.4897 13.4489C93.7355 13.4489 93.9355 13.6489 93.9355 13.8936C93.9355 14.1383 93.7355 14.3383 93.4897 14.3383ZM93.6617 13.8031C93.6617 13.707 93.5936 13.65 93.493 13.65H93.3242V14.1316H93.4069V13.9573H93.4974L93.5846 14.1316H93.674L93.5779 13.9394C93.6293 13.9159 93.6617 13.869 93.6617 13.8031ZM93.4897 13.8824H93.4081V13.7227H93.4897C93.5455 13.7227 93.5791 13.7506 93.5791 13.802C93.579 13.8545 93.5444 13.8824 93.4897 13.8824ZM29.8103 8.01649V6.73828H27.8505V14.3427H29.8103V9.78301C29.8103 8.9573 30.3399 8.55169 31.1656 8.55169H32.2382V6.73831H31.322C30.6047 6.73828 29.9812 7.11258 29.8103 8.01649ZM34.074 3.73047C33.4036 3.73047 32.8896 4.26009 32.8896 4.93048C32.8896 5.58522 33.4036 6.11484 34.074 6.11484C34.7444 6.11484 35.2584 5.58522 35.2584 4.93048C35.2583 4.26006 34.7444 3.73047 34.074 3.73047ZM33.0963 14.3428H35.0517V6.73828H33.0963V14.3428ZM44.3656 10.5405C44.3656 12.7115 42.6058 14.4713 40.4349 14.4713C39.5589 14.4713 38.7645 14.1841 38.1276 13.6992V16.5752H36.1723V6.73828H38.1276V7.38184C38.7645 6.89693 39.5589 6.60978 40.4349 6.60978C42.6058 6.60978 44.3656 8.36957 44.3656 10.5405ZM42.398 10.5405C42.398 9.36175 41.4416 8.40531 40.2628 8.40531C39.084 8.40531 38.1276 9.36175 38.1276 10.5405C38.1276 11.7193 39.0841 12.6757 40.2628 12.6757C41.4416 12.6757 42.398 11.7204 42.398 10.5405ZM78.35 9.87349L77.2092 9.56063C76.4584 9.36509 76.1668 9.13493 76.1668 8.73829C76.1668 8.35169 76.5779 8.0813 77.1656 8.0813C77.7254 8.0813 78.1645 8.44778 78.1645 8.91704V8.9606H79.9668V8.91704C79.9668 7.53713 78.8416 6.60976 77.1656 6.60976C75.5065 6.60976 74.3008 7.53601 74.3008 8.8131C74.3008 9.80641 74.9589 10.555 76.1075 10.8656L77.2003 11.164C78.0304 11.3941 78.3388 11.6489 78.3388 12.1059C78.3388 12.5875 77.893 12.9115 77.2293 12.9115C76.5377 12.9115 76.0718 12.4734 76.0718 11.8232V11.7796H74.1589V11.8232C74.1589 13.383 75.4148 14.4735 77.2137 14.4735C78.9466 14.4735 80.2048 13.4087 80.2048 11.9427C80.2047 11.2232 79.8829 10.2824 78.35 9.87349ZM51.302 6.73828H53.2572V14.3427H51.302V13.6992C50.6651 14.1841 49.8706 14.4712 48.9947 14.4712C46.8237 14.4712 45.064 12.7115 45.064 10.5405C45.064 8.36951 46.8237 6.60976 48.9947 6.60976C49.8706 6.60976 50.6651 6.89691 51.302 7.38181V6.73828ZM51.302 10.5405C51.302 9.36063 50.3455 8.40531 49.1667 8.40531C47.9879 8.40531 47.0315 9.36175 47.0315 10.5405C47.0315 11.7193 47.9879 12.6757 49.1667 12.6757C50.3466 12.6757 51.302 11.7204 51.302 10.5405ZM60.3176 4.03214H62.2729V14.3439H60.3176V13.7003C59.6807 14.1852 58.8863 14.4724 58.0103 14.4724C55.8394 14.4724 54.0796 12.7126 54.0796 10.5416C54.0796 8.37064 55.8393 6.61088 58.0103 6.61088C58.8863 6.61088 59.6807 6.89803 60.3176 7.38294V4.03214ZM60.3176 10.5405C60.3176 9.36175 59.3611 8.40531 58.1824 8.40531C57.0036 8.40531 56.0472 9.36175 56.0472 10.5405C56.0472 11.7193 57.0025 12.6757 58.1824 12.6757C59.3611 12.6757 60.3176 11.7204 60.3176 10.5405ZM71.3511 14.3428H73.3064V6.73828H71.3511V14.3428ZM72.3288 3.73047C71.6584 3.73047 71.1444 4.26009 71.1444 4.93048C71.1444 5.58522 71.6584 6.11484 72.3288 6.11484C72.9991 6.11484 73.5131 5.58522 73.5131 4.93048C73.5131 4.26006 72.9991 3.73047 72.3288 3.73047ZM88.6561 10.5405C88.6561 12.7115 86.8964 14.4713 84.7254 14.4713C82.5545 14.4713 80.7947 12.7115 80.7947 10.5405C80.7947 8.36954 82.5544 6.60978 84.7254 6.60978C86.8964 6.60978 88.6561 8.36957 88.6561 10.5405ZM86.8606 10.5405C86.8606 9.36175 85.9042 8.40531 84.7254 8.40531C83.5466 8.40531 82.5902 9.36175 82.5902 10.5405C82.5902 11.7193 83.5455 12.6757 84.7254 12.6757C85.9042 12.6757 86.8606 11.7204 86.8606 10.5405ZM28.8092 4.03214H21.3086V5.77628H24.0851V14.3427H26.0338V5.77628H28.8103V4.03214H28.8092ZM66.7411 12.2601L65.0014 6.73831H62.9477L65.5567 14.3428H67.9098L70.5343 6.73831H68.4807L66.7411 12.2601ZM91.5209 8.01649V6.73828H89.5612V14.3427H91.5209V9.78301C91.5209 8.9573 92.0506 8.55169 92.8762 8.55169H93.9489V6.73831H93.0327C92.3153 6.73828 91.693 7.11258 91.5209 8.01649Z" fill="#0F172A"/>
<path d="M10 20C15.5228 20 20 15.5228 20 10C20 4.47715 15.5228 0 10 0C4.47715 0 0 4.47715 0 10C0 15.5228 4.47715 20 10 20Z" fill="#34E0A1"/>
<path d="M16.1747 8.04998L17.3814 6.73712H14.7055C13.3658 5.82202 11.7479 5.28906 9.9982 5.28906C8.25069 5.28906 6.63731 5.82316 5.29987 6.73712H2.61719L3.82389 8.04998C3.08424 8.72482 2.62055 9.69691 2.62055 10.7762C2.62055 12.8131 4.27197 14.4645 6.30884 14.4645C7.27644 14.4645 8.15799 14.0913 8.8161 13.4813L9.99822 14.7684L11.1803 13.4824C11.8385 14.0924 12.7189 14.4645 13.6865 14.4645C15.7234 14.4645 17.377 12.8131 17.377 10.7762C17.3781 9.69579 16.9144 8.72373 16.1747 8.04998ZM6.30993 13.2723C4.93115 13.2723 3.81386 12.155 3.81386 10.7762C3.81386 9.39745 4.93117 8.28014 6.30993 8.28014C7.68869 8.28014 8.80601 9.39745 8.80601 10.7762C8.80601 12.155 7.68869 13.2723 6.30993 13.2723ZM9.99932 10.7036C9.99932 9.06114 8.80492 7.65109 7.22837 7.04885C8.08088 6.69241 9.01607 6.49465 9.9982 6.49465C10.9803 6.49465 11.9166 6.69241 12.7691 7.04885C11.1937 7.65222 9.99932 9.06117 9.99932 10.7036ZM13.6876 13.2723C12.3088 13.2723 11.1915 12.155 11.1915 10.7762C11.1915 9.39745 12.3088 8.28014 13.6876 8.28014C15.0664 8.28014 16.1837 9.39745 16.1837 10.7762C16.1837 12.155 15.0664 13.2723 13.6876 13.2723ZM13.6876 9.46672C12.9647 9.46672 12.3792 10.0522 12.3792 10.7751C12.3792 11.498 12.9647 12.0835 13.6876 12.0835C14.4105 12.0835 14.996 11.498 14.996 10.7751C14.996 10.0533 14.4105 9.46672 13.6876 9.46672ZM7.61831 10.7762C7.61831 11.4991 7.03283 12.0846 6.30993 12.0846C5.58704 12.0846 5.00156 11.4991 5.00156 10.7762C5.00156 10.0533 5.58704 9.46784 6.30993 9.46784C7.03283 9.46672 7.61831 10.0533 7.61831 10.7762Z" fill="black"/>
</g>
<defs>
<clipPath id="clip0_127_490">
<rect width="95" height="20" fill="white"/>
</clipPath>
</defs>
</svg>
